<svg width="24" height="24" viewBox="0 0 24 24" fill="none" xmlns="http://www.w3.org/2000/svg">
<path d="M20.0306 9.63352L12.5306 16.821C12.461 16.8878 12.3783 16.9409 12.2872 16.977C12.1962 17.0132 12.0986 17.0318 12 17.0318C11.9014 17.0318 11.8038 17.0132 11.7128 16.977C11.6217 16.9409 11.539 16.8878 11.4694 16.821L3.96937 9.63352C3.82864 9.49865 3.74958 9.31573 3.74958 9.125C3.74958 8.93427 3.82864 8.75135 3.96937 8.61649C4.1101 8.48162 4.30098 8.40585 4.5 8.40585C4.69902 8.40585 4.88989 8.48162 5.03062 8.61649L12 15.2964L18.9694 8.61649C19.0391 8.54971 19.1218 8.49674 19.2128 8.46059C19.3039 8.42445 19.4015 8.40585 19.5 8.40585C19.5985 8.40585 19.6961 8.42445 19.7872 8.46059C19.8782 8.49674 19.9609 8.54971 20.0306 8.61649C20.1003 8.68327 20.1556 8.76254 20.1933 8.8498C20.231 8.93705 20.2504 9.03056 20.2504 9.125C20.2504 9.21944 20.231 9.31296 20.1933 9.40021C20.1556 9.48746 20.1003 9.56674 20.0306 9.63352Z" fill="black"/>
</svg>
