<svg width="461" height="461" viewBox="0 0 461 461" fill="none" xmlns="http://www.w3.org/2000/svg">
<path d="M460.4 230.68C460.4 357.733 357.413 460.72 230.359 460.72C103.306 460.72 0.319336 357.733 0.319336 230.68C0.319336 103.626 103.306 0.639624 230.359 0.639624C357.413 0.639624 460.4 103.626 460.4 230.68Z" fill="#ADD0CF"/>
<path d="M263.399 80.0801C204.146 74.2268 151.359 117.52 145.506 176.787L132.786 305.587C130.879 324.96 134.253 343.627 141.679 360.213C170.666 381.067 206.213 393.387 244.639 393.387C277.279 393.387 307.826 384.493 334.052 369.053C341.172 356.413 345.866 342.147 347.386 326.787L360.106 197.973C365.959 138.707 322.666 85.9334 263.399 80.0801Z" fill="#040606"/>
<path d="M230.36 460.72C283.187 460.72 331.813 442.88 370.653 412.933C359.746 385.08 335.066 363.36 303.453 357.666L180.827 335.56C133.84 327.106 88.8266 357.146 78.2266 403.16C118.773 438.96 172.013 460.72 230.36 460.72Z" fill="#7DBBC0"/>
<path d="M159.64 272.254C129.013 249.747 122.426 206.667 144.933 176.04L175.36 134.64C197.866 104.013 240.946 97.4402 271.573 119.947C302.2 142.454 308.786 185.533 286.266 216.16L255.853 257.547C233.346 288.187 190.266 294.76 159.64 272.254Z" fill="white"/>
<path d="M355.733 242.28L360.107 197.973C365.68 141.533 326.653 90.9996 271.733 81.2662C262.093 85.7596 253.36 92.5596 246.413 101.56C223.213 131.666 228.8 174.88 258.893 198.08L299.586 229.453C316.173 242.24 336.72 246.266 355.733 242.28Z" fill="#040606"/>
<path d="M256.373 262.134L297.253 254.027C312.48 251.014 322.373 236.214 319.36 220.987C316.333 205.76 301.546 195.867 286.32 198.88L245.426 206.987C230.2 210.014 220.306 224.8 223.32 240.027C226.346 255.254 241.133 265.16 256.373 262.134Z" fill="white"/>
<path d="M259.266 376.266L201.839 361.853C195.946 360.373 192.359 354.386 193.839 348.493L228.226 211.573L308.292 231.666L274.226 367.306C272.572 373.92 265.879 377.933 259.266 376.266Z" fill="white"/>
<path d="M283.466 101.533C282.586 101.533 281.733 101.133 281.186 100.4C280.239 99.1332 280.493 97.3465 281.747 96.3999C291.867 88.8132 289.4 74.1198 289.373 73.9732C289.106 72.4265 290.133 70.9466 291.68 70.6799C293.227 70.3999 294.719 71.4399 294.986 72.9866C295.119 73.7333 298.053 91.2932 285.173 100.96C284.653 101.347 284.053 101.533 283.466 101.533Z" fill="#040606"/>
<path d="M285.119 102.813C284.932 102.813 284.746 102.8 284.559 102.76C283.012 102.453 282.012 100.947 282.319 99.4001C285.492 83.6134 302.612 78.6934 303.332 78.4934C304.852 78.0668 306.426 78.9467 306.839 80.4667C307.266 81.9867 306.386 83.56 304.866 83.9734C304.666 84.0267 290.372 88.2267 287.919 100.533C287.639 101.88 286.452 102.813 285.119 102.813Z" fill="#040606"/>
<path d="M317.386 256.68C317.386 262.573 312.613 267.347 306.719 267.347C300.826 267.347 296.053 262.573 296.053 256.68C296.053 250.787 300.826 246.013 306.719 246.013C312.613 246.013 317.386 250.787 317.386 256.68Z" fill="#7DBBC0"/>
<path d="M206.88 290.307C205.48 290.307 204.254 289.28 204.067 287.853C203.84 286.293 204.933 284.853 206.493 284.64C221.2 282.587 239.84 268.147 240.027 268C241.267 267.04 243.053 267.253 244.027 268.493C244.987 269.733 244.774 271.533 243.534 272.493C242.72 273.133 223.48 288.013 207.28 290.28C207.147 290.293 207.014 290.307 206.88 290.307Z" fill="#040606"/>
<path d="M165.199 189.733C164.053 189.733 162.973 189.04 162.533 187.893C161.986 186.427 162.733 184.773 164.199 184.227C165.066 183.893 185.266 176.053 182.733 159.2C180.786 146.16 173.639 138.973 161.519 137.84C159.946 137.693 158.8 136.307 158.946 134.733C159.093 133.173 160.493 132.013 162.039 132.16C172.413 133.133 185.386 138.467 188.373 158.36C190.946 175.493 174.999 186.267 166.199 189.56C165.866 189.68 165.533 189.733 165.199 189.733Z" fill="#040606"/>
<path d="M242.052 196.84C241.866 196.84 241.666 196.813 241.466 196.773C239.933 196.453 238.946 194.947 239.266 193.4C240.066 189.587 240.266 186.053 239.88 182.893C237.293 162.347 209.733 161.667 208.559 161.653C206.986 161.627 205.733 160.333 205.746 158.76C205.773 157.187 206.999 155.88 208.639 155.947C220.279 156.107 242.973 161.8 245.533 182.187C246.013 185.973 245.773 190.133 244.839 194.573C244.559 195.92 243.372 196.84 242.052 196.84Z" fill="#040606"/>
<path d="M185.814 235.56C177.521 235.56 171.574 232.04 171.467 231.973C170.134 231.146 169.707 229.4 170.52 228.053C171.347 226.72 173.094 226.293 174.427 227.106C175.067 227.493 190.187 236.28 204.814 220.8C205.894 219.653 207.694 219.6 208.84 220.68C209.987 221.76 210.04 223.573 208.96 224.706C200.92 233.213 192.587 235.56 185.814 235.56Z" fill="#040606"/>
<path d="M308.667 221.72C307.694 221.72 306.747 221.24 306.214 220.346C301.747 212.893 287.52 218.72 287.374 218.786C285.934 219.386 284.253 218.706 283.653 217.253C283.04 215.813 283.72 214.146 285.174 213.533C285.934 213.213 304.094 205.733 311.107 217.413C311.907 218.76 311.48 220.506 310.134 221.32C309.667 221.6 309.16 221.72 308.667 221.72Z" fill="#040606"/>
<path d="M225.24 185.12C225.24 189.106 222 192.333 218.026 192.333C214.04 192.333 210.813 189.106 210.813 185.12C210.813 181.146 214.04 177.906 218.026 177.906C222 177.906 225.24 181.146 225.24 185.12Z" fill="#040606"/>
<path d="M174.347 166.533C174.347 170.519 171.12 173.746 167.147 173.746C163.16 173.746 159.934 170.519 159.934 166.533C159.934 162.546 163.16 159.319 167.147 159.319C171.12 159.319 174.347 162.546 174.347 166.533Z" fill="#040606"/>
</svg>
