<svg width="461" height="461" viewBox="0 0 461 461" fill="none" xmlns="http://www.w3.org/2000/svg">
<path d="M0.212891 230.6C0.212891 103.546 103.2 0.559663 230.253 0.559663C357.306 0.559663 460.306 103.546 460.306 230.6C460.306 357.653 357.306 460.64 230.253 460.64C103.2 460.64 0.212891 357.653 0.212891 230.6Z" fill="#F4D7D2"/>
<path d="M21.8799 328.093C58.5865 406.386 138.067 460.64 230.253 460.64C298.36 460.64 359.533 431.026 401.653 383.986C343.293 334.546 258.053 303.346 163.04 303.346C112.32 303.346 64.4266 312.28 21.8799 328.093Z" fill="#040606"/>
<path d="M274.32 318.36C239.68 308.667 202.187 303.346 163.04 303.346C152.253 303.346 141.6 303.8 131.093 304.586C135 353.746 161.987 392.213 197.307 394.64C231.68 397.013 262.907 364.48 274.32 318.36Z" fill="white"/>
<path d="M243.613 353.533L151.307 328.027L177.707 232.52L270 258.027L243.613 353.533Z" fill="white"/>
<path d="M252.213 322.373L270 258.026L211.373 241.813L186.573 258.653C194.347 287.32 217.293 310.52 252.213 322.373Z" fill="#040606"/>
<path d="M241.026 263.68H270C316.16 263.68 353.573 226.266 353.573 180.106V145.92C353.573 99.7597 316.16 62.333 270 62.333H241.026C194.88 62.333 157.453 99.7597 157.453 145.92V180.106C157.453 226.266 194.88 263.68 241.026 263.68Z" fill="#040606"/>
<path d="M187.973 234H275.04C296.2 234 313.346 216.853 313.346 195.693V134.2C313.346 89.68 277.253 53.5867 232.733 53.5867C186.866 53.5867 149.68 90.7733 149.68 136.64V195.693C149.68 216.853 166.827 234 187.973 234Z" fill="#040606"/>
<path d="M142.36 126.547C142.173 126.547 141.974 126.52 141.774 126.48C140.227 126.16 139.254 124.64 139.574 123.107C144.934 97.8669 157.133 78.9736 175.853 66.9203C195.48 54.2936 222.28 50.1069 247.533 55.7069C249.08 56.0536 250.04 57.5736 249.707 59.1069C249.36 60.6402 247.854 61.6269 246.307 61.2669C222.494 56.0002 197.307 59.8936 178.947 71.7203C161.547 82.9069 150.173 100.6 145.147 124.294C144.867 125.627 143.68 126.547 142.36 126.547Z" fill="#040606"/>
<path d="M164.16 177.613L146.454 172.347C135.64 169.133 129.48 157.76 132.693 146.947C135.907 136.133 147.28 129.987 158.093 133.2L175.8 138.453C186.614 141.68 192.773 153.04 189.56 163.853C186.347 174.667 174.973 180.827 164.16 177.613Z" fill="white"/>
<path d="M164.974 174.88C169.467 176.214 174.227 175.72 178.36 173.494C182.48 171.254 185.493 167.547 186.827 163.04C188.173 158.547 187.667 153.787 185.44 149.667C183.2 145.534 179.493 142.534 174.987 141.187L157.28 135.92C152.787 134.587 148.027 135.08 143.907 137.32C139.774 139.56 136.76 143.267 135.427 147.76C134.093 152.267 134.587 157.014 136.827 161.147C139.053 165.267 142.76 168.28 147.267 169.614L164.974 174.88ZM170.013 181.32C167.787 181.32 165.547 181 163.347 180.347L145.64 175.08C139.68 173.307 134.773 169.32 131.813 163.854C128.853 158.387 128.2 152.094 129.974 146.134C131.734 140.187 135.72 135.267 141.187 132.307C146.653 129.347 152.947 128.694 158.907 130.467L176.613 135.734C182.573 137.507 187.48 141.48 190.44 146.947C193.4 152.414 194.067 158.707 192.293 164.667C190.52 170.627 186.533 175.534 181.067 178.494C177.613 180.374 173.827 181.32 170.013 181.32Z" fill="#040606"/>
<path d="M316.613 216.839L335.093 216.493C346.373 216.293 355.347 206.973 355.133 195.706C354.933 184.426 345.613 175.453 334.347 175.653L315.867 175.999C304.587 176.213 295.613 185.52 295.826 196.786V196.799C296.026 208.066 305.347 217.039 316.613 216.839Z" fill="white"/>
<path d="M334.72 178.507C334.613 178.507 334.507 178.507 334.387 178.507L315.92 178.853C306.227 179.027 298.493 187.053 298.667 196.747C298.853 206.32 306.693 213.987 316.24 213.987C316.347 213.987 316.453 213.987 316.573 213.987L335.04 213.653C344.733 213.467 352.467 205.44 352.293 195.747C352.107 186.173 344.267 178.507 334.72 178.507ZM316.24 219.693C303.6 219.693 293.213 209.533 292.973 196.853C292.747 184.013 302.987 173.387 315.813 173.147L334.293 172.813C347.173 172.56 357.747 182.827 357.987 195.653C358.227 208.48 347.973 219.107 335.147 219.347L316.68 219.68C316.533 219.693 316.387 219.693 316.24 219.693Z" fill="#040606"/>
<path d="M237.787 289.613C284.733 289.613 322.773 251.56 322.773 204.613V177.627C322.773 130.68 284.733 92.6266 237.787 92.6266C190.853 92.6266 152.8 130.68 152.8 177.627V204.613C152.8 251.56 190.853 289.613 237.787 289.613Z" fill="white"/>
<path d="M326.96 174.987V175.12C312.333 165.227 301.533 130.747 301.533 89.7201V89.5734C316.16 99.4668 326.96 133.947 326.96 174.987Z" fill="#040606"/>
<path d="M240.12 292.453C220.493 292.453 201.32 285.64 186.133 273.266C184.92 272.266 184.733 270.48 185.72 269.253C186.72 268.04 188.52 267.853 189.733 268.853C203.907 280.4 221.8 286.76 240.12 286.76C280.733 286.76 314.813 256.373 319.413 216.093C319.587 214.533 320.987 213.386 322.56 213.586C324.133 213.76 325.253 215.173 325.067 216.746C320.147 259.906 283.627 292.453 240.12 292.453Z" fill="#040606"/>
<path d="M154.667 163.146C154.507 163.146 154.36 163.133 154.2 163.107C152.64 162.84 151.6 161.373 151.853 159.826C153.44 150.28 145.733 145.426 145.413 145.226C144.066 144.4 143.64 142.653 144.453 141.307C145.267 139.973 147 139.533 148.346 140.346C148.813 140.626 159.706 147.333 157.48 160.76C157.24 162.146 156.04 163.146 154.667 163.146Z" fill="#040606"/>
<path d="M325.587 205.187C325.493 205.187 325.387 205.173 325.28 205.16C323.72 205 322.587 203.6 322.747 202.026C324.187 188.493 336.48 184.946 337 184.8C338.52 184.386 340.093 185.267 340.507 186.787C340.92 188.293 340.04 189.866 338.533 190.28C338.16 190.4 329.44 193.013 328.413 202.626C328.267 204.093 327.027 205.187 325.587 205.187Z" fill="#040606"/>
<path d="M263.346 157.519C262.133 160.693 268.267 166.013 277.053 169.386C285.84 172.773 293.96 172.946 295.173 169.773C296.4 166.599 290.266 161.279 281.48 157.893C272.68 154.519 264.573 154.346 263.346 157.519Z" fill="#040606"/>
<path d="M200.2 152.973C200.427 156.359 208.24 158.586 217.627 157.946C227.027 157.293 234.453 154.026 234.227 150.626C233.987 147.239 226.187 145.013 216.787 145.653C207.387 146.306 199.96 149.573 200.2 152.973Z" fill="#040606"/>
<path d="M238.067 210.347C236.627 210.347 235.387 209.267 235.227 207.8C235.067 206.227 236.214 204.827 237.774 204.667C240.134 204.427 242.2 203.24 243.587 201.333C244.987 199.427 245.494 197.093 245.014 194.787L240.507 172.973C240.2 171.427 241.187 169.92 242.734 169.6C244.267 169.293 245.773 170.28 246.093 171.813L250.6 193.627C251.4 197.48 250.52 201.52 248.187 204.693C245.867 207.88 242.28 209.933 238.36 210.333C238.253 210.347 238.16 210.347 238.067 210.347Z" fill="#040606"/>
<path d="M225.066 249.813C222.413 249.813 219.906 249.187 217.533 247.947C207.92 242.853 204.68 229.12 204.546 228.533C204.186 227 205.146 225.48 206.68 225.12C208.213 224.773 209.733 225.72 210.093 227.253C210.12 227.373 212.906 239.067 220.213 242.907C223.2 244.494 226.533 244.52 230.4 243.013C231.853 242.44 233.506 243.16 234.08 244.627C234.653 246.093 233.933 247.747 232.466 248.32C229.906 249.32 227.44 249.813 225.066 249.813Z" fill="#040606"/>
<path d="M210.36 75.2798C193.667 80.8798 179.12 88.2797 168.387 96.0664C168.76 99.1064 169.427 102.133 170.427 105.106C175.16 119.226 186.293 129.8 200.733 135.76C209.467 134.306 218.8 132 228.333 128.786C266.827 115.853 294 93.3998 289.027 78.6264C284.067 63.8398 248.84 62.3464 210.36 75.2798Z" fill="#040606"/>
<path d="M329.786 120.293C340.2 134.48 342.933 150.16 339.733 163.027C336.773 163.813 333.72 164.333 330.586 164.52C315.72 165.4 301.733 159.027 290.813 147.867C294.733 138.293 289.053 119.347 275.786 105.133C248.08 75.4532 298.52 77.6533 329.786 120.293Z" fill="#040606"/>
<path d="M215.227 177.679C214.973 183.426 217.733 188.213 221.4 188.373C225.053 188.533 228.227 184 228.48 178.253C228.72 172.506 225.96 167.72 222.307 167.56C218.64 167.4 215.48 171.919 215.227 177.679Z" fill="#040606"/>
<path d="M268.987 190.599C268.734 196.346 271.493 201.133 275.147 201.293C278.813 201.453 281.987 196.919 282.227 191.173C282.48 185.426 279.72 180.639 276.067 180.479C272.4 180.319 269.227 184.853 268.987 190.599Z" fill="#040606"/>
<path d="M274.187 74.7461C274.12 74.7461 274.067 74.7461 274 74.7461C272.44 74.6528 271.24 73.2928 271.333 71.7195C272.04 60.4128 258.187 53.7728 258.053 53.7195C256.627 53.0395 256.013 51.3461 256.68 49.9327C257.333 48.5061 259.027 47.8794 260.453 48.5461C261.173 48.8794 277.973 56.8794 277.027 72.0794C276.933 73.5861 275.68 74.7461 274.187 74.7461Z" fill="#040606"/>
<path d="M275.267 68.1328C275.12 68.1328 274.96 68.1195 274.8 68.1062C273.254 67.8529 272.2 66.3862 272.454 64.8262C273.774 56.7328 280.12 54.3861 283.293 54.2661C283.32 54.2661 283.36 54.2661 283.387 54.2661C284.92 54.2661 286.187 55.4795 286.24 57.0128C286.294 58.5728 285.08 59.8928 283.52 59.9595C282.747 60.0128 278.934 60.5195 278.08 65.7462C277.854 67.1462 276.64 68.1328 275.267 68.1328Z" fill="#040606"/>
<path d="M223.227 139.92C221.92 139.92 220.734 139.027 220.44 137.693C220.094 136.16 221.067 134.64 222.6 134.293C245.373 129.213 262.547 118.28 273.627 101.787C274.507 100.48 276.267 100.133 277.574 101.013C278.88 101.893 279.227 103.667 278.36 104.96C266.44 122.707 248.094 134.44 223.84 139.853C223.64 139.907 223.427 139.92 223.227 139.92Z" fill="#040606"/>
<path d="M163.387 113.013L161.146 168.107L170.08 170.507L192.413 107.027L163.387 113.013Z" fill="#040606"/>
</svg>
