<svg width="461" height="461" viewBox="0 0 461 461" fill="none" xmlns="http://www.w3.org/2000/svg">
<path d="M460.48 230.68C460.48 357.733 357.493 460.72 230.44 460.72C103.387 460.72 0.399902 357.733 0.399902 230.68C0.399902 103.626 103.387 0.639624 230.44 0.639624C357.493 0.639624 460.48 103.626 460.48 230.68Z" fill="#FCD0D5"/>
<path d="M425.346 352.826L408.373 335.413C377.68 303.906 333.44 289.533 290.093 296.986L164.426 318.56C129.12 324.626 97.7196 344.626 77.293 374.053L66.2797 389.933L66.0664 391.56C107.826 434.213 166.027 460.72 230.44 460.72C312.6 460.72 384.653 417.626 425.346 352.826Z" fill="white"/>
<path d="M66.0667 394.413C65.9467 394.413 65.8268 394.4 65.7068 394.386C64.1468 394.186 63.0402 392.76 63.2402 391.2L63.4534 389.573C63.5068 389.12 63.6667 388.693 63.9334 388.306L74.9467 372.44C95.68 342.56 128.12 321.906 163.947 315.746L289.613 294.173C333.88 286.56 379.053 301.24 410.413 333.426L427.387 350.84C428.48 351.973 428.453 353.773 427.333 354.866C426.213 355.973 424.4 355.946 423.307 354.813L406.333 337.4C376.28 306.56 333 292.506 290.573 299.786L164.907 321.36C130.573 327.266 99.4933 347.053 79.6266 375.68L69.0133 390.986L68.8933 391.92C68.7066 393.36 67.48 394.413 66.0667 394.413Z" fill="#040606"/>
<path d="M266.853 311.546C252.587 283.146 244.56 237.906 257.4 165.986C281.533 30.8929 193.12 262.426 193.12 262.426C194.64 270.066 204.507 288.76 180.787 325.946L266.853 311.546Z" fill="white"/>
<path d="M180.773 328.786C180.253 328.786 179.72 328.653 179.253 328.346C177.92 327.493 177.533 325.733 178.387 324.413C198.6 292.706 193.6 274.933 191.2 266.399C190.827 265.079 190.52 263.946 190.32 262.986C190.213 262.453 190.253 261.906 190.453 261.413C190.587 261.053 204.2 225.453 219.107 190.706C250.187 118.213 256.373 119.959 260.04 120.973C264.04 122.093 267.347 126.519 260.213 166.479C249.24 227.919 252.333 276.293 269.4 310.266C270.107 311.679 269.533 313.386 268.133 314.093C266.72 314.799 265.013 314.226 264.307 312.826C246.68 277.733 243.413 228.159 254.6 165.479C259.64 137.253 258.933 129.159 258.28 126.906C249.413 133.173 220.213 199.533 196.08 262.639C196.24 263.293 196.453 264.039 196.68 264.853C199.307 274.186 204.787 293.626 183.187 327.479C182.64 328.333 181.72 328.786 180.773 328.786Z" fill="#040606"/>
<path d="M173.826 108.12C173.826 108.12 152.4 240.986 160.973 271C169.546 301 195.12 308 225.253 266.706C283.12 187.413 280.973 125.266 263.84 114.546C246.693 103.84 199.546 63.1198 173.826 108.12Z" fill="white"/>
<path d="M210.253 127.414C189.44 130.76 156.68 142.413 135.253 88.8401C113.826 35.2535 160.973 24.5468 184.546 52.4002C208.12 80.2668 205.973 93.1202 190.973 80.2668C175.973 67.4002 199.547 28.8269 220.973 54.5469C242.4 80.2669 250.973 118.84 240.266 116.694C229.546 114.547 263.84 71.6935 276.693 90.9735C289.546 110.267 298.12 138.12 283.12 146.694C268.12 155.267 250.973 125.267 265.973 135.987C280.973 146.694 285.267 204.56 265.973 213.134C246.693 221.707 246.693 206.707 263.84 189.56C280.973 172.414 257.4 137.054 248.84 171.347C248.093 174.28 242.4 193.84 242.4 193.84L229.546 204.56C229.546 204.56 229.546 165.987 238.12 152.054C257.44 120.654 256.853 119.934 210.253 127.414Z" fill="#040606"/>
<path d="M198.52 339.787L202.413 371.587L268.387 319.2L263.653 300.254L198.52 339.787Z" fill="white"/>
<path d="M201.573 341.266L204.626 366.199L265.186 318.106L261.826 304.693L201.573 341.266ZM202.413 374.439C202.053 374.439 201.693 374.373 201.333 374.226C200.386 373.84 199.72 372.959 199.586 371.933L195.693 340.133C195.546 339.026 196.08 337.933 197.04 337.346L262.173 297.813C262.947 297.346 263.893 297.266 264.733 297.613C265.573 297.96 266.2 298.68 266.413 299.56L271.146 318.506C271.426 319.586 271.04 320.733 270.16 321.426L204.186 373.826C203.68 374.226 203.053 374.439 202.413 374.439Z" fill="#040606"/>
<path d="M179.733 315.373L170.8 366.573L196.173 342.267L179.733 315.373Z" fill="white"/>
<path d="M181.24 323.306L175.106 358.506L192.546 341.8L181.24 323.306ZM170.799 369.413C170.346 369.413 169.893 369.306 169.466 369.08C168.373 368.506 167.786 367.293 167.999 366.08L176.919 314.893C177.119 313.72 178.026 312.8 179.199 312.573C180.359 312.36 181.546 312.88 182.159 313.893L198.613 340.773C199.306 341.92 199.119 343.4 198.146 344.32L172.773 368.626C172.226 369.146 171.519 369.413 170.799 369.413Z" fill="#040606"/>
<path d="M185.733 298.453C184.24 298.453 182.853 298.32 181.573 298.093C170.826 296.173 162.533 286.84 158.226 271.773C151.773 249.213 161.466 172.466 167.826 128.746C168.053 127.186 169.48 126.106 171.053 126.333C172.613 126.56 173.693 128 173.453 129.56C168.4 164.4 157.32 247.866 163.706 270.213C167.373 283.066 174.08 290.973 182.573 292.48C194.186 294.546 208.533 284.8 222.96 265.026C223.88 263.76 225.666 263.48 226.933 264.413C228.213 265.333 228.493 267.12 227.56 268.386C209.973 292.48 195.626 298.453 185.733 298.453Z" fill="#040606"/>
<path d="M176.186 235.68C175.413 235.68 174.666 235.373 174.12 234.8C173.546 234.2 173.253 233.36 173.346 232.52L180.053 172.213C180.226 170.653 181.68 169.52 183.2 169.706C184.76 169.88 185.893 171.28 185.72 172.853L179.386 229.773L184.373 229.44C185.96 229.306 187.306 230.52 187.4 232.093C187.506 233.653 186.32 235.013 184.746 235.12L176.373 235.68C176.306 235.68 176.253 235.68 176.186 235.68Z" fill="#090C12"/>
<path d="M170.72 194.306C170.72 196.533 168.92 198.333 166.693 198.333C164.466 198.333 162.667 196.533 162.667 194.306C162.667 192.093 164.466 190.28 166.693 190.28C168.92 190.28 170.72 192.093 170.72 194.306Z" fill="#040606"/>
<path d="M172.693 183.427C171.453 183.427 170.32 182.6 169.973 181.373C169.92 181.253 169.68 180.733 168.893 180.413C168 180.04 165.307 179.493 159.307 182.293C157.893 182.96 156.187 182.347 155.52 180.92C154.867 179.493 155.48 177.8 156.907 177.133C163.053 174.253 167.96 173.653 171.467 175.32C174.627 176.827 175.387 179.573 175.467 179.88C175.853 181.413 174.92 182.96 173.387 183.333C173.16 183.4 172.933 183.427 172.693 183.427Z" fill="#040606"/>
<path d="M204.213 194.306C204.213 196.533 202.413 198.333 200.2 198.333C197.973 198.333 196.173 196.533 196.173 194.306C196.173 192.093 197.973 190.28 200.2 190.28C202.413 190.28 204.213 192.093 204.213 194.306Z" fill="#040606"/>
<path d="M206.2 183.427C204.96 183.427 203.826 182.6 203.466 181.373C203.426 181.253 203.186 180.733 202.386 180.413C201.506 180.04 198.813 179.493 192.813 182.293C191.386 182.96 189.693 182.347 189.026 180.92C188.359 179.493 188.973 177.8 190.4 177.133C196.56 174.253 201.466 173.653 204.973 175.32C208.12 176.827 208.893 179.573 208.959 179.88C209.346 181.413 208.426 182.96 206.893 183.333C206.666 183.4 206.426 183.427 206.2 183.427Z" fill="#040606"/>
<path d="M204.653 261.934C203.52 261.934 202.439 261.227 201.999 260.107C201.439 258.627 202.173 256.987 203.64 256.414C208.493 254.547 211.706 247.04 212.546 244.294C212.999 242.787 214.586 241.934 216.093 242.4C217.599 242.854 218.453 244.427 217.999 245.934C217.839 246.454 214.146 258.48 205.679 261.734C205.346 261.867 205 261.934 204.653 261.934Z" fill="#090C12"/>
<path d="M171.12 448.373C171.093 448.373 171.067 448.373 171.053 448.36C169.48 448.32 168.227 447.013 168.28 445.44C169.533 397.453 193.32 341.693 193.56 341.133C194.187 339.693 195.867 339.026 197.307 339.653C198.747 340.266 199.413 341.946 198.8 343.386C198.56 343.946 175.2 398.706 173.973 445.6C173.933 447.133 172.667 448.373 171.12 448.373Z" fill="#040606"/>
</svg>
