<svg width="462" height="461" viewBox="0 0 462 461" fill="none" xmlns="http://www.w3.org/2000/svg">
<path d="M461.04 230.64C461.04 357.69 358.04 460.68 230.987 460.68C103.947 460.68 0.947266 357.69 0.947266 230.64C0.947266 103.59 103.947 0.599702 230.987 0.599702C358.04 0.599702 461.04 103.59 461.04 230.64Z" fill="#D5CEC0"/>
<path d="M363.44 332.037C342.733 313.364 314.947 304.578 287.267 307.948L93.0264 331.594C72.3864 334.106 53.4798 343.162 38.7598 356.96C79.8931 419.426 150.613 460.68 230.986 460.68C303.613 460.68 368.333 427.001 410.493 374.442L363.44 332.037Z" fill="#040606"/>
<path d="M189.28 377.133C235.227 377.133 272.48 354.689 272.48 327.004C272.48 321.154 270.8 315.543 267.747 310.323L106.24 329.986C108.8 356.281 145 377.133 189.28 377.133Z" fill="white"/>
<path d="M249.573 274.885H207.24C158.573 274.885 118.76 235.07 118.76 186.406V169.631C118.76 108.698 168.613 58.8434 229.547 58.8434L234.186 75.6182C272.386 75.6182 303.626 106.869 303.626 145.063V220.829C303.626 250.559 279.307 274.885 249.573 274.885Z" fill="#040606"/>
<path d="M353.4 134.98C353.4 159.513 333.506 179.401 308.973 179.401C284.44 179.401 264.56 159.513 264.56 134.98C264.56 110.447 284.44 90.5588 308.973 90.5588C333.506 90.5588 353.4 110.447 353.4 134.98Z" fill="#040606"/>
<path d="M196.706 368.868L144.96 343.908C141.56 342.268 140.133 338.181 141.773 334.78L215.52 181.887L298.52 221.92L233.893 355.88C227.213 369.737 210.56 375.552 196.706 368.868Z" fill="white"/>
<path d="M199.467 286.221L252.92 316.429L295.333 228.521L279.614 212.798L242.307 194.807L199.467 286.221Z" fill="#040606"/>
<path d="M252.92 295.536H251.92C195.066 295.536 148.547 249.014 148.547 192.154V191.449C148.547 148.997 183.28 114.264 225.733 114.264H245.573C297.44 114.264 339.88 156.702 339.88 208.57C339.88 256.4 300.746 295.536 252.92 295.536Z" fill="white"/>
<path d="M211.866 72.6135C163.813 78.7161 126.426 118.888 124.652 168.167C135.492 175.363 148.666 179.595 162.879 179.595C199.826 179.595 229.786 151.097 229.786 115.945C229.786 99.2014 222.973 83.9775 211.866 72.6135Z" fill="#040606"/>
<path d="M142.12 124.946C116.733 166.204 124.586 220.523 161.866 252.795C174.266 248.864 185.827 241.258 194.747 230.182C217.907 201.4 214.493 160.2 187.107 138.159C174.053 127.66 157.933 123.416 142.12 124.946Z" fill="#040606"/>
<path d="M204.173 240.659C204.173 259.769 188.68 275.261 169.56 275.261C150.453 275.261 134.96 259.769 134.96 240.659C134.96 221.55 150.453 206.058 169.56 206.058C188.68 206.058 204.173 221.55 204.173 240.659Z" fill="white"/>
<path d="M183.04 242.582C181.72 242.582 180.546 241.671 180.253 240.339C180.226 240.218 177.48 228.245 167.573 224.621C166.093 224.081 165.333 222.445 165.867 220.967C166.413 219.489 168.053 218.725 169.533 219.27C182.427 223.987 185.693 238.517 185.827 239.134C186.147 240.671 185.173 242.187 183.64 242.518C183.44 242.561 183.227 242.582 183.04 242.582Z" fill="#040606"/>
<path d="M261.173 197.041C262.16 201.567 265.293 204.725 268.173 204.096C271.053 203.467 272.586 199.289 271.6 194.763C270.613 190.237 267.48 187.079 264.6 187.708C261.72 188.337 260.187 192.515 261.173 197.041Z" fill="#040606"/>
<path d="M311.733 193.882C312.72 198.407 315.853 201.566 318.733 200.937C321.613 200.309 323.146 196.13 322.16 191.605C321.173 187.078 318.027 183.921 315.147 184.549C312.28 185.178 310.733 189.357 311.733 193.882Z" fill="#040606"/>
<path d="M247.947 181.642C247.253 181.642 246.573 181.399 246.026 180.907C244.866 179.854 244.773 178.052 245.826 176.883C255.266 166.416 270.346 168.896 270.986 169.006C272.546 169.274 273.587 170.748 273.307 172.299C273.04 173.848 271.6 174.891 270.026 174.622C269.893 174.603 257.373 172.598 250.053 180.7C249.493 181.323 248.72 181.642 247.947 181.642Z" fill="#040606"/>
<path d="M289.453 252.925C289.066 252.925 288.667 252.91 288.28 252.878C283.24 252.489 279.053 249.667 275.826 244.494C274.986 243.159 275.4 241.402 276.733 240.569C278.066 239.738 279.826 240.147 280.653 241.479C282.906 245.081 285.546 246.951 288.72 247.198C296.186 247.759 305.426 239.197 308.333 235.838C309.36 234.646 311.16 234.519 312.347 235.545C313.533 236.574 313.666 238.373 312.64 239.563C312.16 240.127 300.96 252.925 289.453 252.925Z" fill="#040606"/>
<path d="M309.453 213.441C309.066 213.441 308.68 213.364 308.306 213.2C296.986 208.231 292.266 193.935 297.8 181.335C303.333 168.737 317.039 162.528 328.359 167.497C329.799 168.129 330.453 169.809 329.826 171.251C329.186 172.689 327.506 173.349 326.066 172.713C317.626 169.008 307.28 173.903 303.013 183.625C298.746 193.349 302.146 204.275 310.6 207.983C312.04 208.615 312.693 210.295 312.066 211.736C311.586 212.804 310.546 213.441 309.453 213.441Z" fill="#040606"/>
<path d="M276.386 103.291C276.386 127.823 256.493 147.712 231.96 147.712C207.427 147.712 187.547 127.823 187.547 103.291C187.547 78.7574 207.427 58.8679 231.96 58.8679C256.493 58.8679 276.386 78.7574 276.386 103.291Z" fill="#040606"/>
<path d="M328.173 105.513C328.173 130.745 307.72 151.201 282.493 151.201C257.253 151.201 236.8 130.745 236.8 105.513C236.8 80.2799 257.253 59.8253 282.493 59.8253C307.72 59.8253 328.173 80.2799 328.173 105.513Z" fill="#040606"/>
<path d="M163.586 107.549C162.346 107.549 161.199 106.725 160.853 105.465C157.453 93.2848 142.866 90.2408 142.719 90.2115C141.186 89.9035 140.173 88.4022 140.493 86.8595C140.799 85.3168 142.266 84.3129 143.84 84.6249C144.573 84.7715 162.013 88.4208 166.333 103.934C166.759 105.45 165.866 107.021 164.359 107.443C164.106 107.515 163.839 107.549 163.586 107.549Z" fill="#040606"/>
<path d="M165.387 106.467C164.867 106.467 164.334 106.321 163.854 106.017C150.294 97.3321 151.92 79.5935 152 78.8415C152.16 77.2802 153.56 76.1388 155.12 76.2935C156.68 76.4522 157.827 77.8455 157.667 79.4095C157.654 79.5588 156.347 94.4401 166.934 101.217C168.254 102.067 168.64 103.828 167.787 105.154C167.254 106.003 166.334 106.467 165.387 106.467Z" fill="#040606"/>
</svg>
