<svg width="461" height="461" viewBox="0 0 461 461" fill="none" xmlns="http://www.w3.org/2000/svg">
<path d="M0.0263672 230.6C0.0263672 103.546 103.026 0.559663 230.066 0.559663C357.12 0.559663 460.12 103.546 460.12 230.6C460.12 357.653 357.12 460.64 230.066 460.64C103.026 460.64 0.0263672 357.653 0.0263672 230.6Z" fill="#BBE1D8"/>
<path d="M230.067 460.64C309.52 460.64 379.573 420.36 420.893 359.106L410.893 347.733C392.96 327.306 365.16 318.56 338.747 325L182.507 363.173C153.013 370.373 131.053 395.093 127.373 425.24L126.093 435.786C157.333 451.653 192.64 460.64 230.067 460.64Z" fill="#040606"/>
<path d="M278.293 337.933L239.76 398.933C229.546 415.12 205.053 411.826 199.466 393.52L155.8 250.28L241.813 222.986L278.293 337.933Z" fill="white"/>
<path d="M258.227 290.946L236.666 222.986L155.8 248.639L178.893 321.399C207.653 323.706 237.067 313.346 258.227 290.946Z" fill="#040606"/>
<path d="M223.706 85.7736L201.986 88.4269C151.386 94.6135 111.746 132.48 105.84 180.28L98.7198 238C96.0531 259.574 112.253 279.174 135.093 282.014L222.706 292.894L223.706 85.7736Z" fill="#040606"/>
<path d="M183.04 87.7601L208.293 85.9868C267.16 81.8401 319.52 112.8 335.307 161.067L354.36 219.36C361.493 241.147 346.747 264.827 321.24 272.533L223.413 302.08L183.04 87.7601Z" fill="#040606"/>
<path d="M191.773 112.359C190.613 112.359 189.533 111.653 189.107 110.519L168.88 57.3594C165.507 48.4927 167.053 38.7727 173.12 30.6927C174.053 29.4394 175.853 29.186 177.107 30.1327C178.36 31.0794 178.613 32.8661 177.667 34.1194C172.733 40.6927 171.507 48.226 174.213 55.3327L194.427 108.493C194.987 109.959 194.253 111.613 192.773 112.173C192.44 112.293 192.107 112.359 191.773 112.359Z" fill="#040606"/>
<path d="M192.76 110.253L178.933 55.746C174.613 38.666 187.08 21.866 205.587 19.866L226.067 17.666C246.453 15.4527 263.453 32.1994 260.227 51.3194L249.667 114.013L192.76 110.253Z" fill="#040606"/>
<path d="M333.227 180.8C329.013 166.653 314.133 158.6 299.987 162.8L299.533 162.933C287.813 122.253 257.227 93.2263 221.333 93.2263C181.627 93.2263 148.44 128.746 140.067 176.28C127.72 176.813 117 185.906 114.893 198.586C112.48 213.146 122.32 226.906 136.88 229.333L141.453 230.093C151.68 274.146 183.56 306.293 221.333 306.293C262.613 306.293 296.853 267.893 303.48 217.52L315.227 214.026C329.373 209.826 337.427 194.946 333.227 180.8Z" fill="white"/>
<path d="M257.973 99.3598C246.587 91.8264 233.787 87.5731 220.253 87.5731C179.373 87.5731 145.2 126.16 136.573 177.786C133.88 177.92 131.267 178.48 128.787 179.386C176.84 181.813 225.867 150.893 257.973 99.3598Z" fill="#040606"/>
<path d="M160.667 189.507C159.213 189.507 157.973 188.413 157.827 186.933C157.68 185.373 158.827 183.973 160.387 183.827C197.16 180.2 231.787 150.747 250.747 106.947C251.373 105.507 253.04 104.84 254.493 105.467C255.933 106.093 256.6 107.773 255.973 109.213C236.187 154.907 199.773 185.667 160.947 189.493C160.853 189.507 160.76 189.507 160.667 189.507Z" fill="#040606"/>
<path d="M241.466 150.293C240.893 150.293 240.333 150.133 239.827 149.786C238.547 148.88 238.226 147.106 239.133 145.813C248.053 133.04 253.333 117.813 254.787 100.52C254.92 98.9597 256.32 97.7997 257.866 97.9197C259.44 98.053 260.6 99.4396 260.466 101C258.92 119.306 253.306 135.48 243.8 149.08C243.24 149.866 242.36 150.293 241.466 150.293Z" fill="#040606"/>
<path d="M302.36 199.467C300.987 199.467 299.786 198.48 299.546 197.08C297.426 184.32 307.787 177.947 308.227 177.68C309.573 176.867 311.32 177.307 312.133 178.654C312.946 180 312.506 181.747 311.173 182.56C310.853 182.747 303.693 187.28 305.173 196.147C305.426 197.693 304.387 199.16 302.827 199.427C302.667 199.453 302.52 199.467 302.36 199.467Z" fill="#040606"/>
<path d="M137.053 211.387C136.933 211.387 136.8 211.373 136.68 211.36C135.12 211.147 134.026 209.733 134.226 208.173C134.266 207.76 135.146 199.373 127.306 195.027C125.933 194.267 125.426 192.533 126.2 191.16C126.96 189.773 128.693 189.28 130.066 190.04C141.386 196.307 139.933 208.387 139.866 208.907C139.68 210.333 138.466 211.387 137.053 211.387Z" fill="#040606"/>
<path d="M193.4 170.76C178.72 170.76 166.787 182.693 166.787 197.373C166.787 212.04 178.72 223.986 193.4 223.986C208.08 223.986 220.013 212.04 220.013 197.373C220.013 182.693 208.08 170.76 193.4 170.76ZM193.4 229.68C175.587 229.68 161.093 215.186 161.093 197.373C161.093 179.56 175.587 165.066 193.4 165.066C211.213 165.066 225.707 179.56 225.707 197.373C225.707 215.186 211.213 229.68 193.4 229.68Z" fill="#7DBBC0"/>
<path d="M262.507 170.76C247.827 170.76 235.894 182.693 235.894 197.373C235.894 212.04 247.827 223.986 262.507 223.986C277.174 223.986 289.12 212.04 289.12 197.373C289.12 182.693 277.174 170.76 262.507 170.76ZM262.507 229.68C244.694 229.68 230.2 215.186 230.2 197.373C230.2 179.56 244.694 165.066 262.507 165.066C280.32 165.066 294.813 179.56 294.813 197.373C294.813 215.186 280.32 229.68 262.507 229.68Z" fill="#7DBBC0"/>
<path d="M230.773 203.133H224.76C223.186 203.133 221.906 201.853 221.906 200.279C221.906 198.706 223.186 197.426 224.76 197.426H230.773C232.36 197.426 233.626 198.706 233.626 200.279C233.626 201.853 232.36 203.133 230.773 203.133Z" fill="#7DBBC0"/>
<path d="M192.267 199.426C192.64 204.839 195.747 209.026 199.187 208.786C202.627 208.546 205.107 203.973 204.733 198.559C204.36 193.146 201.267 188.959 197.813 189.199C194.373 189.439 191.893 194.013 192.267 199.426Z" fill="#040606"/>
<path d="M247.546 198.747C247.546 204.173 250.333 208.573 253.786 208.573C257.24 208.573 260.04 204.173 260.04 198.747C260.04 193.333 257.24 188.933 253.786 188.933C250.333 188.933 247.546 193.333 247.546 198.747Z" fill="#040606"/>
<path d="M219.84 273.427C219.653 273.427 219.453 273.413 219.253 273.373C201.333 269.6 192.8 256.6 192.453 256.053C191.6 254.733 191.987 252.973 193.307 252.12C194.627 251.267 196.387 251.653 197.24 252.973C197.387 253.187 204.987 264.547 220.427 267.787C221.973 268.12 222.96 269.627 222.627 271.173C222.347 272.507 221.16 273.427 219.84 273.427Z" fill="#040606"/>
<path d="M229.706 241.894C228.4 241.894 227.226 241 226.933 239.68C226.573 238.147 227.533 236.614 229.066 236.267C231.2 235.774 232.946 234.454 234.013 232.547C235.08 230.654 235.28 228.454 234.573 226.387L227.84 206.52C227.333 205.027 228.133 203.414 229.626 202.907C231.12 202.4 232.733 203.2 233.24 204.694L239.973 224.56C241.173 228.12 240.826 232.054 238.986 235.334C237.16 238.614 234 240.974 230.346 241.814C230.133 241.867 229.92 241.894 229.706 241.894Z" fill="#040606"/>
<path d="M183.706 92.8262C182.533 92.8262 181.426 92.0928 181.013 90.9328C180.493 89.4528 181.266 87.8128 182.746 87.2928C225.96 71.9195 255.64 84.9195 256.88 85.4795C258.306 86.1328 258.946 87.8129 258.306 89.2529C257.666 90.6795 255.973 91.3195 254.533 90.6795C254.253 90.5595 225.586 78.1061 184.653 92.6661C184.346 92.7728 184.013 92.8262 183.706 92.8262Z" fill="#7DBBC0"/>
</svg>
