<svg width="461" height="461" viewBox="0 0 461 461" fill="none" xmlns="http://www.w3.org/2000/svg">
<path d="M460.306 230.64C460.306 357.69 357.306 460.68 230.253 460.68C103.2 460.68 0.212891 357.69 0.212891 230.64C0.212891 103.59 103.2 0.599702 230.253 0.599702C357.306 0.599702 460.306 103.59 460.306 230.64Z" fill="#EBBBB0"/>
<path d="M89.1468 410.656C88.7735 410.656 88.4136 410.586 88.0536 410.438C86.6003 409.834 85.907 408.167 86.507 406.714L93.8403 389.063C112.014 345.248 156.027 317.247 203.454 319.415L313.813 324.431C314.227 324.45 314.64 324.563 315.013 324.76L407.867 374.026C409.254 374.763 409.787 376.488 409.04 377.878C408.307 379.267 406.587 379.796 405.187 379.058L312.907 330.095L203.187 325.107C158.2 323.062 116.36 349.638 99.107 391.247L91.7736 408.898C91.3203 409.994 90.2535 410.656 89.1468 410.656Z" fill="#040606"/>
<path d="M301.36 278.01L313.68 327.276L336.413 340.54L304.96 393.093C285.16 426.161 235.467 419.804 224.64 382.816L214.2 347.172L301.36 278.01Z" fill="white"/>
<path d="M224.64 382.816C225.32 385.123 226.147 387.312 227.107 389.379C235.574 383.882 243.093 376.29 248.947 366.502L298.52 283.694L296.027 282.242L214.2 347.172L224.64 382.816Z" fill="#040606"/>
<path d="M290.413 97.8407C255.453 78.6034 208.613 86.0473 200.786 99.6886C194.186 92.7286 185.04 87.4673 174.32 85.2393C149.266 80.0353 125.133 93.262 120.44 114.782C116.373 133.423 128.226 152.155 147.746 160.221C141.72 172.807 136.88 186.65 133.653 201.447C120.76 260.502 215.826 285.187 233.893 288.939C282.76 299.093 331.813 264.082 343.466 210.743C355.12 157.406 332.626 121.074 290.413 97.8407Z" fill="#040606"/>
<path d="M306.974 237.91C291.707 309.598 240.467 359.437 192.533 349.227C144.6 339.018 118.12 272.626 133.387 200.937C148.653 129.249 199.893 79.4101 247.827 89.6195C295.76 99.8288 322.24 166.221 306.974 237.91Z" fill="white"/>
<path d="M289.76 112.85C275.733 115.114 264.213 120.802 257.08 130.013C236.986 156.006 253.04 219.27 306.107 231.903C309.413 232.69 313.147 231.805 316.107 233.341C326.547 184.987 315.373 139.578 289.76 112.85Z" fill="#040606"/>
<path d="M145.667 159.505C165.52 170.681 192.773 177.585 222.866 177.585C273.466 177.585 316.053 158.068 328.84 131.509C315.693 104.733 294.373 85.8022 267.387 80.5169C221.253 71.4849 172.6 105.07 145.667 159.505Z" fill="#040606"/>
<path d="M347.787 256.535C347.787 277.117 331.107 293.801 310.52 293.801C289.947 293.801 273.253 277.117 273.253 256.535C273.253 235.955 289.947 219.27 310.52 219.27C331.107 219.27 347.787 235.955 347.787 256.535Z" fill="white"/>
<path d="M201.386 100.989C200.346 100.989 199.333 100.413 198.84 99.4173C191.907 85.6013 179.653 78.1893 162.4 77.388C149.186 76.7693 137.84 80.4586 137.72 80.4959C136.226 80.9932 134.626 80.18 134.12 78.6867C133.626 77.1933 134.44 75.5827 135.933 75.0867C136.426 74.9253 185.093 59.2747 203.933 96.864C204.64 98.2707 204.066 99.9826 202.653 100.688C202.253 100.892 201.813 100.989 201.386 100.989Z" fill="#040606"/>
<path d="M136.293 230.141C137.226 235.821 140.92 239.94 144.533 239.344C148.146 238.747 150.307 233.66 149.373 227.981C148.44 222.303 144.746 218.183 141.133 218.779C137.52 219.376 135.346 224.463 136.293 230.141Z" fill="#040606"/>
<path d="M127.04 211.053C125.934 211.053 124.893 210.414 124.427 209.346C123.787 207.903 124.453 206.225 125.893 205.593C137.773 200.385 150.413 202.422 150.947 202.51C152.493 202.77 153.547 204.237 153.28 205.787C153.027 207.339 151.52 208.386 150.013 208.13C149.893 208.11 138.48 206.301 128.174 210.811C127.8 210.974 127.414 211.053 127.04 211.053Z" fill="#040606"/>
<path d="M191.546 231.72C192.493 237.398 196.173 241.518 199.787 240.922C203.413 240.325 205.573 235.238 204.64 229.56C203.707 223.881 200.013 219.761 196.4 220.357C192.786 220.954 190.613 226.041 191.546 231.72Z" fill="#040606"/>
<path d="M220.96 218.752C220.266 218.752 219.56 218.499 219.013 217.987C218.866 217.848 203.92 204.113 187.707 208.581C186.2 209.001 184.613 208.113 184.2 206.593C183.773 205.077 184.667 203.508 186.187 203.089C205.507 197.76 222.2 213.171 222.907 213.827C224.053 214.904 224.107 216.703 223.04 217.851C222.48 218.449 221.72 218.752 220.96 218.752Z" fill="#040606"/>
<path d="M168.72 265.385C167.493 265.385 156.6 265.221 152.613 259.514C151.467 257.878 150.4 255.098 151.84 251.141C154.787 243.033 160.2 216.75 160.253 216.486C160.56 214.946 162.053 213.947 163.613 214.269C165.16 214.585 166.146 216.091 165.826 217.633C165.6 218.729 160.28 244.59 157.187 253.089C156.533 254.878 156.92 255.745 157.28 256.242C159.08 258.829 165.773 259.681 168.733 259.687C170.293 259.691 171.573 260.967 171.573 262.539C171.573 264.113 170.293 265.385 168.72 265.385Z" fill="#040606"/>
<path d="M172.28 294.512C168.067 294.512 165.267 293.74 165.173 293.713C163.667 293.274 162.8 291.693 163.24 290.182C163.68 288.677 165.253 287.804 166.76 288.241C167.8 288.536 191.413 294.781 202.347 262.569C202.853 261.078 204.466 260.278 205.96 260.786C207.453 261.292 208.24 262.909 207.747 264.4C198.893 290.489 181.907 294.512 172.28 294.512Z" fill="#040606"/>
<path d="M294.533 251.11C293.96 251.11 293.373 250.936 292.867 250.57C291.6 249.65 291.306 247.874 292.226 246.601C292.666 245.992 303.133 231.701 319.8 234.32C321.36 234.562 322.413 236.021 322.173 237.574C321.933 239.129 320.467 240.186 318.92 239.948C305.787 237.89 296.933 249.818 296.84 249.938C296.293 250.705 295.413 251.11 294.533 251.11Z" fill="#040606"/>
</svg>
