<svg width="461" height="461" viewBox="0 0 461 461" fill="none" xmlns="http://www.w3.org/2000/svg">
<path d="M0.842773 230.6C0.842773 103.546 103.837 0.559663 230.893 0.559663C357.933 0.559663 460.933 103.546 460.933 230.6C460.933 357.653 357.933 460.64 230.893 460.64C103.837 460.64 0.842773 357.653 0.842773 230.6Z" fill="#FCD6E7"/>
<path d="M230.893 460.64C302.453 460.64 366.387 427.96 408.587 376.693L408.84 365.066C409.6 330.16 381.933 301.24 347.027 300.48L150.747 296.16C115.839 295.386 86.9215 323.053 86.1535 357.96L85.04 408.493C124.736 441.08 175.52 460.64 230.893 460.64Z" fill="white"/>
<path d="M85.04 411.347C85.0213 411.347 84.9987 411.347 84.976 411.347C83.404 411.307 82.1587 410 82.1921 408.427L83.304 357.893C83.6947 340.253 90.928 323.827 103.679 311.627C116.427 299.427 133.04 292.893 150.8 293.307L347.093 297.627C364.733 298.013 381.173 305.253 393.373 318C405.573 330.747 412.08 347.48 411.693 365.12L411.427 376.76C411.387 378.32 410.12 379.547 408.573 379.547C408.56 379.547 408.533 379.547 408.52 379.547C406.947 379.52 405.693 378.213 405.733 376.64L405.987 365C406.347 348.88 400.4 333.587 389.253 321.947C378.107 310.293 363.093 303.68 346.973 303.32L150.68 299C134.613 298.6 119.268 304.587 107.615 315.733C95.9667 326.88 89.3559 341.907 89.0026 358.027L87.8893 408.56C87.8533 410.107 86.584 411.347 85.04 411.347Z" fill="#040606"/>
<path d="M219.653 281.467H194.04C146.947 281.467 108.783 243.293 108.783 196.213V139.453C108.783 92.3735 146.947 54.2001 194.04 54.2001H219.653C266.733 54.2001 304.907 92.3735 304.907 139.453V196.213C304.907 243.293 266.733 281.467 219.653 281.467Z" fill="#040606"/>
<path d="M230.853 225.854C185.653 225.854 149.013 189.214 149.013 144.014V127.28C149.013 82.0802 185.653 45.4536 230.853 45.4536C276.04 45.4536 312.68 82.0802 312.68 127.28V144.014C312.68 189.214 276.04 225.854 230.853 225.854Z" fill="#040606"/>
<path d="M313.894 139.613C284.2 134.587 250.32 133.067 214.587 135.947C172.147 139.36 111.603 189.533 111.603 205.387C111.603 242.907 91.3629 275.627 61.3535 293C99.7362 313.28 160.947 323.627 228.867 318.16C318.36 310.96 392.147 278.533 415.68 239.987C367 226.547 328.414 188.387 313.894 139.613Z" fill="#040606"/>
<path d="M54.2464 286.813C53.2064 286.813 52.2079 286.24 51.7039 285.253C50.9919 283.853 51.5505 282.133 52.9532 281.427C83.9865 265.667 104.464 234.134 106.393 199.107C106.48 197.533 107.793 196.347 109.393 196.413C110.965 196.493 112.169 197.84 112.081 199.413C110.041 236.467 88.3731 269.84 55.5345 286.507C55.1198 286.72 54.6811 286.813 54.2464 286.813Z" fill="#040606"/>
<path d="M320 118.399C318.68 118.399 317.493 117.493 317.213 116.146C312.187 92.4528 300.813 74.7728 283.413 63.5728C265.053 51.7595 239.88 47.8528 216.053 53.1328C214.507 53.4794 213 52.4928 212.653 50.9594C212.32 49.4261 213.293 47.9061 214.827 47.5728C240.08 41.9595 266.88 46.1595 286.507 58.7861C305.227 70.8261 317.427 89.7328 322.787 114.959C323.107 116.506 322.133 118.013 320.587 118.346C320.387 118.386 320.187 118.399 320 118.399Z" fill="#040606"/>
<path d="M298.2 169.467L315.907 164.213C326.72 160.987 332.88 149.627 329.667 138.813C326.453 128 315.08 121.84 304.267 125.053L286.56 130.32C275.747 133.533 269.587 144.907 272.8 155.72C276.013 166.533 287.387 172.68 298.2 169.467Z" fill="white"/>
<path d="M310.107 127.053C308.427 127.053 306.733 127.293 305.08 127.786L287.373 133.053C282.867 134.386 279.16 137.4 276.92 141.52C274.694 145.653 274.2 150.4 275.533 154.906C276.867 159.4 279.88 163.106 284 165.346C288.133 167.586 292.88 168.079 297.387 166.746L315.093 161.479C319.587 160.133 323.307 157.133 325.533 152.999C327.773 148.879 328.267 144.12 326.933 139.626C325.6 135.12 322.587 131.413 318.454 129.186C315.854 127.773 313 127.053 310.107 127.053ZM292.347 173.173C288.52 173.173 284.747 172.226 281.294 170.36C275.827 167.4 271.84 162.48 270.067 156.52C266.413 144.226 273.44 131.24 285.747 127.586L303.454 122.32C309.414 120.56 315.707 121.213 321.173 124.173C326.64 127.133 330.627 132.039 332.4 137.999C334.16 143.959 333.507 150.253 330.547 155.72C327.587 161.186 322.68 165.173 316.72 166.933L299.013 172.199C296.813 172.853 294.573 173.173 292.347 173.173Z" fill="#040606"/>
<path d="M145.747 208.694L127.267 208.36C115.989 208.147 107.016 198.84 107.223 187.56C107.431 176.28 116.74 167.307 128.013 167.52L146.493 167.854C157.773 168.067 166.747 177.374 166.533 188.654C166.333 199.934 157.013 208.907 145.747 208.694Z" fill="white"/>
<path d="M145.787 205.854C145.907 205.854 146.013 205.854 146.12 205.854C155.653 205.854 163.507 198.187 163.68 188.6C163.773 183.907 162.027 179.467 158.773 176.08C155.507 172.707 151.133 170.8 146.44 170.707L127.96 170.374C123.196 170.2 118.825 172.027 115.444 175.28C112.067 178.547 110.159 182.92 110.072 187.614C109.987 192.307 111.731 196.76 114.988 200.134C118.247 203.52 122.625 205.427 127.32 205.507L145.787 205.854ZM146.12 211.547C145.973 211.547 145.84 211.547 145.693 211.547L127.213 211.2C120.999 211.094 115.2 208.56 110.888 204.094C106.572 199.614 104.26 193.72 104.375 187.507C104.488 181.294 107.015 175.494 111.491 171.187C115.968 166.867 121.837 164.547 128.067 164.667L146.547 165.014C152.76 165.12 158.56 167.654 162.867 172.134C167.187 176.6 169.493 182.494 169.387 188.707C169.147 201.387 158.747 211.547 146.12 211.547Z" fill="#040606"/>
<path d="M256.653 377.266C222.146 382.613 189.853 358.973 184.506 324.479L172.16 244.826C166.813 210.333 190.453 178.026 224.946 172.679C259.453 167.333 291.746 190.973 297.093 225.466L309.44 305.119C314.786 339.613 291.146 371.919 256.653 377.266Z" fill="white"/>
<path d="M234.76 174.773C231.653 174.773 228.52 175.013 225.387 175.493C209.453 177.96 195.427 186.493 185.92 199.506C176.387 212.52 172.507 228.453 174.973 244.386L187.32 324.04C189.787 339.973 198.307 353.986 211.333 363.506C224.333 373.026 240.28 376.92 256.213 374.453C289.107 369.346 311.72 338.44 306.627 305.546L294.28 225.906C291.813 209.973 283.28 195.946 270.267 186.426C259.813 178.786 247.467 174.773 234.76 174.773ZM246.827 380.866C232.92 380.866 219.4 376.48 207.96 368.106C193.72 357.693 184.387 342.346 181.693 324.906L169.347 245.266C166.64 227.826 170.893 210.373 181.32 196.133C191.733 181.893 207.08 172.573 224.507 169.866C241.96 167.16 259.4 171.413 273.64 181.826C287.88 192.253 297.213 207.586 299.907 225.026L312.253 304.68C317.827 340.68 293.08 374.493 257.093 380.08C253.667 380.613 250.227 380.866 246.827 380.866Z" fill="#040606"/>
<path d="M222.24 281.467C176.587 281.467 139.573 244.453 139.573 198.8V172.547C139.573 126.893 176.587 89.8935 222.24 89.8935C267.893 89.8935 304.907 126.893 304.907 172.547V198.8C304.907 244.453 267.893 281.467 222.24 281.467Z" fill="white"/>
<path d="M135.4 166.84V166.986C150.027 157.093 160.827 122.6 160.827 81.573V81.4397C146.2 91.333 135.4 125.813 135.4 166.84Z" fill="#040606"/>
<path d="M222.24 284.32C178.733 284.32 142.213 251.774 137.293 208.6C137.107 207.04 138.227 205.627 139.8 205.454C141.373 205.267 142.773 206.4 142.947 207.96C147.547 248.24 181.627 278.627 222.24 278.627C240.56 278.627 258.453 272.254 272.627 260.707C273.853 259.72 275.64 259.907 276.627 261.12C277.627 262.334 277.44 264.134 276.227 265.12C261.04 277.507 241.867 284.32 222.24 284.32Z" fill="#040606"/>
<path d="M302.96 155.946C301.586 155.946 300.373 154.96 300.146 153.573C297.906 140.133 308.8 133.426 309.266 133.146C310.626 132.346 312.373 132.773 313.187 134.12C313.987 135.48 313.56 137.213 312.213 138.026C311.853 138.253 304.186 143.106 305.773 152.626C306.026 154.186 304.973 155.653 303.426 155.906C303.266 155.933 303.106 155.946 302.96 155.946Z" fill="#040606"/>
<path d="M136.774 197.04C135.334 197.04 134.094 195.96 133.947 194.493C132.92 184.88 124.195 182.253 123.826 182.147C122.318 181.707 121.438 180.133 121.863 178.627C122.292 177.12 123.847 176.24 125.36 176.653C125.88 176.8 138.174 180.36 139.6 193.893C139.774 195.453 138.64 196.867 137.08 197.027C136.974 197.04 136.867 197.04 136.774 197.04Z" fill="#040606"/>
<path d="M199.013 149.387C200.226 152.56 194.093 157.867 185.306 161.254C176.52 164.64 168.4 164.8 167.186 161.627C165.96 158.454 172.093 153.147 180.88 149.76C189.68 146.374 197.786 146.2 199.013 149.387Z" fill="#040606"/>
<path d="M262.16 144.827C261.933 148.227 254.12 150.454 244.733 149.8C235.333 149.16 227.906 145.88 228.133 142.494C228.373 139.094 236.173 136.867 245.573 137.52C254.973 138.16 262.4 141.44 262.16 144.827Z" fill="#040606"/>
<path d="M176.6 182.746C176.04 182.746 175.48 182.586 174.973 182.239C173.68 181.346 173.36 179.573 174.253 178.279C181.946 167.146 194.586 170.279 200.2 173.479C201.573 174.253 202.04 175.999 201.266 177.359C200.48 178.733 198.733 179.199 197.386 178.426C196.866 178.133 185.546 171.959 178.946 181.519C178.386 182.319 177.493 182.746 176.6 182.746Z" fill="#040606"/>
<path d="M239.12 172.32C238.56 172.32 238 172.16 237.507 171.814C236.213 170.92 235.893 169.147 236.787 167.854C244.467 156.72 257.12 159.854 262.733 163.054C264.093 163.84 264.573 165.574 263.787 166.947C263.013 168.307 261.267 168.787 259.907 168.014C259.427 167.734 248.093 161.507 241.467 171.094C240.92 171.894 240.027 172.32 239.12 172.32Z" fill="#040606"/>
<path d="M224.293 202.213C224.2 202.213 224.093 202.213 224 202.2C220.08 201.8 216.493 199.733 214.173 196.56C211.84 193.386 210.96 189.346 211.76 185.493L216.267 163.68C216.587 162.133 218.093 161.146 219.64 161.466C221.173 161.786 222.16 163.293 221.853 164.826L217.347 186.64C216.867 188.96 217.373 191.293 218.773 193.2C220.16 195.106 222.227 196.293 224.587 196.533C226.147 196.693 227.293 198.093 227.12 199.653C226.973 201.12 225.733 202.213 224.293 202.213Z" fill="#040606"/>
<path d="M227.187 221.467C224.827 221.467 222.347 220.973 219.787 219.973C218.32 219.4 217.6 217.747 218.173 216.28C218.746 214.813 220.4 214.093 221.853 214.667C225.733 216.173 229.067 216.133 232.053 214.56C238.147 211.333 241.413 202.173 242.16 198.907C242.506 197.373 244.04 196.413 245.573 196.773C247.106 197.12 248.067 198.653 247.72 200.187C247.587 200.76 244.333 214.507 234.72 219.587C232.36 220.84 229.84 221.467 227.187 221.467Z" fill="#040606"/>
<path d="M180.96 112.227C177 127.773 168.307 138.973 161.533 137.253C154.773 135.533 152.52 121.533 156.48 105.987C160.44 90.4267 169.133 79.2267 175.893 80.9467C182.653 82.68 184.92 96.68 180.96 112.227Z" fill="#040606"/>
<path d="M206.827 95.2396C218.173 106.586 223.373 119.786 218.44 124.72C213.507 129.653 200.307 124.453 188.973 113.106C177.627 101.76 172.427 88.5596 177.36 83.6263C182.293 78.6929 195.48 83.8929 206.827 95.2396Z" fill="#040606"/>
<path d="M243.267 79.7603C263.947 91.6936 276.506 108.667 271.306 117.654C266.12 126.64 245.147 124.254 224.467 112.32C203.787 100.374 191.227 83.4136 196.427 74.4136C201.613 65.4269 222.587 67.8136 243.267 79.7603Z" fill="#040606"/>
<path d="M323.333 185.666C322.4 185.666 321.467 185.599 320.533 185.439C315.907 184.706 311.853 182.213 309.107 178.413C308.173 177.146 308.467 175.359 309.733 174.439C311.013 173.506 312.8 173.799 313.72 175.079C315.573 177.639 318.307 179.319 321.427 179.813C324.547 180.319 327.68 179.573 330.24 177.719C332.8 175.853 334.493 173.119 334.987 169.999C335.48 166.879 334.733 163.746 332.88 161.186C331.026 158.626 328.293 156.946 325.173 156.439C322.053 155.946 318.92 156.693 316.36 158.546C315.08 159.466 313.293 159.186 312.373 157.906C311.453 156.639 311.733 154.853 313.013 153.933C316.8 151.186 321.44 150.066 326.067 150.813C330.693 151.559 334.747 154.053 337.493 157.839C340.24 161.639 341.346 166.266 340.613 170.893C339.866 175.519 337.373 179.586 333.587 182.333C330.56 184.519 327 185.666 323.333 185.666Z" fill="#7DBBC0"/>
<path d="M126.28 233.986C126.013 233.986 125.746 233.986 125.48 233.973C120.801 233.76 116.483 231.746 113.321 228.293C110.159 224.84 108.533 220.36 108.743 215.68C109.171 206.013 117.415 198.546 127.04 198.933C128.613 199.013 129.827 200.333 129.76 201.906C129.693 203.48 128.213 204.68 126.787 204.626C120.199 204.333 114.724 209.413 114.435 215.933C114.293 219.093 115.392 222.106 117.527 224.44C119.66 226.773 122.573 228.133 125.733 228.28C128.933 228.426 131.92 227.32 134.253 225.186C136.573 223.053 137.946 220.133 138.08 216.986C138.146 215.413 139.6 214.213 141.053 214.266C142.627 214.333 143.84 215.666 143.773 217.24C143.56 221.906 141.547 226.226 138.093 229.386C134.84 232.373 130.666 233.986 126.28 233.986Z" fill="#7DBBC0"/>
</svg>
