<svg width="461" height="461" viewBox="0 0 461 461" fill="none" xmlns="http://www.w3.org/2000/svg">
<path d="M460.853 230.68C460.853 357.733 357.853 460.72 230.813 460.72C103.76 460.72 0.759766 357.733 0.759766 230.68C0.759766 103.626 103.76 0.639624 230.813 0.639624C357.853 0.639624 460.853 103.626 460.853 230.68Z" fill="#EBBBB0"/>
<path d="M326.56 326.706H131.28C95.0797 326.706 62.1331 341.72 44.4131 365.44C86.2131 423.146 154.107 460.72 230.813 460.72C306.333 460.72 373.346 424.333 415.293 368.12C398.013 342.76 363.933 326.706 326.56 326.706Z" fill="#040606"/>
<path d="M141.6 201.106C141.6 201.106 118.04 114.253 135.32 88.5197C152.987 62.213 174.6 65.9997 206.014 82.0797C237.427 98.1731 234.027 72.3463 276.707 86.9063C300.267 94.9463 315.974 112.64 314.414 130.333C312.84 148.026 312.84 194.68 297.133 212.373C281.413 230.066 166.733 246.146 141.6 201.106Z" fill="#040606"/>
<path d="M221.16 362.427H221.333C202.04 362.427 186.413 346.8 186.413 327.507V200.6C186.413 181.32 202.04 165.68 221.333 165.68H221.16C240.453 165.68 256.08 181.32 256.08 200.6V327.507C256.08 346.8 240.453 362.427 221.16 362.427Z" fill="white"/>
<path d="M221.24 168.534C203.6 168.574 189.253 182.947 189.253 200.6V327.507C189.253 345.174 203.6 359.534 221.24 359.587C238.893 359.534 253.226 345.174 253.226 327.507V200.6C253.226 182.947 238.893 168.574 221.24 168.534ZM221.333 365.28C221.28 365.28 221.213 365.28 221.16 365.28C221.146 365.28 221.12 365.28 221.106 365.28C200.373 365.16 183.56 348.267 183.56 327.507V200.6C183.56 179.854 200.373 162.96 221.106 162.84C221.146 162.84 221.2 162.84 221.24 162.84C221.293 162.827 221.346 162.827 221.386 162.84C242.106 162.96 258.933 179.854 258.933 200.6V327.507C258.933 348.267 242.106 365.16 221.386 365.28C221.373 365.28 221.346 365.28 221.333 365.28Z" fill="#040606"/>
<path d="M166.6 210.493C170.946 226.493 167.666 241.293 159.28 243.573C150.88 245.853 140.559 234.733 136.226 218.746C131.879 202.746 135.159 187.946 143.559 185.666C151.946 183.386 162.266 194.506 166.6 210.493Z" fill="white"/>
<path d="M145.773 188.226C145.266 188.226 144.773 188.293 144.293 188.413C138.413 190.013 134.773 202.56 138.973 218C140.946 225.293 144.266 231.72 148.32 236.08C151.866 239.893 155.586 241.613 158.52 240.826C164.413 239.226 168.053 226.68 163.853 211.24C161.88 203.946 158.56 197.533 154.506 193.173C151.533 189.96 148.426 188.226 145.773 188.226ZM157.013 246.72C152.733 246.733 148.266 244.4 144.133 239.946C139.479 234.933 135.693 227.666 133.466 219.493C128.653 201.706 132.746 185.653 142.813 182.92C147.946 181.52 153.573 183.786 158.679 189.293C163.346 194.32 167.133 201.586 169.359 209.746C174.186 227.533 170.079 243.6 160.013 246.32C159.026 246.6 158.026 246.72 157.013 246.72Z" fill="#040606"/>
<path d="M272.454 210.493C268.107 226.493 271.387 241.293 279.787 243.573C288.174 245.853 298.494 234.733 302.841 218.746C307.174 202.746 303.894 187.946 295.507 185.666C287.107 183.386 276.787 194.506 272.454 210.493Z" fill="white"/>
<path d="M275.2 211.24C271.014 226.68 274.64 239.226 280.534 240.826C286.427 242.426 295.894 233.44 300.08 218C302.067 210.706 302.453 203.48 301.16 197.68C300.04 192.586 297.707 189.213 294.76 188.413C288.893 186.813 279.4 195.8 275.2 211.24ZM282 246.72C281 246.72 280.014 246.586 279.04 246.333C268.974 243.6 264.88 227.533 269.707 209.746C274.534 191.973 286.2 180.173 296.253 182.92C301.387 184.306 305.107 189.106 306.734 196.44C308.214 203.133 307.8 211.32 305.587 219.493C301.227 235.546 291.294 246.72 282 246.72Z" fill="#040606"/>
<path d="M240.547 316.093H198.88C174.16 316.093 154.12 296.053 154.12 271.333V151.813C154.12 127.093 174.16 107.039 198.88 107.039H240.547C265.28 107.039 285.32 127.093 285.32 151.813V271.333C285.32 296.053 265.28 316.093 240.547 316.093Z" fill="white"/>
<path d="M196.667 109.893C174.773 109.893 156.973 127.706 156.973 149.586V273.56C156.973 295.44 174.773 313.253 196.667 313.253H242.773C264.667 313.253 282.467 295.44 282.467 273.56V149.586C282.467 127.706 264.667 109.893 242.773 109.893H196.667ZM242.773 318.946H196.667C171.64 318.946 151.267 298.586 151.267 273.56V149.586C151.267 124.56 171.64 104.2 196.667 104.2H242.773C267.8 104.2 288.16 124.56 288.16 149.586V273.56C288.16 298.586 267.8 318.946 242.773 318.946Z" fill="#040606"/>
<path d="M177.292 213.133C179.012 217.533 182.973 220.093 186.133 218.853C189.293 217.613 190.466 213.053 188.746 208.653C187.026 204.253 183.066 201.707 179.906 202.933C176.746 204.173 175.572 208.747 177.292 213.133Z" fill="#040606"/>
<path d="M198.933 199.146C198.333 199.146 197.719 198.946 197.199 198.546C194.226 196.253 190.106 194.813 185.599 194.493C180.106 194.106 174.932 195.48 171.692 198.16C170.479 199.16 168.693 198.986 167.679 197.773C166.679 196.573 166.853 194.773 168.066 193.773C172.399 190.173 179.093 188.32 185.999 188.813C191.626 189.2 196.839 191.066 200.679 194.04C201.933 195 202.159 196.8 201.199 198.04C200.626 198.76 199.786 199.146 198.933 199.146Z" fill="#040606"/>
<path d="M243.173 213.133C244.893 217.533 248.853 220.093 252.013 218.853C255.173 217.613 256.346 213.053 254.626 208.653C252.906 204.253 248.946 201.707 245.786 202.933C242.613 204.173 241.453 208.747 243.173 213.133Z" fill="#040606"/>
<path d="M264.813 199.146C264.2 199.146 263.586 198.946 263.066 198.546C260.106 196.253 255.987 194.813 251.48 194.493C245.987 194.106 240.8 195.48 237.573 198.16C236.36 199.16 234.56 198.986 233.56 197.773C232.56 196.573 232.72 194.773 233.933 193.773C238.28 190.173 244.973 188.32 251.88 188.813C257.493 189.2 262.706 191.066 266.56 194.04C267.8 195 268.026 196.8 267.066 198.04C266.506 198.76 265.667 199.146 264.813 199.146Z" fill="#040606"/>
<path d="M216.266 243.12C214.426 243.12 212.599 242.347 211.453 241C209.173 238.32 209.413 234.747 209.546 232.613C210.346 220.413 211.453 208.053 212.826 195.867C213 194.307 214.4 193.173 215.973 193.36C217.533 193.533 218.666 194.947 218.48 196.507C217.12 208.6 216.026 220.867 215.24 232.987C215.133 234.627 215.08 236.467 215.8 237.307C215.866 237.373 216.026 237.413 216.186 237.413C216.653 236.187 217.92 235.413 219.266 235.6C220.826 235.827 221.906 237.28 221.68 238.827C221.386 240.787 220.026 242.293 218.013 242.88C217.44 243.04 216.853 243.12 216.266 243.12Z" fill="#040606"/>
<path d="M229.48 263.946C227.28 263.946 225.12 263.56 223.107 262.786C221.627 262.213 220.907 260.573 221.467 259.106C222.04 257.626 223.694 256.906 225.147 257.466C228.494 258.76 232.493 258.44 236.12 256.586C239.733 254.746 242.334 251.693 243.24 248.213C243.654 246.693 245.214 245.8 246.734 246.186C248.254 246.586 249.16 248.146 248.76 249.666C247.427 254.706 243.76 259.08 238.707 261.666C235.747 263.173 232.574 263.946 229.48 263.946Z" fill="#040606"/>
<path d="M158.693 175.373C158.693 175.373 163.8 132.76 176.946 138.6C190.106 144.44 190.587 156.626 211.04 158.08C231.493 159.546 244.64 152.24 251.947 159.546C259.253 166.84 272.4 182.92 289.92 171.226C307.453 159.546 309.16 131.546 281.4 116.933C253.653 102.32 212.013 100.133 188.64 98.6664C165.267 97.2131 141.16 140.306 158.693 175.373Z" fill="#040606"/>
</svg>
