<svg width="462" height="461" viewBox="0 0 462 461" fill="none" xmlns="http://www.w3.org/2000/svg">
<path d="M461.04 230.6C461.04 357.653 358.04 460.64 230.987 460.64C103.947 460.64 0.947266 357.653 0.947266 230.6C0.947266 103.546 103.947 0.559663 230.987 0.559663C358.04 0.559663 461.04 103.546 461.04 230.6Z" fill="#C3DFE1"/>
<path d="M442.146 321.946C428.946 295.36 408.186 273.026 381.906 258.546C381.72 258.56 381.559 258.6 381.386 258.613C367.439 250.72 346.173 251.84 325.599 256.293L99.5193 328.133C78.5326 335.626 61.0663 350.133 46.9062 368.573C88.8796 424.48 155.706 460.64 230.986 460.64C325.573 460.64 406.8 403.533 442.146 321.946Z" fill="#7DBBC0"/>
<path d="M222.373 301.573H319.466V105.773H222.373V301.573Z" fill="white"/>
<path d="M313.453 254.279H172.64C150.48 254.279 132.507 236.319 132.507 214.159V111.666C132.507 91.986 148.467 76.0393 168.133 76.0393H298.893C323.84 76.0393 344.053 96.2526 344.053 121.199V223.679C344.053 240.586 330.36 254.279 313.453 254.279Z" fill="#040606"/>
<path d="M283.36 238.32L308.28 233.774C323.493 231 333.573 216.414 330.8 201.2C328.026 185.987 313.44 175.907 298.226 178.694L273.306 183.24C258.093 186.014 248.013 200.587 250.786 215.8C253.573 231.014 268.146 241.094 283.36 238.32Z" fill="white"/>
<path d="M303.307 181.08C301.787 181.08 300.267 181.214 298.747 181.494L273.826 186.04C267.213 187.24 261.466 190.947 257.653 196.48C253.826 202 252.386 208.68 253.6 215.294C254.8 221.907 258.507 227.64 264.04 231.467C269.56 235.28 276.24 236.72 282.853 235.52L307.773 230.974C314.373 229.76 320.12 226.054 323.947 220.534C327.76 215 329.2 208.32 328 201.72C326.786 195.107 323.08 189.36 317.56 185.547C313.306 182.6 308.373 181.08 303.307 181.08ZM278.266 241.627C272.066 241.627 266.013 239.747 260.8 236.147C254.013 231.467 249.466 224.414 248 216.307C246.506 208.214 248.28 200.014 252.96 193.24C257.653 186.454 264.693 181.907 272.8 180.427L297.72 175.88C305.813 174.4 314.013 176.174 320.8 180.854C327.573 185.547 332.12 192.587 333.6 200.694C335.08 208.8 333.306 217 328.626 223.774C323.946 230.547 316.893 235.094 308.786 236.574L283.866 241.12C282 241.467 280.133 241.627 278.266 241.627Z" fill="#040606"/>
<path d="M305.067 213.08C303.573 213.08 302.32 211.907 302.227 210.387C301.453 196.8 313.013 191.307 313.507 191.08C314.947 190.413 316.627 191.053 317.293 192.48C317.947 193.893 317.333 195.587 315.907 196.253C315.56 196.413 307.373 200.413 307.92 210.067C308 211.64 306.8 212.987 305.24 213.067C305.173 213.08 305.12 213.08 305.067 213.08Z" fill="#040606"/>
<path d="M278.026 310.587H167.306C155.066 310.587 145.146 300.654 145.146 288.414V123.467C145.146 111.227 155.066 101.307 167.306 101.307H278.026C290.266 101.307 300.186 111.227 300.186 123.467V288.414C300.186 300.654 290.266 310.587 278.026 310.587Z" fill="white"/>
<path d="M242.84 142.08C263.28 142.08 280.813 128.747 288.519 109.693C279.506 100.04 267.146 94.0801 253.48 94.0801H189.946C164.293 94.0801 143.186 115.08 140.413 142.08H242.84Z" fill="#040606"/>
<path d="M273.613 89.0262H271.586C265.146 99.2928 261.359 111.72 261.359 125.106C261.359 160.293 287.373 188.826 319.466 188.826C319.973 188.826 320.466 188.8 320.973 188.786V130.933C320.973 107.786 299.773 89.0262 273.613 89.0262Z" fill="#040606"/>
<path d="M299.253 101.986C298.76 101.986 298.253 101.853 297.786 101.573C296.453 100.773 296.013 99.053 296.786 97.7063C296.88 97.5463 298.026 95.293 296.96 91.7596C295.786 87.853 291.706 81.7863 278.986 75.1329C277.6 74.3996 277.053 72.6796 277.786 71.2796C278.52 69.893 280.226 69.3596 281.626 70.0796C293.426 76.2663 300.453 83.1063 302.507 90.4263C304.147 96.2663 301.96 100.173 301.707 100.6C301.173 101.493 300.226 101.986 299.253 101.986Z" fill="#040606"/>
<path d="M286.16 109.267C284.626 109.267 283.373 108.08 283.307 106.56C283.293 106.053 283.24 101.587 287.493 97.2533C292.826 91.8267 302.266 89.2 315.586 89.4533C317.16 89.48 318.413 90.7866 318.373 92.36C318.347 93.92 317.08 95.16 315.533 95.16C315.506 95.16 315.493 95.16 315.466 95.16C301.146 94.8933 294.64 98.2266 291.72 101.08C289.04 103.72 289 106.28 289 106.387C289 107.933 287.76 109.24 286.213 109.267C286.187 109.267 286.173 109.267 286.16 109.267Z" fill="#040606"/>
<path d="M239.894 176.467C239.52 176.467 239.12 176.387 238.76 176.227C229.894 172.32 219.587 171.973 210.481 175.267C209.001 175.8 207.374 175.027 206.827 173.547C206.294 172.067 207.067 170.44 208.547 169.907C219.014 166.12 230.867 166.52 241.053 171.013C242.493 171.64 243.147 173.32 242.507 174.76C242.04 175.827 241 176.467 239.894 176.467Z" fill="#040606"/>
<path d="M144.506 176.653C143.666 176.653 142.813 176.28 142.253 175.56C141.293 174.32 141.519 172.52 142.759 171.56C151.773 164.547 162.066 163.133 173.359 167.373C174.839 167.933 175.586 169.573 175.026 171.04C174.479 172.52 172.826 173.253 171.359 172.707C161.919 169.16 153.706 170.267 146.253 176.053C145.733 176.467 145.12 176.653 144.506 176.653Z" fill="#040606"/>
<path d="M190.867 236.347C190.787 236.347 190.707 236.333 190.64 236.333C179.4 235.413 170.907 226.24 170.547 225.853C169.84 225.067 169.614 223.96 169.974 222.96L185.053 181.16C185.573 179.68 187.213 178.92 188.693 179.453C190.173 179.987 190.947 181.613 190.4 183.093L175.947 223.173C178.387 225.413 184.253 230.093 191.093 230.653C192.667 230.787 193.84 232.16 193.707 233.72C193.587 235.213 192.333 236.347 190.867 236.347Z" fill="#040606"/>
<path d="M225.693 196.159C226.093 201.839 223.014 206.679 218.814 206.986C214.614 207.279 210.88 202.906 210.48 197.239C210.08 191.559 213.16 186.706 217.36 186.413C221.56 186.119 225.293 190.479 225.693 196.159Z" fill="#040606"/>
<path d="M166.68 196.159C167.08 201.839 164 206.679 159.8 206.986C155.6 207.279 151.867 202.906 151.467 197.239C151.067 191.559 154.147 186.706 158.347 186.413C162.547 186.119 166.28 190.479 166.68 196.159Z" fill="#040606"/>
<path d="M114.826 76.0801H230.159V141.773H130.519C121.853 141.773 114.826 134.747 114.826 126.08V76.0801Z" fill="#040606"/>
<path d="M263.159 203.093V218.093C263.159 231.026 252.666 241.52 239.733 241.52H145.146V323.853C145.146 350.013 166.346 371.213 192.506 371.213H252.826C278.986 371.213 300.186 350.013 300.186 323.853V315.146V288.88V177.333H288.919C274.693 177.333 263.159 188.866 263.159 203.093Z" fill="#040606"/>
<path d="M227.853 260.399L188.986 265.146C188.986 265.146 223.533 299.613 227.853 260.399Z" fill="white"/>
</svg>
