<svg width="461" height="461" viewBox="0 0 461 461" fill="none" xmlns="http://www.w3.org/2000/svg">
<path d="M0.132812 230.64C0.132812 103.59 103.12 0.599702 230.173 0.599702C357.226 0.599702 460.226 103.59 460.226 230.64C460.226 357.69 357.226 460.68 230.173 460.68C103.12 460.68 0.132812 357.69 0.132812 230.64Z" fill="#F4D7D2"/>
<path d="M297.173 43.6851C233.987 30.1945 182.493 55.169 155.693 84.1063C105.067 138.785 105.773 187.884 63.1068 241.442C44.3468 264.989 25.3068 281.542 8.77344 293.054C35.9868 389.764 124.773 460.68 230.173 460.68C272.72 460.68 312.533 449.093 346.707 428.962C350.76 425.561 354.826 422.017 358.92 418.286C358.92 418.286 315.92 303.12 348.2 187.854C352.213 173.53 360.507 157.674 367.36 146.017C374.867 133.273 375.213 117.493 368.2 104.477C356.307 82.4157 341.347 53.1118 297.173 43.6851Z" fill="#040606"/>
<path d="M72.9062 343.519L158.28 392.813L289.026 166.364L203.653 117.07L72.9062 343.519Z" fill="white"/>
<path d="M76.7998 342.474L157.24 388.921L285.133 167.406L204.693 120.961L76.7998 342.474ZM158.28 395.661C157.787 395.661 157.293 395.533 156.866 395.281L71.48 345.987C70.12 345.199 69.6532 343.456 70.4399 342.093L201.173 115.645C201.96 114.281 203.706 113.816 205.066 114.601L290.453 163.896C291.106 164.274 291.587 164.896 291.773 165.627C291.973 166.356 291.88 167.135 291.493 167.788L160.76 394.237C160.373 394.892 159.746 395.371 159.026 395.565C158.786 395.631 158.533 395.661 158.28 395.661Z" fill="#040606"/>
<path d="M328.826 93.5989C295.72 78.8256 254.84 93.8869 224.12 128.074C218.573 118.898 209.013 112.831 198.147 112.831C180.987 112.831 167.066 127.946 167.066 146.591C167.066 163.114 178 176.84 192.44 179.758C167.973 241.474 182.133 305.355 225.653 324.78C270.853 344.951 330.587 309.551 359.08 245.712C387.573 181.874 374.026 113.77 328.826 93.5989Z" fill="white"/>
<path d="M198.147 115.679C182.587 115.679 169.92 129.546 169.92 146.591C169.92 161.488 179.627 174.262 193 176.966C193.827 177.132 194.534 177.656 194.947 178.4C195.347 179.142 195.4 180.023 195.08 180.808C171.067 241.419 185 303.516 226.814 322.179C235.04 325.847 243.787 327.594 252.733 327.595C291.333 327.599 333.907 295.13 356.48 244.55C384.28 182.248 371.36 115.699 327.667 96.2002C296.84 82.4415 257.04 95.6989 226.24 129.976C225.64 130.647 224.746 130.994 223.853 130.908C222.96 130.823 222.16 130.32 221.693 129.548C216.427 120.863 207.627 115.679 198.147 115.679ZM252.573 333.255C242.893 333.255 233.413 331.363 224.493 327.38C180.587 307.786 165.133 244.215 188.627 181.715C174.307 177.218 164.227 162.976 164.227 146.591C164.227 126.404 179.44 109.98 198.147 109.98C208.44 109.98 218.04 114.97 224.467 123.494C256.6 89.3442 297.706 76.5869 329.986 90.9976C376.546 111.776 390.774 181.703 361.68 246.874C338.174 299.558 293.44 333.255 252.573 333.255Z" fill="#040606"/>
<path d="M31.5859 346.706C71.5059 414.873 145.466 460.68 230.173 460.68C263.093 460.68 294.359 453.724 322.666 441.272C316.133 414.173 290.68 333.072 212.08 285.385C148.186 246.616 77.9593 298.413 31.5859 346.706Z" fill="#7DBBC0"/>
<path d="M208.147 153.832C206.841 153.832 205.654 152.921 205.36 151.588C205.334 151.451 202.187 137.709 190.774 133.535C189.307 132.995 188.547 131.359 189.081 129.88C189.627 128.401 191.254 127.641 192.734 128.184C207.134 133.452 210.787 149.696 210.934 150.384C211.267 151.923 210.281 153.437 208.747 153.768C208.547 153.812 208.347 153.832 208.147 153.832Z" fill="#040606"/>
<path d="M313.933 251.719C311.053 251.719 308.199 250.823 305.813 249.12C304.533 248.207 304.239 246.427 305.159 245.147C306.066 243.868 307.853 243.569 309.133 244.485C311.053 245.859 313.386 246.343 315.693 245.831C317.999 245.325 319.919 243.916 321.106 241.86L332.146 222.524C332.933 221.159 334.666 220.683 336.039 221.464C337.399 222.244 337.879 223.985 337.093 225.351L326.052 244.688C324.092 248.109 320.759 250.555 316.919 251.399C315.932 251.613 314.933 251.719 313.933 251.719Z" fill="#040606"/>
<path d="M308.547 218.569C308.427 218.569 308.294 218.563 308.174 218.545C306.627 218.344 305.533 216.939 305.72 215.395C305.72 215.255 305.84 213.449 304.293 212.103C302.8 210.8 298.667 208.989 287.76 211.529C286.227 211.885 284.693 210.933 284.333 209.399C283.973 207.867 284.933 206.335 286.467 205.979C296.787 203.576 304.107 204.236 308.187 207.939C311.187 210.652 311.6 214.337 311.374 216.089C311.187 217.524 309.96 218.569 308.547 218.569Z" fill="#040606"/>
<path d="M354.093 244.292C352.52 244.292 351.24 243.017 351.24 241.443C351.24 239.14 350.68 237.567 349.507 236.632C347.534 235.059 344.014 235.404 342.934 235.647C341.4 235.991 339.88 235.033 339.52 233.5C339.173 231.965 340.134 230.44 341.667 230.091C342.374 229.933 348.627 228.643 353.053 232.177C354.827 233.592 356.947 236.348 356.947 241.443C356.947 243.017 355.667 244.292 354.093 244.292Z" fill="#040606"/>
<path d="M301.04 261.978C300.467 261.978 299.893 261.806 299.386 261.451C293.826 257.496 290.573 252.65 289.72 247.042C288.32 237.715 294.24 229.859 294.493 229.528C295.453 228.283 297.24 228.043 298.493 229.001C299.733 229.957 299.973 231.74 299.027 232.988C298.973 233.051 294.293 239.323 295.36 246.234C295.987 250.234 298.44 253.791 302.693 256.804C303.973 257.714 304.28 259.492 303.36 260.775C302.813 261.559 301.933 261.978 301.04 261.978Z" fill="#040606"/>
<path d="M223.279 131.479C223.279 131.479 263.986 154.032 303.492 148.532C353.386 141.584 351.492 127.374 361.599 133.374C380.946 144.855 357.813 89.1604 324.973 81.5817C292.119 74.0017 241.173 84.4923 223.279 131.479Z" fill="#040606"/>
<path d="M295.28 165.275C261.626 165.275 243.213 154.006 233.706 144.551C223.213 134.125 220.906 123.663 220.813 123.225C220.48 121.685 221.466 120.173 222.999 119.847C224.559 119.522 226.052 120.505 226.386 122.041C226.732 123.639 235.346 159.577 295.28 159.577C320.626 159.577 334.6 146.41 344.813 136.794C352.32 129.739 359.399 123.09 366.719 130.045C367.866 131.127 367.906 132.933 366.826 134.073C365.746 135.211 363.933 135.259 362.799 134.175C359.773 131.307 357.239 132.933 348.719 140.945C338.439 150.633 322.88 165.275 295.28 165.275Z" fill="#040606"/>
<path d="M331.6 182.795C331.6 186.197 323.96 188.954 314.547 188.954C305.133 188.954 297.493 186.197 297.493 182.795C297.493 179.394 305.133 176.637 314.547 176.637C323.96 176.637 331.6 179.394 331.6 182.795Z" fill="#040606"/>
<path d="M380.28 212.216C378.587 215.161 371.774 214.413 365.067 210.545C358.374 206.676 354.32 201.153 356.014 198.208C357.72 195.263 364.533 196.011 371.227 199.879C377.933 203.747 381.987 209.271 380.28 212.216Z" fill="#040606"/>
</svg>
