<svg width="461" height="461" viewBox="0 0 461 461" fill="none" xmlns="http://www.w3.org/2000/svg">
<path d="M0.759766 230.64C0.759766 103.59 103.76 0.599702 230.813 0.599702C357.853 0.599702 460.853 103.59 460.853 230.64C460.853 357.69 357.853 460.68 230.813 460.68C103.76 460.68 0.759766 357.69 0.759766 230.64Z" fill="#FCD6E7"/>
<path d="M247.08 68.9492C171.627 68.9492 110.454 130.12 110.454 205.577C110.454 208.04 108.68 253.486 37.707 251.712C25.4004 251.404 13.4935 252.851 2.16016 255.768C14.4002 368.499 108.08 456.72 223.16 460.493C263.974 436.861 291.44 392.756 291.44 342.207C291.44 339.744 291.374 337.298 291.24 334.869C345.014 316.504 383.707 265.576 383.707 205.577C383.707 130.12 322.534 68.9492 247.08 68.9492Z" fill="#040606"/>
<path d="M230.814 460.68C293.094 460.68 349.56 435.892 390.973 395.686L354.573 347.634C327.467 311.846 282.667 294.156 238.414 301.766L27.3867 338.058C65.9734 410.978 142.56 460.68 230.814 460.68Z" fill="#7DBBC0"/>
<path d="M166.733 347.53C159.467 344.025 156.413 335.293 159.92 328.027L215.307 213.224L282.067 245.431L246.214 319.778C231.92 349.387 196.347 361.813 166.733 347.53Z" fill="white"/>
<path d="M266.92 271.229H250.08C203.16 271.229 164.773 232.846 164.773 185.931V168.316C164.773 135.808 191.374 109.212 223.88 109.212H259.573C301.507 109.212 335.8 143.512 335.8 185.435V202.347C335.8 240.232 304.8 271.229 266.92 271.229Z" fill="white"/>
<path d="M301.613 276.928H254.946C245.186 276.928 235.559 275.405 226.333 272.398C224.839 271.912 224.013 270.305 224.506 268.808C224.986 267.313 226.599 266.489 228.093 266.981C236.759 269.8 245.786 271.229 254.946 271.229H301.613C303.186 271.229 304.453 272.505 304.453 274.078C304.453 275.653 303.186 276.928 301.613 276.928Z" fill="#040606"/>
<path d="M229.707 70.0863C164.067 78.4236 112.987 133.298 110.573 200.613C125.387 210.442 143.373 216.224 162.8 216.224C213.266 216.224 254.173 177.297 254.173 129.278C254.173 106.406 244.88 85.6089 229.707 70.0863Z" fill="#040606"/>
<path d="M202.72 233.08C202.72 252.191 187.226 267.682 168.12 267.682C149.013 267.682 133.52 252.191 133.52 233.08C133.52 213.971 149.013 198.48 168.12 198.48C187.226 198.48 202.72 213.971 202.72 233.08Z" fill="white"/>
<path d="M181.586 235.003C180.266 235.003 179.093 234.092 178.8 232.758C178.76 232.555 176 220.655 166.12 217.043C164.64 216.503 163.88 214.867 164.426 213.39C164.96 211.908 166.6 211.15 168.08 211.692C180.973 216.41 184.24 230.938 184.373 231.555C184.707 233.094 183.72 234.607 182.186 234.939C181.986 234.983 181.786 235.003 181.586 235.003Z" fill="#040606"/>
<path d="M259.72 189.461C260.72 193.986 263.854 197.145 266.734 196.517C269.614 195.888 271.147 191.709 270.16 187.184C269.16 182.658 266.027 179.498 263.147 180.128C260.267 180.757 258.733 184.936 259.72 189.461Z" fill="#040606"/>
<path d="M310.28 186.303C311.266 190.829 314.4 193.988 317.28 193.359C320.16 192.731 321.693 188.551 320.706 184.025C319.72 179.5 316.586 176.341 313.706 176.971C310.826 177.6 309.293 181.777 310.28 186.303Z" fill="#040606"/>
<path d="M246.493 174.062C245.813 174.062 245.132 173.82 244.586 173.329C243.412 172.275 243.332 170.473 244.386 169.304C253.826 158.843 268.906 161.316 269.546 161.425C271.093 161.693 272.133 163.168 271.866 164.719C271.599 166.267 270.159 167.323 268.573 167.04C268.319 166.999 255.88 165.069 248.613 173.121C248.053 173.745 247.266 174.062 246.493 174.062Z" fill="#040606"/>
<path d="M275.813 225.999C277.666 232.072 280.76 238.107 285.813 239.381C291.6 240.831 298.746 235.94 303.333 231.825L275.813 225.999ZM287.986 245.34C286.799 245.34 285.613 245.207 284.44 244.911C277.133 243.075 271.973 235.663 269.106 222.879C268.893 221.933 269.173 220.944 269.853 220.255C270.533 219.561 271.533 219.271 272.466 219.468L309.626 227.333C310.613 227.543 311.413 228.257 311.733 229.212C312.053 230.167 311.853 231.221 311.186 231.984C310.679 232.581 299.506 245.34 287.986 245.34Z" fill="#040606"/>
<path d="M308 205.861C307.627 205.861 307.227 205.784 306.867 205.62C295.534 200.652 290.814 186.356 296.347 173.756C301.88 161.157 315.6 154.956 326.92 159.916C328.36 160.548 329.013 162.229 328.387 163.671C327.747 165.109 326.08 165.767 324.627 165.135C316.173 161.424 305.827 166.324 301.56 176.045C297.293 185.769 300.707 196.696 309.147 200.403C310.587 201.035 311.24 202.715 310.614 204.156C310.147 205.224 309.107 205.861 308 205.861Z" fill="#040606"/>
<path d="M266.866 313.032C266.866 308.579 265.986 304.258 264.333 300.131C257.36 299.836 250.28 300.262 243.226 301.475L105.8 325.108C114.333 348.087 146.64 365.186 185.226 365.186C230.306 365.186 266.866 341.835 266.866 313.032Z" fill="white"/>
</svg>
