<svg width="461" height="461" viewBox="0 0 461 461" fill="none" xmlns="http://www.w3.org/2000/svg">
<path d="M0.319336 230.6C0.319336 103.546 103.306 0.559663 230.359 0.559663C357.413 0.559663 460.4 103.546 460.4 230.6C460.4 357.653 357.413 460.64 230.359 460.64C103.306 460.64 0.319336 357.653 0.319336 230.6Z" fill="#D0DAB0"/>
<path d="M350.026 166.453C349.146 218.319 303.666 259.666 248.452 258.839C193.239 257.999 149.199 215.293 150.079 163.439C150.973 111.586 196.452 70.226 251.666 71.066C306.879 71.8927 350.919 114.613 350.026 166.453Z" fill="#040606"/>
<path d="M432.039 341.294L316.306 123.134L273.359 104.187L265.746 457.934C337.519 446.854 398.333 402.574 432.039 341.294Z" fill="#040606"/>
<path d="M270.839 402.307H159.732V190.253H270.839V402.307Z" fill="white"/>
<path d="M159.732 325.16C189.386 318.4 214.946 296.88 225.466 265.987L235.159 237.533L159.732 211.733V325.16Z" fill="#040606"/>
<path d="M271.213 178.48C277.986 148.293 263.866 116.2 235.052 101.453C200.906 83.9734 159.039 97.4934 141.559 131.653L138.052 138.48C130.879 135.747 122.666 138.76 119.146 145.773C115.653 152.72 118.053 161.013 124.399 165.173L112.199 189C94.7193 223.16 108.239 265.013 142.399 282.507C176.546 299.987 218.413 286.467 235.893 252.307L246.386 231.813L260.573 233.187C275.959 234.667 289.639 223.4 291.133 208C292.439 194.44 283.826 182.2 271.213 178.48Z" fill="white"/>
<path d="M262.773 236.653C278.173 238.147 291.853 226.867 293.333 211.48L262.773 236.653Z" fill="white"/>
<path d="M265.533 239.64C264.52 239.64 263.52 239.586 262.506 239.493C260.933 239.333 259.787 237.946 259.947 236.373C260.093 234.813 261.493 233.666 263.053 233.813C269.746 234.48 276.279 232.466 281.453 228.2C286.639 223.92 289.853 217.893 290.506 211.2C290.653 209.64 292.08 208.493 293.613 208.64C295.173 208.786 296.32 210.186 296.173 211.746C295.386 219.96 291.44 227.36 285.08 232.6C279.507 237.186 272.653 239.64 265.533 239.64Z" fill="#040606"/>
<path d="M160.359 291.493C189.813 297.013 220.6 282.879 234.946 254.839L160.359 291.493Z" fill="white"/>
<path d="M172.906 295.507C168.573 295.507 164.199 295.107 159.826 294.293C158.279 294.013 157.266 292.52 157.559 290.974C157.839 289.427 159.333 288.413 160.88 288.693C189.653 294.067 219.066 279.613 232.413 253.533C233.133 252.133 234.839 251.587 236.253 252.293C237.639 253.013 238.2 254.733 237.48 256.133C225.013 280.493 199.64 295.507 172.906 295.507Z" fill="#040606"/>
<path d="M258.226 215.359C258.013 215.359 257.8 215.333 257.6 215.293C256.053 214.946 255.093 213.413 255.44 211.879C258.413 198.599 271.027 196.479 271.573 196.399C273.12 196.146 274.586 197.213 274.826 198.759C275.066 200.319 274.013 201.773 272.453 202.013C272.026 202.093 263.106 203.719 261 213.119C260.706 214.453 259.52 215.359 258.226 215.359Z" fill="#040606"/>
<path d="M146.48 186.399C139.16 186.399 134.68 181.733 134.614 181.666C133.534 180.506 133.6 178.706 134.747 177.639C135.894 176.559 137.68 176.626 138.76 177.759C139.533 178.559 146.52 185.133 157.814 175.773C159.027 174.759 160.827 174.933 161.827 176.146C162.827 177.346 162.653 179.146 161.453 180.146C155.747 184.893 150.654 186.399 146.48 186.399Z" fill="#040606"/>
<path d="M154.467 145.147C153.253 148.853 154.76 152.667 157.827 153.653C160.88 154.653 164.347 152.467 165.547 148.773C166.76 145.067 165.253 141.253 162.2 140.253C159.133 139.253 155.667 141.453 154.467 145.147Z" fill="#040606"/>
<path d="M168.707 124.56C166.987 126.28 169.453 131.546 174.227 136.32C179 141.093 184.266 143.573 185.986 141.84C187.72 140.12 185.24 134.853 180.467 130.08C175.693 125.306 170.427 122.84 168.707 124.56Z" fill="#040606"/>
<path d="M275.226 178.479C281.533 147.039 268.4 113.613 241.64 98.2529C224.96 88.6795 206.293 88.0395 189.986 94.7462C198.733 95.5995 223.133 99.4262 227.933 115.56C233.8 135.306 234.52 172.973 275.226 178.479Z" fill="#040606"/>
<path d="M259.066 179.56C247.586 179.56 238.72 176.986 232.173 171.773C220.093 162.146 218.8 145.493 217.746 132.106C217.24 125.573 216.76 119.4 215.133 115.346C208.253 98.1329 192.28 95.6663 192.106 95.6396C190.56 95.4129 189.466 93.9729 189.693 92.4129C189.92 90.8529 191.359 89.7729 192.919 89.9995C193.706 90.1062 212.32 92.9863 220.426 113.24C222.36 118.093 222.88 124.68 223.426 131.653C224.44 144.586 225.586 159.226 235.719 167.306C243.519 173.52 255.706 175.306 272.946 172.733C274.506 172.52 275.946 173.586 276.186 175.133C276.413 176.693 275.333 178.146 273.773 178.373C268.466 179.16 263.56 179.56 259.066 179.56Z" fill="#040606"/>
<path d="M121.934 433.506C154.24 450.813 191.147 460.64 230.36 460.64C286.493 460.64 337.907 440.52 377.84 407.12C346.48 367.266 304.707 342.933 258.84 342.933C203.56 342.933 154.24 378.266 121.934 433.506Z" fill="#7DBBC0"/>
</svg>
