<svg width="461" height="461" viewBox="0 0 461 461" fill="none" xmlns="http://www.w3.org/2000/svg">
<path d="M0.399902 230.6C0.399902 103.546 103.387 0.559663 230.44 0.559663C357.493 0.559663 460.48 103.546 460.48 230.6C460.48 357.653 357.493 460.64 230.44 460.64C103.387 460.64 0.399902 357.653 0.399902 230.6Z" fill="#D8CDB2"/>
<path d="M311.96 144.893C311.96 189.893 275.48 226.373 230.48 226.373C185.48 226.373 149 189.893 149 144.893C149 99.893 185.48 63.413 230.48 63.413C275.48 63.413 311.96 99.893 311.96 144.893Z" fill="#040606"/>
<path d="M335.907 125.427C335.907 152.346 314.08 174.187 287.147 174.187C260.227 174.187 238.4 152.346 238.4 125.427C238.4 98.5065 260.227 76.6798 287.147 76.6798C314.08 76.6798 335.907 98.5065 335.907 125.427Z" fill="#040606"/>
<path d="M221.266 169.827C221.266 208.72 189.747 240.24 150.853 240.24C111.96 240.24 80.4399 208.72 80.4399 169.827C80.4399 130.947 111.96 99.4136 150.853 99.4136C189.747 99.4136 221.266 130.947 221.266 169.827Z" fill="#040606"/>
<path d="M183.747 183.76C178.773 171.84 166.987 163.48 153.253 163.56C135.933 163.653 121.293 177.773 120.613 195.08C119.88 213.826 134.853 229.24 153.44 229.24C157.413 229.24 161.213 228.506 164.747 227.2L138.733 390.2L182.387 397.16C215.453 402.44 246.547 379.906 251.827 346.84L275.507 198.4L183.747 183.76Z" fill="white"/>
<path d="M153.44 234.946C151.866 234.946 150.586 233.666 150.586 232.093C150.586 230.52 151.866 229.24 153.44 229.24C158.813 229.24 164.093 227.8 168.693 225.08C170.866 223.8 172.866 222.24 174.64 220.453C175.76 219.346 177.56 219.346 178.666 220.453C179.786 221.573 179.786 223.373 178.666 224.493C176.56 226.613 174.173 228.453 171.6 229.986C166.12 233.226 159.84 234.946 153.44 234.946Z" fill="#040606"/>
<path d="M335.333 176.093C346.093 229.426 321.08 279.466 279.466 287.866C237.84 296.253 195.386 259.826 184.626 206.493C173.88 153.173 198.893 103.133 240.506 94.733C282.12 86.3463 324.573 122.773 335.333 176.093Z" fill="white"/>
<path d="M179.573 178.987C180.32 179.2 181.053 179.44 181.813 179.627C224 190.36 269.426 155.533 283.266 101.84C283.426 101.227 283.56 100.627 283.707 100.013C269.813 92.8001 254.547 90.0535 239.387 93.0935C204.16 100.147 180.56 136.107 179.573 178.987Z" fill="#040606"/>
<path d="M258.92 294.573C258.8 294.573 258.68 294.56 258.56 294.547C234.813 291.52 212.466 275.72 197.253 251.2C196.426 249.867 196.84 248.107 198.173 247.28C199.507 246.453 201.266 246.867 202.093 248.2C216.4 271.253 237.24 286.08 259.28 288.893C260.84 289.093 261.946 290.52 261.746 292.08C261.56 293.52 260.333 294.573 258.92 294.573Z" fill="#040606"/>
<path d="M315.2 161.253C313.84 163.626 318.054 168.626 324.627 172.426C331.2 176.226 337.654 177.373 339.014 175C340.387 172.626 336.174 167.626 329.6 163.826C323.014 160.026 316.574 158.88 315.2 161.253Z" fill="#040606"/>
<path d="M248.106 172.187C248.826 175.507 256.866 176.614 266.08 174.64C275.293 172.667 282.173 168.374 281.466 165.054C280.76 161.72 272.706 160.627 263.506 162.587C254.293 164.56 247.4 168.854 248.106 172.187Z" fill="#040606"/>
<path d="M301.879 209.68C301.106 209.68 300.333 209.36 299.773 208.746C298.706 207.573 298.8 205.773 299.973 204.72C302.16 202.733 303.12 199.813 302.52 196.92L298.013 175.106C297.693 173.56 298.693 172.053 300.226 171.733C301.759 171.426 303.28 172.413 303.6 173.946L308.106 195.76C309.093 200.586 307.44 205.626 303.786 208.946C303.24 209.44 302.559 209.68 301.879 209.68Z" fill="#040606"/>
<path d="M263.973 193.467C263.44 193.467 262.893 193.32 262.413 193C261.093 192.12 260.733 190.36 261.6 189.054C268.333 178.894 276.653 180.107 280.093 182.16C281.453 182.96 281.893 184.72 281.08 186.067C280.28 187.4 278.56 187.853 277.213 187.067C276.626 186.747 271.586 184.294 266.36 192.187C265.813 193.027 264.893 193.467 263.973 193.467Z" fill="#040606"/>
<path d="M330.146 189.427C329.053 189.427 328 188.787 327.533 187.72C327.253 187.12 324.626 182.173 315.746 185.453C314.28 185.987 312.64 185.24 312.093 183.76C311.546 182.293 312.293 180.653 313.773 180.107C325.2 175.88 331.187 181.76 332.773 185.467C333.387 186.907 332.707 188.587 331.253 189.2C330.893 189.347 330.52 189.427 330.146 189.427Z" fill="#040606"/>
<path d="M291.36 226.613C286.266 226.613 282.853 223.84 281.426 221.653C280.573 220.333 280.947 218.573 282.267 217.72C283.587 216.867 285.333 217.227 286.187 218.52C286.573 219.067 290.027 223.48 298.187 218.72C299.56 217.92 301.293 218.387 302.093 219.747C302.88 221.093 302.427 222.84 301.067 223.64C297.373 225.8 294.12 226.613 291.36 226.613Z" fill="#040606"/>
<path d="M176.493 314.506C120.107 314.506 68.0933 322.773 26.3467 336.706C64.7067 410.333 141.667 460.64 230.44 460.64C300.227 460.64 362.72 429.52 404.907 380.453C366.453 341.64 278.667 314.506 176.493 314.506Z" fill="#7DBBC0"/>
<path d="M176.493 314.507C156.986 314.507 138 315.507 119.787 317.374C126.8 359.72 167.093 392.2 215.747 392.2C259 392.2 295.626 366.547 308.16 331.107C269.96 320.587 224.84 314.507 176.493 314.507Z" fill="white"/>
<path d="M167.333 209.359C167.253 209.359 167.16 209.346 167.066 209.346C165.506 209.199 164.346 207.813 164.493 206.253C165.226 198.159 163.64 191.786 159.773 187.279C154.267 180.879 145.786 180.306 145.693 180.293C144.133 180.199 142.933 178.866 143.013 177.293C143.106 175.733 144.373 174.533 146.013 174.613C146.453 174.626 156.907 175.266 164.04 183.506C168.987 189.226 171.053 197.053 170.173 206.759C170.027 208.239 168.786 209.359 167.333 209.359Z" fill="#040606"/>
</svg>
