<svg width="461" height="461" viewBox="0 0 461 461" fill="none" xmlns="http://www.w3.org/2000/svg">
<path d="M0.842773 230.64C0.842773 103.59 103.837 0.599702 230.893 0.599702C357.933 0.599702 460.933 103.59 460.933 230.64C460.933 357.69 357.933 460.68 230.893 460.68C103.837 460.68 0.842773 357.69 0.842773 230.64Z" fill="#ADD0CF"/>
<path d="M348.853 341.646L164.867 294.869C133.093 286.79 99.428 296.405 76.716 320.045L39.6934 358.578C80.9747 420.148 151.187 460.68 230.893 460.68C299.893 460.68 361.76 430.26 403.92 382.138C391.613 362.164 371.947 347.518 348.853 341.646Z" fill="#7DBBC0"/>
<path d="M225.6 298.958C225.6 298.958 143.174 345.381 164.96 379.489C186.76 413.595 249.28 379.489 276.76 354.855C304.24 330.222 304.24 330.222 304.24 330.222L225.6 298.958Z" fill="white"/>
<path d="M275.907 328.335L184.64 357.299L145.92 235.303L237.2 206.34L275.907 328.335Z" fill="white"/>
<path d="M254.627 278.468L231.733 206.339L145.92 233.569L170.427 310.784C200.96 313.234 232.173 302.244 254.627 278.468Z" fill="#040606"/>
<path d="M135.573 267.676C96.812 233.736 92.9014 174.797 126.84 136.033L163.107 94.6116C197.053 55.8476 255.987 51.937 294.747 85.877L296.133 87.0904C340.827 126.212 345.333 194.146 306.2 238.826L289.907 257.437C250.12 302.882 181.027 307.468 135.573 267.676Z" fill="white"/>
<path d="M320.533 108.446L282.187 74.8741C250.36 47.0101 201.973 50.2194 174.12 82.0434C174.12 82.0434 211.987 56.3168 278.333 149.582L271.013 164.239C265.96 174.333 264.76 185.919 267.64 196.833L269.493 203.901L254.627 223.237C248.867 230.727 250.187 241.457 257.587 247.322L274.547 260.746L288.293 259.282L327.56 214.437C354.893 183.226 351.733 135.773 320.533 108.446Z" fill="#040606"/>
<path d="M327.6 253.166C327.6 272.701 311.773 288.537 292.227 288.537C272.693 288.537 256.867 272.701 256.867 253.166C256.867 233.632 272.693 217.796 292.227 217.796C311.773 217.796 327.6 233.632 327.6 253.166Z" fill="white"/>
<path d="M134.947 100.246C128.613 100.246 122.44 102.148 117.11 105.805C110.139 110.586 105.448 117.796 103.901 126.106C102.352 134.414 104.132 142.83 108.915 149.801C113.698 156.77 120.907 161.461 129.213 163.009C137.533 164.55 145.947 162.776 152.907 157.994C159.88 153.213 164.574 146.004 166.12 137.694C167.667 129.384 165.893 120.969 161.107 113.998C156.32 107.029 149.107 102.338 140.8 100.79C138.854 100.428 136.893 100.246 134.947 100.246ZM135.094 169.253C132.787 169.253 130.48 169.04 128.173 168.61C118.365 166.785 109.859 161.249 104.216 153.024C98.5735 144.798 96.4722 134.869 98.2976 125.062C100.126 115.257 105.663 106.748 113.887 101.106C122.114 95.4622 132.04 93.3662 141.854 95.1889C151.654 97.0155 160.16 102.55 165.8 110.776C171.44 119 173.547 128.932 171.72 138.737C169.894 148.544 164.36 157.052 156.134 162.693C149.84 167.009 142.56 169.253 135.094 169.253Z" fill="#7DBBC0"/>
<path d="M201.013 145.956C186.08 145.956 172.746 156.605 169.92 171.809C168.36 180.118 170.146 188.533 174.933 195.505C179.706 202.474 186.92 207.165 195.226 208.713C203.546 210.257 211.946 208.482 218.92 203.698C225.893 198.917 230.586 191.708 232.133 183.398C233.68 175.088 231.906 166.672 227.12 159.702C222.333 152.732 215.12 148.041 206.813 146.492C204.866 146.13 202.92 145.956 201.013 145.956ZM201.106 214.957C198.8 214.957 196.493 214.744 194.186 214.314C184.386 212.489 175.866 206.952 170.226 198.728C164.586 190.502 162.48 180.573 164.306 170.766C168.08 150.522 187.626 137.106 207.853 140.892C217.666 142.718 226.173 148.254 231.813 156.48C237.453 164.704 239.56 174.634 237.733 184.441C235.906 194.246 230.373 202.754 222.146 208.397C215.853 212.712 208.573 214.957 201.106 214.957Z" fill="#7DBBC0"/>
<path d="M273.92 224.12C273.32 224.12 272.706 223.931 272.186 223.539L231.386 192.52C230.133 191.569 229.893 189.781 230.84 188.529C231.8 187.276 233.573 187.033 234.84 187.985L275.64 219.004C276.893 219.955 277.133 221.743 276.186 222.995C275.626 223.732 274.773 224.12 273.92 224.12Z" fill="#7DBBC0"/>
<path d="M175.987 154.839C175.32 154.839 174.667 154.61 174.12 154.139L164.72 145.963C163.533 144.931 163.413 143.131 164.44 141.944C165.48 140.755 167.28 140.632 168.467 141.664L177.867 149.84C179.053 150.872 179.173 152.672 178.147 153.859C177.573 154.507 176.787 154.839 175.987 154.839Z" fill="#7DBBC0"/>
<path d="M212.466 179.502C209.013 184.106 203.84 186.056 200.906 183.858C197.973 181.661 198.4 176.146 201.853 171.542C205.306 166.938 210.48 164.988 213.413 167.185C216.346 169.384 215.92 174.898 212.466 179.502Z" fill="#040606"/>
<path d="M158.56 142.959C155.107 147.563 149.933 149.514 147 147.317C144.067 145.118 144.493 139.603 147.947 134.999C151.4 130.397 156.573 128.446 159.507 130.643C162.44 132.842 162.013 138.355 158.56 142.959Z" fill="#040606"/>
<path d="M149.693 214.741C140.453 214.741 133.493 208.52 130.613 204.275C129.733 202.972 130.067 201.2 131.373 200.317C132.667 199.433 134.44 199.769 135.32 201.069C135.68 201.573 143.787 213.084 156.453 207.543C157.907 206.912 159.587 207.573 160.213 209.013C160.84 210.453 160.187 212.133 158.733 212.764C155.547 214.159 152.507 214.741 149.693 214.741Z" fill="#040606"/>
<path d="M240.746 157.261C239.453 157.261 238.293 156.382 237.973 155.073C234.08 138.733 214.826 132.249 214.64 132.185C213.146 131.695 212.333 130.089 212.813 128.593C213.306 127.098 214.906 126.279 216.4 126.766C217.32 127.065 238.88 134.267 243.52 153.751C243.88 155.282 242.946 156.819 241.413 157.183C241.186 157.237 240.973 157.261 240.746 157.261Z" fill="#040606"/>
<path d="M178.494 113.864C177.4 113.864 176.36 113.236 175.88 112.178C175.6 111.538 168.76 96.7735 151.827 94.4895C150.267 94.2775 149.174 92.8442 149.387 91.2842C149.6 89.7255 151.027 88.6323 152.587 88.8416C172.734 91.5629 180.76 109.111 181.094 109.856C181.72 111.295 181.08 112.979 179.64 113.619C179.267 113.786 178.867 113.864 178.494 113.864Z" fill="#040606"/>
<path d="M268.226 254.435C267.72 254.435 267.2 254.297 266.733 254.007C265.386 253.177 264.986 251.425 265.813 250.088C266.2 249.457 275.52 234.621 289.386 231.767C295.84 230.435 302.16 231.896 308.186 236.104C309.466 237.005 309.786 238.783 308.88 240.072C307.986 241.36 306.2 241.672 304.92 240.772C300.173 237.459 295.48 236.341 290.56 237.343C279.106 239.688 270.733 252.956 270.653 253.091C270.106 253.959 269.173 254.435 268.226 254.435Z" fill="#040606"/>
<path d="M324.12 125.588C323.493 125.588 322.853 125.377 322.32 124.944C321.107 123.949 320.92 122.153 321.92 120.935C329.093 112.168 321.72 98.6866 321.64 98.552C320.88 97.18 321.36 95.4439 322.733 94.6772C324.12 93.9065 325.84 94.3959 326.613 95.7639C327 96.4519 335.987 112.753 326.333 124.544C325.773 125.232 324.947 125.588 324.12 125.588Z" fill="#040606"/>
<path d="M328.866 120.852C328.133 120.852 327.413 120.573 326.853 120.017C325.733 118.903 325.733 117.101 326.853 115.989C332.653 110.187 339.173 111.979 341.813 113.738C343.12 114.609 343.48 116.378 342.6 117.688C341.746 118.989 339.986 119.347 338.68 118.494C338.026 118.086 334.626 116.271 330.88 120.017C330.32 120.573 329.6 120.852 328.866 120.852Z" fill="#040606"/>
</svg>
