<svg width="461" height="461" viewBox="0 0 461 461" fill="none" xmlns="http://www.w3.org/2000/svg">
<path d="M460.666 230.64C460.666 357.69 357.68 460.68 230.626 460.68C103.573 460.68 0.573242 357.69 0.573242 230.64C0.573242 103.59 103.573 0.599702 230.626 0.599702C357.68 0.599702 460.666 103.59 460.666 230.64Z" fill="#E9E0DC"/>
<path d="M357.414 415.744C346.734 375.858 310.6 348.118 269.307 348.118H114.947C90.947 348.118 68.0137 357.593 51.0137 374.309C93.1737 426.942 157.947 460.68 230.627 460.68C278.147 460.68 322.307 446.266 358.974 421.573L357.414 415.744Z" fill="#7DBBC0"/>
<path d="M222.226 410.906L189.613 398.026C170.946 390.653 158.666 372.616 158.666 352.544V250.852H267.946V379.808C267.946 403.401 244.159 419.573 222.226 410.906Z" fill="white"/>
<path d="M184.866 293.188L267.946 376.712V250.852L184.866 293.188Z" fill="#040606"/>
<path d="M328.32 154.234C312.2 170.361 283.64 167.953 264.546 148.856C245.44 129.757 243.04 101.202 259.173 85.0757C275.293 68.9477 303.853 71.3557 322.946 90.4531C342.04 109.55 344.453 138.106 328.32 154.234Z" fill="#040606"/>
<path d="M127.093 200.322L182.666 93.5807L282.226 118.705C301.559 123.585 314.919 141.235 314.359 161.171L311.52 262.646C310.813 287.727 290.28 307.695 265.186 307.695H225.306C197.28 307.695 171.719 291.726 159.426 266.549L127.093 200.322Z" fill="white"/>
<path d="M119.507 216.746L140.36 288.116H159.307C159.307 288.116 154.253 242.01 145.413 228.114C136.56 214.219 119.507 216.746 119.507 216.746Z" fill="#040606"/>
<path d="M242.2 88.956C225.8 84.4894 211.067 78.1707 199.067 70.9067C197.68 73.376 196.587 76.02 195.813 78.8334C189.827 100.839 206.093 124.432 232.147 131.529C258.213 138.628 284.187 126.544 290.187 104.537C291.027 101.443 291.387 98.3187 291.387 95.2107C276.667 95.712 259.72 93.728 242.2 88.956Z" fill="#040606"/>
<path d="M217.08 207.558C216.68 213.238 219.76 218.082 223.96 218.378C228.16 218.676 231.893 214.312 232.293 208.632C232.693 202.952 229.613 198.108 225.413 197.812C221.213 197.514 217.48 201.878 217.08 207.558Z" fill="#040606"/>
<path d="M213.813 169.325C213.119 169.325 212.439 169.083 211.893 168.591C210.733 167.537 210.639 165.736 211.693 164.568C221.133 154.106 236.213 156.58 236.853 156.688C238.413 156.957 239.453 158.432 239.173 159.982C238.906 161.53 237.453 162.579 235.893 162.304C235.773 162.285 223.239 160.285 215.919 168.385C215.359 169.008 214.586 169.325 213.813 169.325Z" fill="#040606"/>
<path d="M290.013 204.208C289.613 209.888 292.694 214.732 296.907 215.028C301.107 215.324 304.84 210.961 305.24 205.281C305.64 199.601 302.56 194.757 298.347 194.461C294.147 194.164 290.413 198.528 290.013 204.208Z" fill="#040606"/>
<path d="M302.053 169.065C301.147 169.065 300.267 168.643 299.72 167.856C299.32 167.317 295.773 162.975 287.72 167.948C286.373 168.776 284.613 168.36 283.8 167.019C282.973 165.681 283.387 163.925 284.72 163.099C295.093 156.7 302.133 161.288 304.4 164.607C305.28 165.907 304.96 167.679 303.653 168.568C303.16 168.904 302.6 169.065 302.053 169.065Z" fill="#040606"/>
<path d="M275.519 247.384C274.733 247.384 273.946 247.056 273.373 246.412C272.346 245.228 272.466 243.429 273.64 242.392L276.44 239.944C282.226 234.88 283.026 226.186 278.253 220.154L266.973 205.88C266 204.645 266.2 202.853 267.44 201.877C268.68 200.901 270.466 201.115 271.44 202.347L282.719 216.62C289.386 225.039 288.266 237.167 280.186 244.231L277.399 246.68C276.853 247.153 276.186 247.384 275.519 247.384Z" fill="#040606"/>
<path d="M250.786 271.102C243.04 271.102 236.573 267.435 236.2 267.212C234.84 266.426 234.373 264.683 235.16 263.322C235.946 261.963 237.68 261.494 239.04 262.278C239.146 262.339 249.813 268.322 258.333 263.528C259.706 262.755 261.44 263.244 262.213 264.614C262.986 265.987 262.493 267.722 261.12 268.494C257.693 270.423 254.12 271.102 250.786 271.102Z" fill="#040606"/>
<path d="M189.653 185.488C185.56 185.488 181.8 187.372 179.346 190.657C176.92 193.915 176.186 198.01 177.333 201.893C183.413 222.377 191.973 234.502 201.44 236.04C208.133 237.124 215.773 237.402 224.133 236.873C238 235.994 249.493 225.431 251.48 211.753L255.266 185.488H189.653ZM216.16 242.829C210.56 242.829 205.333 242.44 200.533 241.664C185.48 239.221 176.64 219.569 171.866 203.515C170.2 197.891 171.267 191.961 174.773 187.249C178.32 182.509 183.746 179.789 189.653 179.789H328.64C332.746 179.789 336.586 181.409 339.453 184.352C342.32 187.293 343.84 191.175 343.733 195.281L343.413 207.852C343.013 223.455 330.92 242.016 315.933 242.562L298.96 242.564C292.64 242.564 286.466 239.985 282.026 235.484C280.906 234.365 280.92 232.561 282.04 231.456C283.16 230.35 284.96 230.359 286.066 231.48C289.453 234.904 294.16 236.866 298.96 236.866H315.826C327.173 236.45 337.386 220.484 337.72 207.706L338.04 195.134C338.106 192.576 337.16 190.16 335.373 188.328C333.586 186.496 331.2 185.488 328.64 185.488H261.026L257.106 212.568C254.746 228.898 241.04 241.512 224.506 242.559C221.64 242.74 218.853 242.829 216.16 242.829Z" fill="#040606"/>
<path d="M278.039 217.066C276.546 217.066 275.292 215.901 275.199 214.389L273.306 182.809C273.213 181.238 274.412 179.888 275.986 179.794C277.546 179.677 278.906 180.894 278.999 182.466L280.892 214.046C280.986 215.617 279.786 216.968 278.212 217.061C278.159 217.065 278.106 217.066 278.039 217.066Z" fill="#040606"/>
<path d="M166.253 155.535C166.253 183.821 151.546 206.75 133.4 206.75C115.266 206.75 100.56 183.821 100.56 155.535C100.56 127.25 115.266 104.321 133.4 104.321C151.546 104.321 166.253 127.25 166.253 155.535Z" fill="#040606"/>
<path d="M193.16 138.443C177.04 154.57 153.56 157.245 140.733 144.417C127.907 131.589 130.573 108.117 146.707 91.9901C162.84 75.8621 186.307 73.1874 199.133 86.0154C211.96 98.8434 209.293 122.317 193.16 138.443Z" fill="#040606"/>
<path d="M139.146 191.213C136.186 191.275 133.2 191.735 130.253 192.671C113.613 197.941 104.413 215.696 109.68 232.328C114.946 248.959 132.706 258.168 149.333 252.897C152.293 251.96 155 250.613 157.44 248.965L139.146 191.213Z" fill="white"/>
<path d="M132.146 121.372C132.146 121.372 127.72 65.1601 175.72 61.3695C223.733 57.5801 290.32 70.5707 300.787 60.1067C302.053 58.844 292.573 112.529 266.04 113.793C239.52 115.056 159.306 97.3721 132.146 121.372Z" fill="#040606"/>
<path d="M152.36 184.533L161.986 225.91C162.64 228.669 161.266 231.501 158.693 232.707C155.36 234.277 151.413 232.502 150.373 228.967L136.56 182.006L152.36 184.533Z" fill="#040606"/>
<path d="M142.067 232.305C140.747 232.305 139.573 231.395 139.28 230.062C139.253 229.937 136.427 217.567 126.174 213.818C124.694 213.278 123.933 211.642 124.48 210.165C125.013 208.685 126.653 207.923 128.133 208.467C141.373 213.309 144.72 228.225 144.853 228.855C145.187 230.394 144.2 231.91 142.667 232.241C142.467 232.283 142.267 232.305 142.067 232.305Z" fill="#040606"/>
</svg>
