<svg width="461" height="461" viewBox="0 0 461 461" fill="none" xmlns="http://www.w3.org/2000/svg">
<path d="M0.319336 230.64C0.319336 103.59 103.306 0.599702 230.359 0.599702C357.413 0.599702 460.4 103.59 460.4 230.64C460.4 357.69 357.413 460.68 230.359 460.68C103.306 460.68 0.319336 357.69 0.319336 230.64Z" fill="#EEE7D3"/>
<path d="M153.253 247.026C153.253 276.298 129.52 300.027 100.253 300.027C70.9733 300.027 47.2402 276.298 47.2402 247.026C47.2402 217.754 70.9733 194.025 100.253 194.025C129.52 194.025 153.253 217.754 153.253 247.026Z" fill="#040606"/>
<path d="M199.933 269.393C199.933 298.665 176.2 322.395 146.92 322.395C117.653 322.395 93.9199 298.665 93.9199 269.393C93.9199 240.123 117.653 216.393 146.92 216.393C176.2 216.393 199.933 240.123 199.933 269.393Z" fill="#040606"/>
<path d="M357.467 241.192C357.467 270.463 333.747 294.193 304.467 294.193C275.2 294.193 251.467 270.463 251.467 241.192C251.467 211.92 275.2 188.191 304.467 188.191C333.747 188.191 357.467 211.92 357.467 241.192Z" fill="#040606"/>
<path d="M394.146 200.839C394.146 230.11 370.413 253.839 341.146 253.839C311.866 253.839 288.146 230.11 288.146 200.839C288.146 171.567 311.866 147.838 341.146 147.838C370.413 147.838 394.146 171.567 394.146 200.839Z" fill="#040606"/>
<path d="M313.119 369.105L188.186 388.467L162.586 223.231L287.519 203.871L313.119 369.105Z" fill="white"/>
<path d="M321.826 373.339L181.186 395.135C176.879 395.8 172.853 392.855 172.186 388.555L166.16 349.691C165.493 345.389 168.44 341.364 172.747 340.699L313.386 318.903C317.693 318.236 321.719 321.183 322.386 325.483L328.4 364.347C329.066 368.647 326.12 372.672 321.826 373.339Z" fill="#040606"/>
<path d="M356.293 355.625L177.533 383.326C147.373 388.001 120.533 400.914 98.9199 419.396C136.187 445.393 181.48 460.68 230.36 460.68C309.853 460.68 379.92 420.365 421.24 359.065C400.68 353.59 378.68 352.156 356.293 355.625Z" fill="#040606"/>
<path d="M208.84 283.494C154.68 283.494 110.786 239.593 110.786 185.434V154.286C110.786 100.129 154.68 56.2262 208.84 56.2262C263 56.2262 306.906 100.129 306.906 154.286V185.434C306.906 239.593 263 283.494 208.84 283.494Z" fill="#040606"/>
<path d="M232.853 227.881C187.653 227.881 151.014 191.242 151.014 146.046V129.308C151.014 84.1129 187.653 47.4742 232.853 47.4742C278.04 47.4742 314.68 84.1129 314.68 129.308V146.046C314.68 191.242 278.04 227.881 232.853 227.881Z" fill="#040606"/>
<path d="M224.24 283.494C178.587 283.494 141.573 246.486 141.573 200.833V174.574C141.573 128.922 178.587 91.9129 224.24 91.9129C269.893 91.9129 306.907 128.922 306.907 174.574V200.833C306.907 246.486 269.893 283.494 224.24 283.494Z" fill="white"/>
<path d="M137.387 168.869V169.011C175.32 159.116 203.32 124.632 203.32 83.6041V83.4627C165.387 93.356 137.387 127.84 137.387 168.869Z" fill="#040606"/>
<path d="M175.799 160.603C175.479 160.603 175.146 160.545 174.826 160.428C173.999 160.125 173.359 159.456 173.093 158.616C172.639 157.189 173.359 155.63 174.719 155.072C195.519 141.78 204.853 116.132 197.439 92.5158L202.839 90.7225C211.119 117.057 200.612 145.579 177.319 160.169C176.866 160.456 176.333 160.603 175.799 160.603Z" fill="#040606"/>
<path d="M293.826 122.452L293.906 122.573C256.293 133.622 214.533 118.48 193.413 83.3089L193.333 83.1876C230.946 72.1369 272.706 87.281 293.826 122.452Z" fill="#040606"/>
<path d="M224.239 286.344C177.093 286.344 138.732 247.985 138.732 200.832C138.732 199.26 139.999 197.984 141.573 197.984C143.146 197.984 144.426 199.26 144.426 200.832C144.426 244.841 180.226 280.646 224.239 280.646C242.559 280.646 260.452 274.286 274.626 262.736C275.852 261.744 277.639 261.928 278.626 263.145C279.626 264.365 279.439 266.158 278.226 267.154C263.039 279.529 243.866 286.344 224.239 286.344Z" fill="#040606"/>
<path d="M300.186 171.498L317.907 166.234C328.72 163.019 334.88 151.65 331.667 140.838C328.44 130.026 317.08 123.869 306.267 127.082L288.56 132.348C277.746 135.561 271.587 146.932 274.8 157.742C278.013 168.554 289.386 174.713 300.186 171.498Z" fill="white"/>
<path d="M304.96 157.975C303.587 157.975 302.374 156.988 302.147 155.596C299.907 142.165 310.8 135.457 311.267 135.177C312.627 134.365 314.373 134.807 315.173 136.155C315.987 137.501 315.56 139.245 314.214 140.057C313.854 140.281 306.187 145.139 307.76 154.657C308.027 156.211 306.973 157.677 305.427 157.936C305.267 157.963 305.107 157.975 304.96 157.975Z" fill="#040606"/>
<path d="M147.733 210.724L129.266 210.384C117.986 210.177 109.013 200.867 109.226 189.589C109.426 178.312 118.733 169.339 130.013 169.547L148.493 169.887C159.773 170.095 168.746 179.404 168.533 190.681C168.32 201.959 159.013 210.932 147.733 210.724Z" fill="white"/>
<path d="M138.773 199.069C137.333 199.069 136.093 197.983 135.933 196.519C134.92 186.901 126.2 184.28 125.826 184.173C124.32 183.739 123.44 182.167 123.866 180.659C124.293 179.151 125.84 178.271 127.36 178.684C127.88 178.829 140.173 182.383 141.6 195.921C141.773 197.485 140.64 198.888 139.066 199.053C138.973 199.064 138.867 199.069 138.773 199.069Z" fill="#040606"/>
<path d="M201.013 151.407C202.226 154.581 196.093 159.896 187.306 163.279C178.519 166.661 170.399 166.831 169.173 163.656C167.959 160.483 174.093 155.167 182.879 151.785C191.666 148.401 199.786 148.233 201.013 151.407Z" fill="#040606"/>
<path d="M264.16 146.858C263.933 150.252 256.12 152.478 246.733 151.832C237.333 151.186 229.906 147.912 230.133 144.518C230.373 141.126 238.173 138.9 247.573 139.545C256.973 140.19 264.4 143.465 264.16 146.858Z" fill="#040606"/>
<path d="M178.586 184.773C178.04 184.773 177.467 184.609 176.973 184.268C175.68 183.375 175.36 181.6 176.253 180.305C183.946 169.176 196.586 172.3 202.2 175.507C203.573 176.287 204.04 178.027 203.266 179.393C202.48 180.757 200.733 181.233 199.373 180.456C198.867 180.164 187.546 173.981 180.933 183.544C180.386 184.344 179.493 184.773 178.586 184.773Z" fill="#040606"/>
<path d="M242.733 168.702C243.72 173.228 246.853 176.386 249.733 175.758C252.613 175.129 254.146 170.95 253.16 166.425C252.173 161.9 249.027 158.74 246.147 159.369C243.267 159.998 241.747 164.177 242.733 168.702Z" fill="#040606"/>
<path d="M226.293 204.24C226.2 204.24 226.093 204.236 226 204.224C222.08 203.822 218.493 201.768 216.173 198.591C213.84 195.412 212.96 191.376 213.76 187.518L218.266 165.708C218.586 164.166 220.093 163.166 221.626 163.492C223.173 163.811 224.159 165.319 223.853 166.859L219.333 188.67C218.866 190.987 219.36 193.314 220.76 195.223C222.16 197.131 224.226 198.315 226.586 198.558C228.146 198.719 229.279 200.116 229.119 201.683C228.973 203.148 227.733 204.24 226.293 204.24Z" fill="#040606"/>
<path d="M239.88 227.173C238.466 227.173 237.239 226.126 237.053 224.688C236.853 223.128 237.959 221.701 239.519 221.498C243.639 220.968 246.546 219.341 248.4 216.529C252.96 209.644 249.813 198.052 249.773 197.934C249.346 196.421 250.24 194.849 251.746 194.425C253.253 194.002 254.826 194.88 255.266 196.392C255.426 196.966 259.16 210.581 253.173 219.656C250.373 223.882 246.026 226.404 240.253 227.15C240.133 227.166 240 227.173 239.88 227.173Z" fill="#040606"/>
</svg>
