<svg width="461" height="461" viewBox="0 0 461 461" fill="none" xmlns="http://www.w3.org/2000/svg">
<path d="M0.132812 230.6C0.132812 103.546 103.12 0.559663 230.173 0.559663C357.226 0.559663 460.226 103.546 460.226 230.6C460.226 357.653 357.226 460.64 230.173 460.64C103.12 460.64 0.132812 357.653 0.132812 230.6Z" fill="#D9DAD7"/>
<path d="M224.68 163.64L363.24 148.52C352.213 97.7869 307.48 59.4001 253.32 58.5335C190.16 57.5068 138.12 107.893 137.107 171.067C136.16 230.32 180.44 279.787 238.08 286.507L224.68 163.64Z" fill="#040606"/>
<path d="M193.933 248.28C193.333 285.546 162.626 315.28 125.359 314.68C88.0794 314.08 58.3464 283.373 58.9464 246.106C59.5464 208.826 90.2529 179.093 127.533 179.693C164.8 180.293 194.533 211 193.933 248.28Z" fill="#040606"/>
<path d="M122.013 174.96C86.8399 174.96 57.9595 203.267 57.3861 238.573C56.8128 274.213 85.3461 303.68 120.986 304.253C121.346 304.267 121.693 304.267 122.053 304.267C157.226 304.267 186.107 275.947 186.68 240.653C186.96 223.387 180.493 207.04 168.48 194.627C156.467 182.227 140.347 175.24 123.08 174.96C122.72 174.96 122.373 174.96 122.013 174.96ZM122.053 309.96C121.666 309.96 121.28 309.96 120.906 309.96C82.1198 309.333 51.0662 277.267 51.6929 238.48C52.3196 199.693 84.4929 168.693 123.16 169.267C141.96 169.573 159.506 177.173 172.573 190.667C185.653 204.173 192.68 221.947 192.373 240.747C191.76 279.147 160.319 309.96 122.053 309.96Z" fill="#040606"/>
<path d="M198.613 161.307C194.707 149.227 185.16 140.64 173.867 140.533C159.613 140.4 147.36 154.453 146.52 171.893C145.613 190.787 157.68 206.533 172.947 206.773C176.213 206.827 179.347 206.133 182.28 204.867L162.453 340.173C160.093 356.32 170.68 371.533 186.64 374.92L194.026 376.493C221.133 382.253 247.053 359.947 251.933 326.653L273.813 177.293L198.613 161.307Z" fill="white"/>
<path d="M340.16 194.093C350.533 250.213 326.946 301.613 287.453 308.92C247.973 316.226 207.546 276.666 197.173 220.56C186.786 164.453 210.373 113.04 249.866 105.733C289.346 98.4264 329.773 137.986 340.16 194.093Z" fill="white"/>
<path d="M252.92 306.72C252.52 306.72 252.093 306.626 251.707 306.44C235.547 298.733 220.76 284.013 210.053 265C209.28 263.626 209.773 261.893 211.133 261.12C212.52 260.346 214.253 260.826 215.013 262.2C225.16 280.213 239.053 294.093 254.16 301.293C255.573 301.973 256.173 303.68 255.507 305.093C255.013 306.12 253.986 306.72 252.92 306.72Z" fill="#040606"/>
<path d="M319.333 163.026C318.44 165.293 322.8 169.146 329.08 171.64C335.346 174.12 341.16 174.293 342.066 172.026C342.96 169.76 338.599 165.906 332.319 163.426C326.053 160.946 320.226 160.773 319.333 163.026Z" fill="#040606"/>
<path d="M252.666 175.813C253.72 178.64 260.933 178.56 268.773 175.64C276.613 172.707 282.12 168.04 281.066 165.2C280 162.373 272.787 162.453 264.947 165.373C257.107 168.307 251.6 172.973 252.666 175.813Z" fill="#040606"/>
<path d="M301.239 279.587C290.199 279.587 283.826 264.974 283.532 264.28C282.906 262.827 283.586 261.16 285.026 260.547C286.492 259.92 288.146 260.6 288.773 262.04C288.826 262.187 295.026 276.307 303.692 273.48C305.199 272.987 306.786 273.814 307.279 275.307C307.773 276.8 306.946 278.414 305.452 278.894C303.986 279.374 302.573 279.587 301.239 279.587Z" fill="#040606"/>
<path d="M187.947 181.8C187.84 181.8 187.747 181.787 187.64 181.787C186.08 181.613 184.947 180.213 185.107 178.64C185.867 171.533 184.56 165.907 181.214 161.907C176.454 156.227 169.147 155.667 169.08 155.653C167.507 155.547 166.32 154.186 166.427 152.626C166.533 151.053 167.907 149.893 169.467 149.973C169.867 150 179.28 150.733 185.586 158.253C189.96 163.48 191.707 170.533 190.773 179.253C190.613 180.72 189.387 181.8 187.947 181.8Z" fill="#040606"/>
<path d="M320.186 205.48C320.186 210.533 323.226 214.64 326.959 214.64C330.706 214.64 333.746 210.533 333.746 205.48C333.746 200.413 330.706 196.306 326.959 196.306C323.226 196.306 320.186 200.413 320.186 205.48Z" fill="#040606"/>
<path d="M276.546 207.28C277.133 212.307 280.613 216.04 284.333 215.613C288.053 215.187 290.6 210.76 290.013 205.733C289.44 200.707 285.96 196.973 282.24 197.4C278.52 197.827 275.973 202.253 276.546 207.28Z" fill="#040606"/>
<path d="M271.719 159.639C280.706 145.839 287.733 128.919 291.799 109.759C291.946 109.066 292.066 108.373 292.213 107.666C278.746 98.7727 263.973 94.9727 249.333 97.8927C221.733 103.386 201.626 131.226 194.652 168.053L271.719 159.639Z" fill="#040606"/>
<path d="M373.026 149.173C371.799 149.173 370.666 148.386 370.292 147.16C370.119 146.573 351.759 88.4129 295.386 75.0395C293.852 74.6795 292.906 73.1462 293.266 71.6128C293.626 70.0795 295.159 69.1328 296.692 69.4928C356.319 83.6395 375.559 144.88 375.746 145.506C376.199 147 375.359 148.6 373.852 149.053C373.572 149.133 373.292 149.173 373.026 149.173Z" fill="#040606"/>
<path d="M275.773 181.226C264.6 181.226 255.52 193.986 255.52 209.666C255.52 225.346 264.6 238.106 275.773 238.106C286.947 238.106 296.026 225.346 296.026 209.666C296.026 193.986 286.947 181.226 275.773 181.226ZM275.773 243.8C261.467 243.8 249.813 228.493 249.813 209.666C249.813 190.84 261.467 175.533 275.773 175.533C290.08 175.533 301.72 190.84 301.72 209.666C301.72 228.493 290.08 243.8 275.773 243.8Z" fill="#7DBBC0"/>
<path d="M335.947 181.226C324.773 181.226 315.68 193.986 315.68 209.666C315.68 225.346 324.773 238.106 335.947 238.106C347.107 238.106 356.2 225.346 356.2 209.666C356.2 193.986 347.107 181.226 335.947 181.226ZM335.947 243.8C321.627 243.8 309.986 228.493 309.986 209.666C309.986 190.84 321.627 175.533 335.947 175.533C350.253 175.533 361.893 190.84 361.893 209.666C361.893 228.493 350.253 243.8 335.947 243.8Z" fill="#7DBBC0"/>
<path d="M309.946 212.52H301.293C299.719 212.52 298.439 211.239 298.439 209.666C298.439 208.093 299.719 206.813 301.293 206.813H309.946C311.52 206.813 312.786 208.093 312.786 209.666C312.786 211.239 311.52 212.52 309.946 212.52Z" fill="#7DBBC0"/>
<path d="M308.919 246.347C308.106 246.347 307.293 246 306.733 245.32C305.719 244.12 305.879 242.32 307.093 241.307C309.026 239.693 309.933 237.24 309.533 234.76L306.293 215.227C306.039 213.68 307.093 212.213 308.64 211.96C310.173 211.707 311.653 212.747 311.919 214.307L315.146 233.827C315.88 238.267 314.2 242.8 310.746 245.68C310.213 246.133 309.559 246.347 308.919 246.347Z" fill="#040606"/>
<path d="M261.266 400.227L150.653 389.627C146.32 389.213 143.146 385.373 143.56 381.04L148.266 331.84C148.68 327.507 152.533 324.333 156.866 324.747L267.466 335.333C271.8 335.76 274.973 339.6 274.56 343.933L269.853 393.133C269.44 397.453 265.586 400.64 261.266 400.227Z" fill="#040606"/>
<path d="M230.173 460.64C289.627 460.64 343.813 438.08 384.64 401.066C368.08 393.613 350.08 388.693 331 386.92L135.28 368.733C107.307 366.146 80.2401 370.546 55.7334 380.466C97.9201 429.533 160.4 460.64 230.173 460.64Z" fill="#040606"/>
</svg>
