<svg width="462" height="461" viewBox="0 0 462 461" fill="none" xmlns="http://www.w3.org/2000/svg">
<path d="M461.04 230.68C461.04 357.733 358.04 460.72 230.987 460.72C103.947 460.72 0.947266 357.733 0.947266 230.68C0.947266 103.626 103.947 0.639624 230.987 0.639624C358.04 0.639624 461.04 103.626 461.04 230.68Z" fill="#C3DFE1"/>
<path d="M54.1736 314.947L127.387 136.2C156.88 64.2131 245.947 38.7997 308.987 84.3731L326.747 97.2265L366.227 135.373C407.133 174.906 410 239.52 372.747 282.506L357.36 300.253C336.32 324.533 305.733 338.413 273.6 338.266L69.1335 337.347C57.6135 337.293 49.8136 325.6 54.1736 314.947Z" fill="#040606"/>
<path d="M309.16 354.546L233.56 369.453L204.72 223.213L280.32 208.306L309.16 354.546Z" fill="white"/>
<path d="M208.066 225.453L235.8 366.107L305.813 352.307L278.08 211.653L208.066 225.453ZM233.559 372.307C232.226 372.307 231.026 371.36 230.759 370L201.919 223.76C201.773 223.027 201.933 222.253 202.359 221.627C202.773 221 203.426 220.56 204.173 220.413L279.773 205.507C280.52 205.36 281.28 205.52 281.906 205.933C282.533 206.36 282.973 207.013 283.119 207.747L311.959 354C312.253 355.547 311.253 357.04 309.706 357.347L234.106 372.253C233.92 372.293 233.733 372.307 233.559 372.307Z" fill="#040606"/>
<path d="M128.613 181.799L137.693 236.253C143.186 269.199 178.613 287.799 208.853 273.613L250.866 253.893C283.213 238.719 294.026 198.026 273.48 168.799L223.159 97.2261L172.373 112.093C142.24 120.906 123.453 150.839 128.613 181.799Z" fill="white"/>
<path d="M197.173 85.1865L218.107 140.92L116.2 178.066L112.026 143.866C108.92 118.466 126.346 95.2265 151.12 91.7198L197.173 85.1865Z" fill="#040606"/>
<path d="M310.947 178.066C310.947 193.773 298.226 206.493 282.533 206.493C266.84 206.493 254.106 193.773 254.106 178.066C254.106 162.373 266.84 149.653 282.533 149.653C298.226 149.653 310.947 162.373 310.947 178.066Z" fill="white"/>
<path d="M196.934 99.6003L242.547 156.414C253.68 170.28 271.947 170.307 283.12 156.48L298.947 136.88L256.28 91.387C242.854 77.0803 220.294 76.6269 206.307 90.3736L196.934 99.6003Z" fill="#040606"/>
<path d="M40.2924 325.84C39.8124 325.84 39.3324 325.72 38.8924 325.467C37.519 324.68 37.039 322.947 37.8257 321.573C73.9457 258.04 124.252 136.333 124.759 135.107C125.359 133.653 127.026 132.96 128.479 133.56C129.933 134.16 130.626 135.827 130.026 137.28C129.519 138.507 79.0792 260.547 42.7726 324.4C42.2526 325.32 41.2924 325.84 40.2924 325.84Z" fill="#090C12"/>
<path d="M256.307 232.04C256.307 232.04 245.254 256.667 214.934 274.347L256.307 232.04Z" fill="white"/>
<path d="M214.946 277.2C213.96 277.2 213 276.694 212.48 275.787C211.68 274.427 212.146 272.68 213.506 271.894C242.693 254.867 253.599 231.107 253.706 230.867C254.346 229.44 256.04 228.787 257.48 229.44C258.906 230.08 259.559 231.76 258.906 233.2C258.439 234.24 247.133 258.88 216.373 276.814C215.919 277.08 215.426 277.2 214.946 277.2Z" fill="#040606"/>
<path d="M127.773 192.253C127.133 192.253 126.479 192.026 125.946 191.586C124.746 190.586 124.572 188.786 125.586 187.573C130.826 181.293 138.052 179.173 138.359 179.08C139.866 178.653 141.453 179.52 141.879 181.04C142.319 182.546 141.439 184.12 139.933 184.56C139.799 184.6 134.012 186.36 129.959 191.226C129.399 191.906 128.586 192.253 127.773 192.253Z" fill="#040606"/>
<path d="M172.306 176.146C171.093 176.146 169.959 175.36 169.586 174.146C169.119 172.64 169.959 171.04 171.453 170.573C173.119 170.053 187.946 165.626 196.319 169.8C197.719 170.506 198.293 172.213 197.586 173.626C196.879 175.026 195.173 175.6 193.773 174.893C188.4 172.213 177.066 174.8 173.159 176.013C172.866 176.106 172.586 176.146 172.306 176.146Z" fill="#040606"/>
<path d="M161.174 198.4L158.107 203.614C155.267 208.427 158.733 214.507 164.333 214.507H169.693L161.174 198.4Z" fill="white"/>
<path d="M169.693 217.359H164.333C160.667 217.359 157.4 215.453 155.587 212.279C153.773 209.106 153.787 205.319 155.64 202.173L158.72 196.959C159.507 195.599 161.254 195.146 162.614 195.946C163.974 196.746 164.427 198.493 163.627 199.839L160.56 205.053C159.747 206.426 159.747 208.066 160.533 209.453C161.32 210.826 162.733 211.653 164.333 211.653H169.693C171.267 211.653 172.547 212.933 172.547 214.506C172.547 216.079 171.267 217.359 169.693 217.359Z" fill="#040606"/>
<path d="M159.613 232.773C166.893 247.72 172.333 249.773 174.92 249.533C180.826 249.08 185.84 238.226 188.253 231.306L159.613 232.773ZM174.507 255.253C166.96 255.253 159.8 247.4 152.64 231.293C152.267 230.44 152.333 229.453 152.827 228.653C153.32 227.853 154.173 227.346 155.107 227.293L192.053 225.4C192.973 225.333 193.84 225.746 194.413 226.453C194.987 227.16 195.187 228.106 194.947 228.986C194.267 231.56 187.84 254.24 175.373 255.213C175.08 255.24 174.8 255.253 174.507 255.253Z" fill="#040606"/>
<path d="M188.413 191.293C188.413 195.093 185.333 198.16 181.546 198.16C177.746 198.16 174.68 195.093 174.68 191.293C174.68 187.507 177.746 184.427 181.546 184.427C185.333 184.427 188.413 187.507 188.413 191.293Z" fill="#040606"/>
<path d="M150.706 199.867C150.706 203.667 147.639 206.733 143.839 206.733C140.053 206.733 136.973 203.667 136.973 199.867C136.973 196.08 140.053 193 143.839 193C147.639 193 150.706 196.08 150.706 199.867Z" fill="#040606"/>
<path d="M371.96 347.893C356.253 320.4 322.96 308.32 293.293 319.333L227.253 343.826L182.693 455.6C198.28 458.933 214.427 460.72 230.987 460.72C295.907 460.72 354.507 433.8 396.333 390.546L371.96 347.893Z" fill="white"/>
<path d="M396.333 390.546L371.96 347.893C356.253 320.4 322.96 308.32 293.293 319.333L227.253 343.826L182.693 455.6L396.333 390.546Z" fill="white"/>
<path d="M182.693 458.453C182.346 458.453 181.987 458.386 181.64 458.253C180.173 457.666 179.466 456.013 180.053 454.546L224.613 342.773C224.907 342.026 225.506 341.44 226.266 341.16L292.293 316.666C323.413 305.106 357.96 317.653 374.426 346.48L398.8 389.133C399.586 390.493 399.107 392.24 397.747 393.013C396.373 393.8 394.64 393.32 393.853 391.96L369.48 349.306C354.4 322.92 322.773 311.44 294.28 322L229.426 346.066L185.333 456.653C184.893 457.773 183.826 458.453 182.693 458.453Z" fill="#040606"/>
<path d="M282.533 206.493L261.359 335.614C261.359 335.614 300.52 338.147 328.306 322.987C356.106 307.827 282.533 206.493 282.533 206.493Z" fill="#040606"/>
</svg>
