<svg width="461" height="461" viewBox="0 0 461 461" fill="none" xmlns="http://www.w3.org/2000/svg">
<path d="M460.48 230.64C460.48 357.69 357.493 460.68 230.44 460.68C103.387 460.68 0.399902 357.69 0.399902 230.64C0.399902 103.59 103.387 0.599702 230.44 0.599702C357.493 0.599702 460.48 103.59 460.48 230.64Z" fill="#C3DFE1"/>
<path d="M301.48 343.956H54.8535V379.188C97.0402 429.017 160.027 460.68 230.44 460.68C283.494 460.68 332.307 442.678 371.227 412.508C370.573 374.538 339.6 343.956 301.48 343.956Z" fill="white"/>
<path d="M293.973 343.955V451.731C322.346 443.575 348.479 430.139 371.226 412.507C370.572 374.538 339.599 343.955 301.479 343.955H293.973Z" fill="#7DBBC0"/>
<path d="M188.8 343.956H54.8535V379.188C88.5202 418.954 135.44 447.132 188.8 456.906V343.956Z" fill="#7DBBC0"/>
<path d="M293.653 391.067H195.6V248.998H293.653V391.067Z" fill="white"/>
<path d="M219.093 286.788L293.653 361.341V248.998L219.093 286.788Z" fill="#040606"/>
<path d="M334.333 169.842L344.56 255.439C348.693 290.082 321.64 320.557 286.747 320.557H192.613L236.48 168.718L334.333 169.842Z" fill="white"/>
<path d="M256.693 110.047L214.933 116.603C170.84 123.525 136.293 158.198 129.533 202.322C126.093 224.873 111.52 244.175 90.7865 253.681C77.8531 259.609 68.8265 271.72 66.8531 285.812C63.4798 309.832 50.5863 331.365 31.293 345.735C43.893 367.492 59.9332 386.985 78.7065 403.479C99.7865 389.571 123.466 380.075 148.32 375.581C188.853 368.252 220.093 335.732 225.786 294.944L230.853 258.697L225.24 221.581C225.24 221.581 236.48 256.447 246.6 254.199C256.733 251.948 253.36 186.713 253.36 186.713L346.706 175.466C339.866 132.574 299.613 103.312 256.693 110.047Z" fill="#040606"/>
<path d="M241.4 106.122C241.4 132.522 220 153.924 193.6 153.924C167.2 153.924 145.8 132.522 145.8 106.122C145.8 79.7224 167.2 58.3211 193.6 58.3211C220 58.3211 241.4 79.7224 241.4 106.122Z" fill="#040606"/>
<path d="M225.467 225.472C223.24 225.517 220.973 225.865 218.733 226.573C206.16 230.561 199.187 243.995 203.173 256.579C207.16 269.161 220.6 276.129 233.187 272.141C235.413 271.433 237.467 270.415 239.32 269.165L225.467 225.472Z" fill="white"/>
<path d="M292.227 233.674C293.214 238.2 296.347 241.358 299.227 240.729C302.107 240.101 303.64 235.922 302.654 231.395C301.667 226.87 298.534 223.712 295.654 224.341C292.774 224.969 291.24 229.148 292.227 233.674Z" fill="#040606"/>
<path d="M279 218.274C278.32 218.274 277.64 218.032 277.093 217.541C275.92 216.486 275.826 214.685 276.88 213.517C286.32 203.052 301.413 205.528 302.053 205.637C303.6 205.906 304.64 207.38 304.373 208.932C304.107 210.48 302.653 211.536 301.08 211.252C300.813 211.212 288.373 209.281 281.107 217.334C280.547 217.957 279.773 218.274 279 218.274Z" fill="#040606"/>
<path d="M329.253 227.709C329.973 232.285 332.92 235.621 335.826 235.161C338.746 234.701 340.52 230.618 339.8 226.043C339.066 221.467 336.12 218.131 333.213 218.591C330.306 219.051 328.533 223.134 329.253 227.709Z" fill="#040606"/>
<path d="M329.493 208.383C328.719 208.383 327.959 208.071 327.399 207.458C326.333 206.298 326.413 204.495 327.573 203.433C333.373 198.117 339.84 200.004 342.44 201.743C343.76 202.615 344.106 204.384 343.24 205.693C342.373 206.995 340.613 207.353 339.306 206.499C338.893 206.231 335.253 204.125 331.413 207.633C330.866 208.135 330.186 208.383 329.493 208.383Z" fill="#040606"/>
<path d="M324.28 264.755C322.747 264.755 321.493 263.539 321.44 261.996C321.387 260.427 322.627 259.112 324.2 259.058C326.827 258.97 330.893 258.016 331.68 256.46C332.053 255.712 331.613 254.31 330.453 252.616C323.053 241.76 320.16 220.546 320.04 219.65C319.827 218.09 320.933 216.656 322.493 216.448C324.04 216.246 325.48 217.336 325.693 218.895C325.72 219.102 328.533 239.668 335.16 249.406C337.626 253.027 338.173 256.27 336.76 259.048C334.133 264.2 325.987 264.706 324.373 264.754C324.347 264.755 324.32 264.755 324.28 264.755Z" fill="#040606"/>
<path d="M300.68 279.553C301.613 287.415 303.84 292.327 307.106 293.571C310.933 295.029 316.466 291.716 320.12 288.835L300.68 279.553ZM309.2 299.632C307.813 299.632 306.426 299.412 305.08 298.899C298.68 296.467 295.24 288.645 294.6 274.989C294.546 273.988 295.026 273.034 295.866 272.48C296.706 271.926 297.76 271.851 298.666 272.281L326.453 285.545C327.293 285.94 327.88 286.712 328.04 287.617C328.2 288.523 327.906 289.449 327.266 290.107C326.186 291.213 317.693 299.632 309.2 299.632Z" fill="#040606"/>
</svg>
