<svg width="461" height="461" viewBox="0 0 461 461" fill="none" xmlns="http://www.w3.org/2000/svg">
<path d="M0.759766 230.6C0.759766 103.546 103.76 0.559663 230.813 0.559663C357.853 0.559663 460.853 103.546 460.853 230.6C460.853 357.653 357.853 460.64 230.813 460.64C103.76 460.64 0.759766 357.653 0.759766 230.6Z" fill="#FDE6D5"/>
<path d="M230.814 460.64C325.24 460.64 406.334 403.72 441.774 322.346C394.707 286.933 291.64 302.986 194.614 364.546C163.72 384.146 136.76 406.266 114.707 429.173C148.8 449.146 188.454 460.64 230.814 460.64Z" fill="#7DBBC0"/>
<path d="M212.56 240.16C219.6 296.32 270.826 336.133 326.986 329.08C383.146 322.04 422.96 270.813 415.92 214.653C408.88 158.493 357.64 118.68 301.48 125.72C245.32 132.773 205.506 184 212.56 240.16Z" fill="#040606"/>
<path d="M148.773 191.106C154.373 235.76 195.106 267.413 239.759 261.813C284.399 256.213 316.066 215.48 310.466 170.826C304.866 126.186 264.133 94.5198 219.48 100.12C174.826 105.72 143.173 146.453 148.773 191.106Z" fill="#040606"/>
<path d="M122.586 174.773C125.946 201.493 150.319 220.426 177.026 217.079C203.746 213.733 222.68 189.36 219.333 162.64C215.986 135.933 191.613 116.986 164.893 120.333C138.186 123.693 119.24 148.066 122.586 174.773Z" fill="#040606"/>
<path d="M54.9064 270.253C59.7464 308.84 94.9463 336.2 133.533 331.36C172.12 326.52 199.48 291.32 194.64 252.734C189.8 214.147 154.6 186.787 116.013 191.627C77.4263 196.467 50.0664 231.667 54.9064 270.253Z" fill="#040606"/>
<path d="M87.3598 334.733C86.9865 334.733 86.5998 334.653 86.2265 334.493C64.3198 325.027 48.7066 303.147 45.4666 277.387C43.1599 258.96 47.3867 240.813 57.3867 226.293C67.4667 211.667 82.16 202.467 98.7867 200.373C100.347 200.187 101.773 201.293 101.973 202.853C102.173 204.413 101.066 205.84 99.4932 206.027C84.5065 207.907 71.2265 216.253 62.0799 229.52C52.8799 242.893 48.9867 259.64 51.12 276.68C54.1067 300.44 68.4265 320.587 88.4932 329.267C89.9332 329.893 90.6 331.56 89.9734 333.013C89.5067 334.08 88.4665 334.733 87.3598 334.733Z" fill="#040606"/>
<path d="M58.867 162.827C65.2003 213.307 111.254 249.093 161.734 242.76C212.214 236.44 248 190.373 241.667 139.893C235.347 89.4133 189.28 53.6267 138.8 59.96C88.3203 66.2933 52.5336 112.347 58.867 162.827Z" fill="#040606"/>
<path d="M164.973 138.827C171.307 189.307 217.36 225.093 267.84 218.76C318.32 212.427 354.12 166.373 347.786 115.893C341.453 65.4133 295.4 29.6267 244.92 35.96C194.44 42.2933 158.64 88.3467 164.973 138.827Z" fill="#040606"/>
<path d="M264.027 33.0263C260.333 33.0263 256.6 33.253 252.853 33.733C229.187 36.693 208.107 48.693 193.467 67.533C178.84 86.3596 172.413 109.76 175.387 133.413C178.347 157.08 190.347 178.16 209.174 192.8C228 207.426 251.387 213.84 275.067 210.88C323.907 204.76 358.667 160.04 352.533 111.2C346.88 66.1063 308.333 33.0263 264.027 33.0263ZM263.774 217.293C242.787 217.293 222.52 210.373 205.68 197.293C185.654 181.733 172.88 159.293 169.733 134.12C166.573 108.96 173.4 84.0663 188.974 64.0263C204.534 43.9996 226.974 31.2263 252.147 28.0796C304.094 21.573 351.667 58.5196 358.187 110.493C364.707 162.44 327.734 210.026 275.774 216.533C271.76 217.04 267.747 217.293 263.774 217.293Z" fill="#040606"/>
<path d="M127.08 282.826C133.413 333.306 179.467 369.106 229.947 362.773C280.427 356.44 316.213 310.386 309.893 259.906C303.56 209.426 257.507 173.626 207.013 179.96C156.533 186.293 120.747 232.346 127.08 282.826Z" fill="#040606"/>
<path d="M280.574 211.786C284.174 200.48 294.934 191.52 308.574 189.88C325.76 187.813 341.867 198.653 344.494 214.08C347.334 230.786 334.2 246.48 315.774 248.8C311.827 249.293 307.974 249.093 304.32 248.373L348.454 391.28L305.934 402.96C273.707 411.8 240.32 395.466 231.374 366.466L191.174 236.333L280.574 211.786Z" fill="white"/>
<path d="M312.813 261.013C307.933 261.013 303.107 260.013 298.627 258.066C295.88 256.879 293.293 255.346 290.92 253.506C289.68 252.533 289.453 250.746 290.427 249.506C291.387 248.266 293.173 248.039 294.413 248.999C296.413 250.546 298.587 251.839 300.893 252.839C305.8 254.973 311.213 255.746 316.56 255.079C318.147 254.879 319.547 255.986 319.733 257.546C319.933 259.119 318.827 260.533 317.267 260.733C315.787 260.919 314.293 261.013 312.813 261.013Z" fill="#040606"/>
<path d="M129.467 224.987C125.427 279.24 156.467 325.773 198.814 328.92C241.147 332.067 278.734 290.64 282.774 236.387C286.814 182.133 255.76 135.6 213.427 132.453C171.093 129.293 133.507 170.733 129.467 224.987Z" fill="white"/>
<path d="M284.373 208.453C283.667 208.773 282.96 209.093 282.227 209.387C241.707 225.28 192.307 196.373 171.88 144.813C171.64 144.227 171.44 143.653 171.227 143.067C184.107 134.187 198.907 129.547 214.333 130.68C250.16 133.293 278.053 166.04 284.373 208.453Z" fill="#040606"/>
<path d="M219.667 333.04C218.4 333.04 217.24 332.187 216.907 330.907C216.52 329.387 217.44 327.827 218.96 327.44C240.48 321.907 259.307 304.587 270.64 279.933C271.293 278.507 272.987 277.88 274.413 278.547C275.84 279.2 276.467 280.893 275.813 282.32C263.773 308.533 243.56 327 220.373 332.96C220.133 333.013 219.907 333.04 219.667 333.04Z" fill="#040606"/>
<path d="M147.587 207.747C149.24 209.933 145.68 215.413 139.626 220C133.573 224.587 127.32 226.533 125.667 224.347C124.013 222.16 127.573 216.68 133.626 212.093C139.68 207.507 145.933 205.56 147.587 207.747Z" fill="#040606"/>
<path d="M215.52 210.24C215.227 213.627 207.387 215.72 198.001 214.907C188.614 214.107 181.241 210.707 181.534 207.32C181.827 203.92 189.667 201.84 199.054 202.64C208.441 203.453 215.814 206.853 215.52 210.24Z" fill="#040606"/>
<path d="M166.48 254.16C165.907 254.16 165.347 253.987 164.853 253.64C160.813 250.814 158.547 246.014 158.933 241.107L160.68 218.907C160.813 217.334 162.16 216.187 163.747 216.28C165.32 216.413 166.493 217.787 166.373 219.347L164.613 241.547C164.373 244.493 165.693 247.28 168.12 248.974C169.4 249.88 169.72 251.653 168.813 252.947C168.253 253.733 167.373 254.16 166.48 254.16Z" fill="#040606"/>
<path d="M181.68 280.173C186.76 284.253 193.107 287.866 198.173 285.986C202.92 284.226 205.653 278.026 206.96 273.373C196.813 275.6 186.293 278.333 181.68 280.173ZM195.2 292.213C189.413 292.213 182.826 288.933 175.52 282.4C174.52 281.52 174.12 280.226 174.453 278.973C174.893 277.346 175.8 273.973 210.066 266.88C210.96 266.693 211.906 266.946 212.586 267.586C213.266 268.213 213.6 269.12 213.466 270.04C213.386 270.746 211.066 287.28 200.146 291.333C198.573 291.92 196.92 292.213 195.2 292.213Z" fill="#040606"/>
<path d="M299.933 237.093C298.626 237.093 297.453 236.186 297.16 234.853C295.066 225.319 296.147 217.306 300.347 211.013C306.4 201.959 316.693 200.013 317.133 199.946C318.693 199.666 320.16 200.693 320.44 202.239C320.72 203.786 319.693 205.266 318.147 205.546C318.067 205.559 309.719 207.186 305.053 214.226C301.773 219.173 300.986 225.706 302.719 233.639C303.066 235.173 302.093 236.693 300.547 237.026C300.347 237.079 300.146 237.093 299.933 237.093Z" fill="#040606"/>
<path d="M153.867 235.746C154.267 241.426 151.174 246.28 146.974 246.573C142.774 246.866 139.04 242.506 138.64 236.826C138.24 231.146 141.32 226.293 145.534 226C149.734 225.706 153.454 230.066 153.867 235.746Z" fill="#040606"/>
<path d="M201.84 232.493C202.24 238.173 199.16 243.027 194.946 243.32C190.746 243.613 187.013 239.253 186.613 233.573C186.213 227.893 189.293 223.053 193.507 222.747C197.707 222.453 201.44 226.813 201.84 232.493Z" fill="#040606"/>
</svg>
