<svg width="461" height="461" viewBox="0 0 461 461" fill="none" xmlns="http://www.w3.org/2000/svg">
<path d="M460.933 230.68C460.933 357.733 357.933 460.72 230.893 460.72C103.837 460.72 0.842773 357.733 0.842773 230.68C0.842773 103.626 103.837 0.639645 230.893 0.639645C357.933 0.639645 460.933 103.626 460.933 230.68Z" fill="#EEE7D3"/>
<path d="M230.893 460.72C317.813 460.72 393.453 412.506 432.573 341.36C408.333 319.186 388.253 301.4 375.16 289.946C364.52 280.64 349.013 277.706 334.133 281.466C287.413 293.28 187.08 320.146 157.787 340.16C141.467 351.293 131.04 391.666 124.432 434.6C156.267 451.253 192.467 460.72 230.893 460.72Z" fill="#7DBBC0"/>
<path d="M262.907 289.293L281.44 286.986L298.8 317.079L272.173 365.706L233.213 341.213L203.867 374.973L207.333 317.079L262.907 289.293Z" fill="#7DBBC0"/>
<path d="M203.867 377.826C203.493 377.826 203.133 377.76 202.787 377.613C201.653 377.146 200.946 376.026 201.013 374.799L204.493 316.92C204.587 315.346 205.96 314.119 207.506 314.239C209.08 314.333 210.266 315.68 210.173 317.253L207.2 366.786L231.067 339.346C231.987 338.293 233.547 338.053 234.733 338.799L271.12 361.693L295.533 317.12L279.906 290.039L263.267 292.12C261.68 292.32 260.28 291.213 260.08 289.653C259.893 288.093 261 286.666 262.56 286.466L281.08 284.16C282.226 284 283.333 284.56 283.906 285.56L301.267 315.666C301.76 316.519 301.773 317.586 301.293 318.453L274.667 367.08C274.293 367.773 273.653 368.266 272.893 368.466C272.133 368.666 271.32 368.546 270.653 368.12L233.76 344.92L206.013 376.839C205.453 377.479 204.667 377.826 203.867 377.826Z" fill="#040606"/>
<path d="M273.467 300.96L233.213 341.213L185.253 293.253L225.507 252.999L273.467 300.96Z" fill="white"/>
<path d="M189.28 293.253L233.213 337.186L269.44 300.96L225.507 257.026L189.28 293.253ZM233.213 344.066C232.493 344.066 231.76 343.786 231.2 343.226L183.24 295.266C182.12 294.146 182.12 292.346 183.24 291.24L223.493 250.986C224.6 249.866 226.4 249.866 227.52 250.986L275.48 298.946C276.6 300.053 276.6 301.866 275.48 302.973L235.227 343.226C234.68 343.786 233.947 344.066 233.213 344.066Z" fill="#040606"/>
<path d="M330 170.093C330.933 164.747 329.747 159.346 326.627 154.906C324.173 151.4 320.747 148.866 316.787 147.466C317.467 146.746 318.147 146.027 318.72 145.213C321.84 140.76 323.04 135.373 322.093 130.027C320.373 120.293 311.973 113.227 302.093 113.227C302.053 113.227 302 113.24 301.96 113.24C304.4 107.546 304.293 100.84 300.96 95.0799C297.347 88.7999 290.6 84.9065 283.347 84.9065C280.947 84.9065 278.56 85.3732 276.307 86.2132C276.36 85.2266 276.427 84.2532 276.333 83.2532C275.867 77.8532 273.32 72.9465 269.16 69.4532C265.507 66.3865 260.867 64.7065 256.107 64.7065C251.227 64.7065 246.627 66.5065 242.973 69.6265C241.2 63.6532 236.787 58.5465 230.507 56.2665C228.267 55.4532 225.933 55.0398 223.56 55.0398C216.2 55.0398 209.493 59.0665 205.92 65.3199C202.213 60.3599 196.333 57.0932 189.68 57.0932C179.64 57.0932 171.333 64.4132 169.707 73.9998C166.453 71.8532 162.6 70.5998 158.547 70.5998C156.173 70.5998 153.84 71.0132 151.587 71.8265C146.493 73.6798 142.413 77.4132 140.12 82.3332C138.32 86.1865 137.84 90.4132 138.587 94.5199C137.067 94.1599 135.493 93.9466 133.893 93.9466C129.133 93.9466 124.496 95.6398 120.844 98.6932C116.683 102.187 114.132 107.093 113.66 112.493C113.288 116.733 114.271 120.866 116.373 124.466C110.056 125.213 104.357 128.893 101.137 134.466C98.4253 139.173 97.7012 144.653 99.1079 149.893C100.212 154.013 102.56 157.573 105.785 160.24C100.197 163.04 96.008 168.307 94.8587 174.827C93.916 180.173 95.1106 185.56 98.2239 190.013C100.677 193.507 104.108 196.053 108.06 197.453C103.801 201.973 101.599 208.32 102.757 214.893C104.472 224.627 112.88 231.693 122.749 231.693C122.796 231.693 122.843 231.68 122.889 231.68C120.447 237.373 120.556 244.08 123.883 249.84C127.507 256.106 134.253 260 141.493 260C143.907 260 146.293 259.533 148.547 258.706C148.48 259.68 148.427 260.666 148.507 261.666C148.987 267.066 151.533 271.973 155.693 275.453C159.347 278.52 163.987 280.213 168.747 280.213C173.627 280.213 178.227 278.4 181.88 275.293C183.64 281.266 188.053 286.36 194.347 288.653C196.587 289.467 198.92 289.88 201.293 289.88C208.653 289.88 215.36 285.853 218.933 279.6C222.64 284.56 228.507 287.826 235.173 287.826C245.213 287.826 253.507 280.507 255.147 270.92C258.4 273.067 262.253 274.32 266.307 274.32C268.68 274.32 271.013 273.906 273.267 273.093C278.36 271.24 282.427 267.507 284.733 262.587C286.52 258.72 287.013 254.506 286.267 250.4C287.787 250.76 289.36 250.973 290.96 250.973C295.72 250.973 300.36 249.28 304.013 246.213C311.693 239.773 313.347 228.84 308.467 220.453C314.787 219.707 320.493 216.026 323.707 210.44C326.427 205.746 327.147 200.267 325.747 195.027C324.64 190.907 322.293 187.347 319.067 184.68C324.653 181.88 328.84 176.613 330 170.093Z" fill="#040606"/>
<path d="M259.613 209.16C255.893 209.16 252.44 210.266 249.533 212.133C243.6 192.32 235.8 169.906 235.8 169.906H158.854C158.854 169.906 134.76 242.186 147.973 267.053C161.187 291.933 183.72 308.253 183.72 308.253L236.573 288.826C236.573 288.826 255.414 281.2 256.187 246.093C257.307 246.306 258.44 246.426 259.613 246.426C269.893 246.426 278.24 238.08 278.24 227.8C278.24 217.506 269.893 209.16 259.613 209.16Z" fill="white"/>
<path d="M160.933 172.747C157.267 184.347 139.16 244.413 150.48 265.72C161.506 286.467 179.453 301.32 184.213 305.04L235.6 286.147C236.187 285.893 252.626 278.586 253.346 246.04C253.36 245.2 253.747 244.413 254.4 243.893C255.04 243.36 255.893 243.133 256.706 243.293C257.733 243.493 258.68 243.573 259.613 243.573C268.306 243.573 275.387 236.493 275.387 227.8C275.387 219.093 268.306 212.013 259.613 212.013C256.586 212.013 253.64 212.88 251.08 214.533C250.32 215.013 249.386 215.12 248.546 214.813C247.706 214.493 247.067 213.813 246.8 212.947C241.947 196.747 235.773 178.587 233.773 172.747H160.933ZM183.72 311.106C183.133 311.106 182.547 310.92 182.053 310.56C181.107 309.88 158.827 293.56 145.453 268.4C131.827 242.733 155.146 172 156.146 169C156.533 167.84 157.627 167.053 158.853 167.053H235.8C237.013 167.053 238.093 167.813 238.493 168.96C238.56 169.173 245.533 189.227 251.267 208.013C253.893 206.893 256.72 206.32 259.613 206.32C271.453 206.32 281.093 215.946 281.093 227.8C281.093 239.64 271.453 249.28 259.613 249.28C259.386 249.28 259.16 249.266 258.92 249.266C257.107 283.2 238.466 291.133 237.64 291.466L184.706 310.92C184.386 311.04 184.053 311.106 183.72 311.106Z" fill="#040606"/>
<path d="M203.093 278.146H181.866C180.293 278.146 179.026 276.866 179.026 275.293C179.026 273.72 180.293 272.453 181.866 272.453H202.76C203.813 272.16 208.68 270.453 210.733 263.626C211.186 262.12 212.773 261.266 214.28 261.72C215.786 262.16 216.64 263.76 216.186 265.266C212.906 276.213 204 278.026 203.626 278.093C203.453 278.133 203.28 278.146 203.093 278.146Z" fill="#040606"/>
<path d="M154.28 225.8C155.4 228.627 157.947 230.28 159.987 229.48C162.027 228.68 162.773 225.747 161.667 222.907C160.56 220.08 158.013 218.427 155.973 219.227C153.933 220.013 153.173 222.96 154.28 225.8Z" fill="#040606"/>
<path d="M192.68 225.8C193.787 228.627 196.347 230.28 198.387 229.48C200.427 228.68 201.173 225.747 200.067 222.907C198.96 220.08 196.413 218.427 194.373 219.227C192.333 220.013 191.573 222.96 192.68 225.8Z" fill="#040606"/>
<path d="M210.626 213.587H188.96C187.386 213.587 186.106 212.32 186.106 210.747C186.106 209.174 187.386 207.894 188.96 207.894H210.626C212.213 207.894 213.48 209.174 213.48 210.747C213.48 212.32 212.213 213.587 210.626 213.587Z" fill="#040606"/>
<path d="M170.12 213.587H148.453C146.88 213.587 145.6 212.32 145.6 210.747C145.6 209.174 146.88 207.894 148.453 207.894H170.12C171.693 207.894 172.973 209.174 172.973 210.747C172.973 212.32 171.693 213.587 170.12 213.587Z" fill="#040606"/>
<path d="M177.653 248.453H166.347C165.493 248.453 164.68 248.066 164.133 247.386C163.6 246.72 163.387 245.84 163.56 245L172.04 205.44C172.373 203.893 173.88 202.92 175.427 203.24C176.973 203.573 177.947 205.093 177.613 206.626L169.88 242.746H177.653C179.227 242.746 180.507 244.026 180.507 245.6C180.507 247.173 179.227 248.453 177.653 248.453Z" fill="#040606"/>
<path d="M256.133 237.906C255.173 237.906 254.24 237.426 253.706 236.546C248.773 228.546 253.48 220.426 256.653 217.253C257.76 216.133 259.56 216.133 260.68 217.253C261.786 218.36 261.786 220.16 260.68 221.28C260.386 221.573 254.786 227.44 258.56 233.56C259.386 234.906 258.96 236.653 257.626 237.48C257.16 237.773 256.64 237.906 256.133 237.906Z" fill="#040606"/>
</svg>
