<svg width="461" height="461" viewBox="0 0 461 461" fill="none" xmlns="http://www.w3.org/2000/svg">
<path d="M460.666 230.6C460.666 357.653 357.68 460.64 230.626 460.64C103.573 460.64 0.573242 357.653 0.573242 230.6C0.573242 103.546 103.573 0.559663 230.626 0.559663C357.68 0.559663 460.666 103.546 460.666 230.6Z" fill="#F2F2F0"/>
<path d="M0.573242 230.6C0.573242 103.546 103.573 0.559663 230.626 0.559663C357.68 0.559663 460.666 103.546 460.666 230.6C460.666 357.653 357.68 460.64 230.626 460.64C103.573 460.64 0.573242 357.653 0.573242 230.6Z" fill="#F0F0EE"/>
<path d="M10.5732 297.8C39.3332 392.066 126.96 460.64 230.626 460.64C286.48 460.64 337.667 440.733 377.52 407.626C367.053 331.746 266.04 272.2 142.88 272.2C93.8397 272.2 48.2932 281.64 10.5732 297.8Z" fill="#7DBBC0"/>
<path d="M86.9066 316.733C86.5333 316.733 86.1599 316.653 85.7866 316.493C84.3333 315.88 83.6664 314.2 84.2931 312.76C112.2 247.773 165.507 121.267 167.467 107.573C167.693 106.013 169.133 104.933 170.68 105.16C172.24 105.373 173.333 106.827 173.107 108.387C170.56 126.227 92.8399 307.307 89.5332 315C89.0665 316.08 88.0133 316.733 86.9066 316.733Z" fill="#040606"/>
<path d="M375.947 215.306L373.32 359.359L327.267 358.173L325.947 318.026L315.427 354.626L132.547 335.746L145.694 284.973L118.067 329.839L97.0137 323.933L173.334 124.399L375.947 215.306Z" fill="#040606"/>
<path d="M264.613 294.573H272.48C330.613 294.573 377.747 247.44 377.747 189.307V174.08C377.747 115.947 330.613 68.8132 272.48 68.8132H264.613C206.48 68.8132 159.347 115.947 159.347 174.08V189.307C159.347 247.44 206.48 294.573 264.613 294.573Z" fill="#040606"/>
<path d="M218.414 235.333H242.334C280.92 235.333 312.214 204.04 312.214 165.453V124.8C312.214 86.1997 280.92 54.9197 242.334 54.9197H218.414C179.827 54.9197 148.547 86.1997 148.547 124.8V165.453C148.547 204.04 179.827 235.333 218.414 235.333Z" fill="#040606"/>
<path d="M170.653 193.88L147.68 187.053C133.653 182.88 125.666 168.133 129.84 154.107C134 140.08 148.76 132.093 162.773 136.267L185.76 143.093C199.786 147.267 207.773 162.013 203.6 176.04C199.44 190.067 184.68 198.053 170.653 193.88Z" fill="white"/>
<path d="M155.24 138.013C145.053 138.013 135.613 144.667 132.56 154.92C128.853 167.413 136 180.613 148.493 184.32L171.466 191.16C183.973 194.866 197.16 187.72 200.88 175.226C202.666 169.173 202.013 162.786 199 157.226C196 151.667 191 147.627 184.946 145.827L161.973 138.987C159.733 138.32 157.467 138.013 155.24 138.013ZM178.187 197.84C175.44 197.84 172.627 197.44 169.84 196.613L146.867 189.787C131.36 185.173 122.493 168.8 127.107 153.293C131.72 137.787 148.08 128.906 163.587 133.533L186.573 140.36C194.08 142.6 200.28 147.627 204.013 154.507C207.746 161.4 208.573 169.333 206.333 176.853C202.546 189.573 190.84 197.84 178.187 197.84Z" fill="#040606"/>
<path d="M298.493 227.88L323.813 227.413C339.28 227.133 351.573 214.373 351.293 198.906C351.013 183.453 338.24 171.146 322.787 171.44L297.453 171.906C282 172.186 269.693 184.946 269.987 200.413C270.267 215.866 283.026 228.173 298.493 227.88Z" fill="white"/>
<path d="M323.32 174.28C323.16 174.28 323 174.28 322.84 174.28L297.506 174.747C290.8 174.867 284.533 177.6 279.866 182.44C275.213 187.28 272.706 193.64 272.84 200.36C273.093 214.213 284.693 225.307 298.44 225.04L323.76 224.573C330.48 224.453 336.746 221.72 341.4 216.88C346.066 212.04 348.573 205.68 348.44 198.96C348.32 192.253 345.586 185.987 340.746 181.32C336.026 176.773 329.853 174.28 323.32 174.28ZM297.973 230.733C281.213 230.733 267.44 217.28 267.133 200.467C266.986 192.227 270.053 184.413 275.76 178.493C281.48 172.56 289.173 169.2 297.4 169.053L322.733 168.587C330.92 168.467 338.773 171.493 344.706 177.213C350.64 182.933 353.986 190.627 354.146 198.853C354.293 207.093 351.226 214.893 345.506 220.827C339.786 226.76 332.106 230.12 323.866 230.267L298.546 230.733C298.346 230.733 298.16 230.733 297.973 230.733Z" fill="#040606"/>
<path d="M186.36 404.493C160.733 398.04 145.2 372.04 151.653 346.413L183.373 220.546C189.84 194.933 215.84 179.386 241.466 185.853C267.08 192.306 282.613 218.306 276.16 243.933L244.44 369.8C237.973 395.413 211.973 410.96 186.36 404.493Z" fill="white"/>
<path d="M220.466 316.387H220.453C194.84 309.934 179.306 283.92 185.759 258.307C192.213 232.68 218.226 217.147 243.84 223.6C269.466 230.067 285 256.067 278.546 281.694C272.08 307.307 246.08 322.84 220.466 316.387Z" fill="#040606"/>
<path d="M238.987 290.946C284.64 290.946 321.64 253.933 321.64 208.28V182.026C321.64 136.373 284.64 99.3596 238.987 99.3596C193.334 99.3596 156.32 136.373 156.32 182.026V208.28C156.32 253.933 193.334 290.946 238.987 290.946Z" fill="white"/>
<path d="M238.987 293.786C219.36 293.786 200.187 286.973 185 274.599C183.787 273.613 183.6 271.813 184.587 270.586C185.587 269.373 187.387 269.186 188.6 270.186C202.773 281.733 220.667 288.093 238.987 288.093C279.587 288.093 313.68 257.719 318.28 217.426C318.453 215.866 319.907 214.746 321.44 214.919C323 215.106 324.12 216.519 323.947 218.079C319.013 261.239 282.493 293.786 238.987 293.786Z" fill="#040606"/>
<path d="M154.16 173.32C154 173.32 153.84 173.307 153.693 173.28C152.133 173.027 151.08 171.56 151.346 170C152.946 160.36 144.986 155.467 144.906 155.414C143.56 154.6 143.12 152.854 143.933 151.507C144.746 150.16 146.493 149.72 147.84 150.52C148.306 150.8 159.2 157.52 156.96 170.947C156.733 172.334 155.52 173.32 154.16 173.32Z" fill="#040606"/>
<path d="M324.453 206.52C324.359 206.52 324.253 206.506 324.146 206.506C322.586 206.333 321.453 204.933 321.613 203.373C323.053 189.826 335.346 186.279 335.866 186.133C337.373 185.733 338.946 186.6 339.373 188.12C339.786 189.626 338.906 191.2 337.399 191.626C337.013 191.733 328.293 194.36 327.279 203.96C327.133 205.426 325.893 206.52 324.453 206.52Z" fill="#040606"/>
<path d="M262.214 158.853C261 162.026 267.134 167.346 275.92 170.733C284.707 174.106 292.827 174.28 294.04 171.106C295.267 167.933 289.134 162.613 280.347 159.226C271.547 155.853 263.44 155.68 262.214 158.853Z" fill="#040606"/>
<path d="M199.066 154.307C199.293 157.693 207.106 159.92 216.493 159.28C225.893 158.64 233.319 155.36 233.093 151.96C232.853 148.573 225.053 146.347 215.653 146.987C206.253 147.64 198.826 150.907 199.066 154.307Z" fill="#040606"/>
<path d="M236.933 211.693C235.493 211.693 234.253 210.6 234.093 209.133C233.933 207.56 235.08 206.16 236.64 206C239 205.76 241.053 204.573 242.453 202.667C243.853 200.76 244.36 198.44 243.88 196.12L239.373 174.307C239.053 172.76 240.053 171.253 241.587 170.933C243.147 170.613 244.64 171.613 244.96 173.16L249.466 194.96C250.266 198.827 249.387 202.853 247.053 206.04C244.733 209.213 241.146 211.267 237.226 211.667C237.12 211.68 237.026 211.693 236.933 211.693Z" fill="#040606"/>
<path d="M234.04 230.946C231.386 230.946 228.866 230.32 226.506 229.066C216.893 223.973 213.64 210.24 213.506 209.653C213.16 208.12 214.12 206.6 215.653 206.24C217.173 205.893 218.706 206.853 219.066 208.373C219.093 208.493 221.88 220.186 229.186 224.04C232.173 225.613 235.506 225.64 239.359 224.133C240.826 223.573 242.48 224.28 243.053 225.76C243.626 227.213 242.906 228.866 241.44 229.44C238.88 230.44 236.4 230.946 234.04 230.946Z" fill="#040606"/>
<path d="M198.213 82.6261C170.933 98.3728 154.774 121.453 162.12 134.173C169.454 146.893 197.533 144.439 224.813 128.693C252.093 112.946 268.254 89.8661 260.907 77.1461C253.56 64.4261 225.493 66.8795 198.213 82.6261Z" fill="#040606"/>
<path d="M195.519 151.653C194.226 151.653 193.039 150.76 192.746 149.427C192.412 147.893 193.373 146.373 194.906 146.027C236.719 136.733 251.652 109.68 256.812 88.6266C257.186 87.0933 258.746 86.1599 260.253 86.5333C261.786 86.9066 262.719 88.4533 262.346 89.9867C254.506 121.96 230.999 143.84 196.146 151.587C195.932 151.64 195.733 151.653 195.519 151.653Z" fill="#040606"/>
<path d="M281.48 187.026C281.88 192.706 278.787 197.546 274.587 197.84C270.387 198.133 266.667 193.773 266.254 188.093C265.854 182.413 268.947 177.573 273.147 177.28C277.347 176.973 281.067 181.346 281.48 187.026Z" fill="#040606"/>
<path d="M222.107 179.44C222.507 185.12 219.427 189.973 215.227 190.266C211.013 190.56 207.293 186.2 206.893 180.52C206.493 174.84 209.574 169.986 213.774 169.693C217.974 169.4 221.707 173.76 222.107 179.44Z" fill="#040606"/>
</svg>
