<svg width="461" height="461" viewBox="0 0 461 461" fill="none" xmlns="http://www.w3.org/2000/svg">
<path d="M460.226 230.68C460.226 357.733 357.226 460.72 230.173 460.72C103.12 460.72 0.132812 357.733 0.132812 230.68C0.132812 103.626 103.12 0.639624 230.173 0.639624C357.226 0.639624 460.226 103.626 460.226 230.68Z" fill="#FDE6D5"/>
<path d="M314.987 111.573C280.04 111.573 248.747 128.826 227.6 156.026C215.12 149.586 201.214 145.973 186.534 145.973C168.294 145.973 151.227 151.546 136.627 161.213C126.147 154.466 114 150.533 101 150.533C61.7603 150.533 29.9336 185.799 29.9336 229.306C29.9336 272.799 84.3069 357.12 186.534 361.88C208.28 362.893 288.48 367.213 314.987 367.213C378.693 367.213 430.334 309.986 430.334 239.386C430.334 168.8 378.693 111.573 314.987 111.573Z" fill="#040606"/>
<path d="M230.173 460.72C279.72 460.72 325.56 445.013 363.106 418.373L358.226 405.426C350.493 384.84 333.573 369.08 312.493 362.8L194.76 327.733C167.826 319.72 138.693 328.52 120.693 350.106L77.1465 402.386C117.8 438.653 171.4 460.72 230.173 460.72Z" fill="#7DBBC0"/>
<path d="M159.52 290.32C155.053 290.32 150.747 288.88 147.147 286.147C138.121 279.294 136.361 266.387 143.214 257.374C146.401 253.174 151.04 250.387 156.24 249.534C157.8 249.28 159.267 250.334 159.52 251.88C159.773 253.44 158.72 254.894 157.16 255.147C153.4 255.774 150.054 257.787 147.747 260.827C145.347 263.974 144.334 267.88 144.867 271.8C145.4 275.72 147.427 279.214 150.587 281.6C157.093 286.547 166.427 285.28 171.374 278.76C176.32 272.254 175.04 262.92 168.534 257.987C167.28 257.027 167.027 255.24 167.987 253.987C168.933 252.734 170.734 252.494 171.974 253.44C180.987 260.294 182.76 273.2 175.907 282.214C172.587 286.574 167.774 289.387 162.334 290.134C161.387 290.267 160.453 290.32 159.52 290.32Z" fill="#7DBBC0"/>
<path d="M286.933 387.32H233.907C224.44 387.32 216.76 379.654 216.76 370.174V235.467H294.347V379.907C294.347 384 291.027 387.32 286.933 387.32Z" fill="white"/>
<path d="M272.24 253.054L216.76 306.2V241.014H272.24V253.054Z" fill="#040606"/>
<path d="M243.667 132.066C243.667 171.866 211.387 204.146 171.573 204.146C131.76 204.146 99.4932 171.866 99.4932 132.066C99.4932 92.2531 131.76 59.9731 171.573 59.9731C211.387 59.9731 243.667 92.2531 243.667 132.066Z" fill="#040606"/>
<path d="M348.773 128.026C348.773 168.266 316.16 200.88 275.92 200.88C235.693 200.88 203.08 168.266 203.08 128.026C203.08 87.7998 235.693 55.1865 275.92 55.1865C316.16 55.1865 348.773 87.7998 348.773 128.026Z" fill="#040606"/>
<path d="M189.027 149.493L152.88 209.067C135.574 237.573 155.453 274.16 188.787 275.173L193.814 275.32C201.654 275.56 209.494 274.467 216.974 272.067L288.307 249.2C302.134 244.773 309.334 229.573 304.014 216.067L295.814 195.253C295.814 195.253 255.6 121.747 189.027 149.493Z" fill="white"/>
<path d="M320.773 222.986C320.773 235.24 310.839 245.173 298.586 245.173C286.333 245.173 276.399 235.24 276.399 222.986C276.399 210.733 286.333 200.8 298.586 200.8C310.839 200.8 320.773 210.733 320.773 222.986Z" fill="white"/>
<path d="M234.786 131.453C234.786 149.079 220.507 163.359 202.893 163.359C185.28 163.359 171 149.079 171 131.453C171 113.839 185.28 99.5594 202.893 99.5594C220.507 99.5594 234.786 113.839 234.786 131.453Z" fill="#040606"/>
<path d="M352.667 142.253C352.667 176.12 325.214 203.573 291.347 203.573C257.48 203.573 230.014 176.12 230.014 142.253C230.014 108.373 257.48 80.92 291.347 80.92C325.214 80.92 352.667 108.373 352.667 142.253Z" fill="#040606"/>
<path d="M233.4 206.427C231.933 206.427 230.693 205.293 230.573 203.813C229.413 190 208.653 189.773 208.44 189.773C206.866 189.773 205.6 188.493 205.6 186.933C205.6 185.36 206.866 184.08 208.44 184.08C217.506 184.08 234.973 188.107 236.24 203.333C236.373 204.907 235.213 206.28 233.64 206.413C233.56 206.413 233.48 206.427 233.4 206.427Z" fill="#040606"/>
<path d="M186.586 184.894C185.426 184.894 184.32 184.174 183.907 183.014C179.24 169.96 159.12 175.094 158.907 175.147C157.4 175.547 155.84 174.64 155.427 173.12C155.027 171.6 155.933 170.04 157.453 169.64C166.213 167.32 184.12 166.707 189.267 181.094C189.8 182.574 189.027 184.2 187.547 184.734C187.227 184.84 186.906 184.894 186.586 184.894Z" fill="#040606"/>
<path d="M174.466 214.746C173.813 214.746 173.159 214.519 172.626 214.066L168.213 210.333C164.493 207.186 163.999 201.559 167.119 197.813C169.786 194.613 174.239 193.679 177.959 195.546L181.252 197.199L199.933 172.719C200.893 171.466 202.679 171.226 203.933 172.186C205.186 173.133 205.426 174.933 204.466 176.173L184.359 202.533C183.532 203.613 182.039 203.959 180.813 203.346L175.413 200.639C174.066 199.959 172.452 200.306 171.492 201.466C170.372 202.813 170.546 204.839 171.892 205.986L176.306 209.719C177.506 210.733 177.653 212.533 176.639 213.733C176.079 214.399 175.279 214.746 174.466 214.746Z" fill="#040606"/>
<path d="M183.893 237.173C175.4 237.173 169.907 233.973 169.533 233.746C168.187 232.946 167.747 231.186 168.56 229.84C169.373 228.493 171.106 228.053 172.453 228.853C173 229.173 185.2 236.08 201.4 226.106C202.747 225.28 204.493 225.706 205.32 227.04C206.146 228.386 205.733 230.133 204.386 230.96C196.64 235.733 189.587 237.173 183.893 237.173Z" fill="#040606"/>
<path d="M298.586 225.84C298.226 225.84 297.853 225.76 297.493 225.613C296.039 225.013 295.346 223.36 295.946 221.907C296.533 220.493 301.959 208.187 309.986 209.067C311.559 209.24 312.68 210.64 312.506 212.213C312.333 213.773 310.906 214.907 309.359 214.72C306.599 214.427 302.919 219.96 301.226 224.08C300.759 225.173 299.706 225.84 298.586 225.84Z" fill="#040606"/>
<path d="M319.733 270.213C308.413 270.213 299.199 261 299.199 249.68C299.199 244.4 301.199 239.386 304.839 235.546C305.933 234.413 307.733 234.36 308.866 235.453C310.013 236.533 310.053 238.333 308.973 239.48C306.346 242.24 304.906 245.866 304.906 249.68C304.906 257.866 311.559 264.52 319.733 264.52C327.906 264.52 334.559 257.866 334.559 249.68C334.559 241.506 327.906 234.853 319.733 234.853C318.159 234.853 316.879 233.573 316.879 231.999C316.879 230.426 318.159 229.146 319.733 229.146C331.053 229.146 340.266 238.36 340.266 249.68C340.266 261 331.053 270.213 319.733 270.213Z" fill="#7DBBC0"/>
</svg>
