<svg width="461" height="461" viewBox="0 0 461 461" fill="none" xmlns="http://www.w3.org/2000/svg">
<path d="M0.0263672 230.64C0.0263672 103.59 103.026 0.599702 230.066 0.599702C357.12 0.599702 460.12 103.59 460.12 230.64C460.12 357.69 357.12 460.68 230.066 460.68C103.026 460.68 0.0263672 357.69 0.0263672 230.64Z" fill="#FDE6D5"/>
<path d="M328.773 232.216C350.013 194.933 347.84 154.463 347.84 154.463C347.84 112.625 277.48 59.1679 234.253 56.4479C227.613 54.5853 220.627 53.5679 213.387 53.5679C170.84 53.5679 136.333 88.0666 136.333 130.624V154.215C134.213 167.031 133 178.461 131.906 186.428C126.853 223.061 92.7466 221.797 76.3199 240.747C59.8932 259.695 76.3198 276.116 73.7998 303.907C71.5732 328.345 50.7865 328.375 36.3599 354.656C46.4132 370.319 58.2932 384.673 71.7332 397.433C112.533 406.225 168.533 406.227 168.533 406.227C168.533 406.227 413.32 478.893 365.293 330.435C357.227 305.509 308.426 267.905 328.773 232.216Z" fill="#040606"/>
<path d="M46.9601 334.547C46.1335 334.547 45.3201 334.191 44.7601 333.502C43.7601 332.284 43.9335 330.49 45.1601 329.492C58.6001 318.484 64.9335 311.03 69.0935 285.858C70.6801 276.25 69.5201 267.774 68.4935 260.296C66.8268 248.15 65.2535 236.675 76.5202 225.573C82.9068 219.283 91.3202 215.739 99.4535 212.31C113.933 206.202 127.627 200.431 131.96 180.134C132.44 177.915 132.947 175.399 133.507 172.643C134.747 166.446 136.293 158.748 138.28 150.555L139.84 128.795C142.8 87.6095 179.227 56.5456 220.96 59.5416C227.867 60.0376 234.693 61.4695 241.253 63.8002C242.733 64.3282 243.507 65.9575 242.987 67.4389C242.453 68.9215 240.827 69.6882 239.347 69.1709C233.267 67.0122 226.933 65.6842 220.547 65.2256C181.92 62.4576 148.253 91.1509 145.52 129.203L143.947 151.199C143.933 151.356 143.907 151.512 143.867 151.666C141.893 159.836 140.333 167.561 139.08 173.768C138.52 176.548 138.013 179.086 137.533 181.326C132.573 204.528 116.147 211.451 101.667 217.562C93.6801 220.928 86.1335 224.11 80.5202 229.632C71.2802 238.731 72.4801 247.451 74.1334 259.522C75.2134 267.399 76.4402 276.328 74.7202 286.787C70.4668 312.55 63.5868 321.776 48.7601 333.903C48.2268 334.335 47.6001 334.547 46.9601 334.547Z" fill="#040606"/>
<path d="M279.787 432.429C275.853 432.429 271.827 432.365 267.693 432.237C226.053 430.963 189.027 423.386 188.653 423.311C187.12 422.991 186.12 421.486 186.44 419.943C186.76 418.402 188.267 417.423 189.813 417.73C191.267 418.031 335.32 447.158 375.267 398.607C388.453 382.586 388.787 359.329 376.253 329.486C373.213 322.23 365.827 313.674 358 304.614C340.653 284.521 319.067 259.51 331.613 232.403C349.08 194.654 343.867 155.301 343.813 154.907C342.267 136.714 325.6 115.063 299.2 96.8367C274.333 79.6674 245.333 68.7621 225.24 69.2914C223.733 69.3541 222.36 68.0754 222.32 66.5034C222.293 64.9314 223.533 63.6287 225.107 63.5927C246.6 63.1661 276.253 74.0688 302.44 92.1474C330.627 111.617 347.773 134.262 349.467 154.274C349.693 155.794 354.947 195.542 336.787 234.797C325.787 258.569 345.187 281.053 362.32 300.891C370.44 310.302 378.12 319.191 381.507 327.278C394.92 359.229 394.307 384.446 379.667 402.231C363.16 422.287 329.587 432.429 279.787 432.429Z" fill="#040606"/>
<path d="M178.64 306.433C121.093 306.433 68.2933 318.422 26.8267 338.4C65.4667 411.134 141.96 460.68 230.067 460.68C295.827 460.68 355.093 433.052 397.013 388.821C358.44 340.141 275.187 306.433 178.64 306.433Z" fill="#7DBBC0"/>
<path d="M228.146 358.782L135.84 333.273L169.933 209.908L262.24 235.417L228.146 358.782Z" fill="white"/>
<path d="M244.453 299.768L262.24 235.416L203.613 219.213L178.8 236.046C186.586 264.718 209.52 287.91 244.453 299.768Z" fill="#040606"/>
<path d="M243.707 272.325C201.147 272.325 166.653 237.827 166.653 195.271V147.045C166.653 104.489 201.147 69.9891 243.707 69.9891C286.267 69.9891 320.76 104.489 320.76 147.045V195.271C320.76 237.827 286.267 272.325 243.707 272.325Z" fill="white"/>
<path d="M238.226 65.1601C192.066 65.1601 154.64 101.237 154.64 145.74V162.351C187.08 182.943 231.12 179.485 259.653 151.975L296.64 116.315C301.213 111.901 305.133 107.095 308.426 102.02C293.533 79.8468 267.666 65.1601 238.226 65.1601Z" fill="#040606"/>
<path d="M179.493 210.75C167.707 216.024 153.88 210.749 148.613 198.969L147.067 195.51C141.787 183.73 147.067 169.907 158.84 164.632C170.627 159.359 184.453 164.632 189.72 176.412L191.267 179.872C196.547 191.652 191.267 205.476 179.493 210.75Z" fill="white"/>
<path d="M311.506 179.93C310.573 185.607 306.88 189.728 303.266 189.131C299.653 188.535 297.48 183.447 298.413 177.768C299.36 172.09 303.04 167.97 306.653 168.567C310.267 169.163 312.44 174.25 311.506 179.93Z" fill="#040606"/>
<path d="M331.213 168.424C330.413 168.424 329.627 168.092 329.053 167.44C318.067 154.746 297.987 157.882 297.787 157.918C296.227 158.182 294.76 157.125 294.507 155.574C294.253 154.024 295.293 152.558 296.84 152.297C297.8 152.141 320.253 148.577 333.36 163.709C334.4 164.897 334.267 166.697 333.08 167.728C332.533 168.194 331.88 168.424 331.213 168.424Z" fill="#040606"/>
<path d="M260.04 174.876C259.093 180.555 255.414 184.675 251.8 184.077C248.187 183.481 246.013 178.395 246.947 172.716C247.893 167.037 251.574 162.916 255.187 163.513C258.8 164.109 260.973 169.197 260.04 174.876Z" fill="#040606"/>
<path d="M274.68 160.5C274.04 160.5 273.4 160.287 272.867 159.848C259.92 149.144 240.64 155.553 240.44 155.62C238.973 156.128 237.333 155.337 236.827 153.849C236.32 152.364 237.107 150.744 238.587 150.232C239.493 149.92 261.053 142.693 276.493 155.455C277.707 156.457 277.88 158.253 276.867 159.467C276.307 160.148 275.493 160.5 274.68 160.5Z" fill="#040606"/>
<path d="M279.067 215.172C277.493 215.172 276.227 213.9 276.227 212.325C276.213 210.755 277.493 209.479 279.067 209.475C282.013 209.467 288.707 208.617 290.52 206.029C290.867 205.533 291.253 204.665 290.6 202.876C287.507 194.379 282.187 168.517 281.96 167.421C281.64 165.879 282.64 164.373 284.173 164.057C285.707 163.735 287.227 164.735 287.547 166.275C287.6 166.539 293 192.821 295.947 200.931C297.387 204.884 296.333 207.665 295.187 209.301C291.187 215.008 280.293 215.172 279.067 215.172Z" fill="#040606"/>
<path d="M275.28 234.121C275.213 234.121 275.16 234.12 275.093 234.114C258.746 233.094 249.626 220.18 249.253 219.63C248.346 218.337 248.68 216.562 249.973 215.665C251.266 214.772 253.04 215.094 253.933 216.382C254.066 216.573 261.973 227.585 275.453 228.428C277.026 228.526 278.213 229.878 278.12 231.449C278.026 232.96 276.773 234.121 275.28 234.121Z" fill="#040606"/>
<path d="M188.747 305.169C163.093 305.169 139.147 308.545 118.854 314.372C124.56 361.292 159.187 397.384 201.067 397.384C240.4 397.384 273.307 365.562 281.92 322.841C257.96 311.918 225.067 305.169 188.747 305.169Z" fill="white"/>
<path d="M175.813 199.383C175.747 199.383 175.68 199.38 175.6 199.376C174.04 199.267 172.853 197.905 172.96 196.335C174.053 180.776 164.96 176.584 164.573 176.415C163.147 175.784 162.48 174.113 163.093 172.679C163.707 171.245 165.347 170.564 166.8 171.165C167.333 171.391 180.04 176.917 178.64 196.733C178.547 198.236 177.293 199.383 175.813 199.383Z" fill="#040606"/>
</svg>
