<svg width="461" height="461" viewBox="0 0 461 461" fill="none" xmlns="http://www.w3.org/2000/svg">
<path d="M460.306 230.68C460.306 357.733 357.306 460.72 230.253 460.72C103.2 460.72 0.212891 357.733 0.212891 230.68C0.212891 103.626 103.2 0.639624 230.253 0.639624C357.306 0.639624 460.306 103.626 460.306 230.68Z" fill="#BBE1D8"/>
<path d="M460.306 230.68C460.306 357.733 357.306 460.72 230.253 460.72C103.2 460.72 0.212891 357.733 0.212891 230.68C0.212891 103.626 103.2 0.639624 230.253 0.639624C357.306 0.639624 460.306 103.626 460.306 230.68Z" fill="#BBE1D8"/>
<path d="M60.493 311.746C60.493 311.746 34.8264 269.386 84.893 219.973C134.946 170.546 149.067 123.693 167.04 96.0928C185.013 68.5061 244.706 33.8395 279.36 62.7195C314.013 91.5995 324.933 114.706 317.866 149.373C310.813 184.026 368.867 194.346 374.987 231.519C404.187 408.893 134.946 462.573 60.493 311.746Z" fill="#040606"/>
<path d="M230.253 460.72C288.853 460.72 342.293 438.786 382.92 402.706L345.559 343.76C327.159 314.733 294.04 298.453 259.813 301.626L164.453 310.453C131.413 313.506 102.613 334.213 89.1863 364.56L73.8262 399.293C114.88 437.4 169.826 460.72 230.253 460.72Z" fill="#7DBBC0"/>
<path d="M176.026 313.04C176.026 313.04 190.787 243.08 189.507 225.106C188.227 207.133 188.227 204.573 211.973 228.32C235.72 252.066 263.96 261.053 263.96 261.053C263.96 261.053 248.546 288 231.866 318.173C201.106 373.773 177.946 317.52 177.946 317.52L176.026 313.04Z" fill="white"/>
<path d="M172.173 181.627C172.173 181.627 182.387 194.107 190.147 189.16C233.467 161.56 247.907 142.307 254.013 108.933C254.013 108.933 271.613 126.747 294.44 126.747C294.92 126.747 312.253 222.053 279.52 262.493C257.867 289.24 220.307 288.96 172.173 181.627Z" fill="white"/>
<path d="M234.746 154.146C223.586 154.146 214.493 166.906 214.493 182.586C214.493 198.266 223.586 211.026 234.746 211.026C245.92 211.026 255.013 198.266 255.013 182.586C255.013 166.906 245.92 154.146 234.746 154.146ZM234.746 216.72C220.44 216.72 208.8 201.413 208.8 182.586C208.8 163.76 220.44 148.453 234.746 148.453C249.066 148.453 260.707 163.76 260.707 182.586C260.707 201.413 249.066 216.72 234.746 216.72Z" fill="#7DBBC0"/>
<path d="M294.92 154.146C283.76 154.146 274.667 166.906 274.667 182.586C274.667 198.266 283.76 211.026 294.92 211.026C306.094 211.026 315.174 198.266 315.174 182.586C315.174 166.906 306.094 154.146 294.92 154.146ZM294.92 216.72C280.614 216.72 268.974 201.413 268.974 182.586C268.974 163.76 280.614 148.453 294.92 148.453C309.24 148.453 320.88 163.76 320.88 182.586C320.88 201.413 309.24 216.72 294.92 216.72Z" fill="#7DBBC0"/>
<path d="M268.92 185.439H260.267C258.694 185.439 257.427 184.16 257.427 182.586C257.427 181.013 258.694 179.733 260.267 179.733H268.92C270.494 179.733 271.774 181.013 271.774 182.586C271.774 184.16 270.494 185.439 268.92 185.439Z" fill="#7DBBC0"/>
<path d="M264.626 217.253C263.573 217.253 262.547 216.666 262.067 215.64C261.373 214.226 261.973 212.52 263.387 211.84C263.84 211.626 264.24 211.293 264.573 210.92C263.107 208.226 262.44 205.093 262.733 202.053C262.88 200.48 264.227 199.333 265.84 199.48C267.413 199.64 268.56 201.026 268.4 202.6C268.187 204.893 268.827 207.293 270.187 209.16C270.747 209.933 270.88 210.92 270.547 211.813C269.72 214.053 268.013 215.933 265.867 216.973C265.467 217.16 265.04 217.253 264.626 217.253Z" fill="#090C12"/>
<path d="M243.48 235.106C237.906 235.106 232.453 232.293 229.32 227.6C228.453 226.293 228.8 224.533 230.106 223.653C231.413 222.787 233.186 223.133 234.066 224.44C236.453 228.013 241.08 230 245.32 229.253C246.88 228.973 248.346 230.013 248.613 231.56C248.88 233.12 247.853 234.586 246.293 234.866C245.36 235.026 244.426 235.106 243.48 235.106Z" fill="#090C12"/>
<path d="M244.12 184.693C243.853 179.36 240.946 175.187 237.64 175.347C234.333 175.507 231.866 179.96 232.133 185.293C232.4 190.613 235.293 194.8 238.6 194.64C241.92 194.467 244.386 190.013 244.12 184.693Z" fill="#040606"/>
<path d="M291.293 184.693C291.027 179.36 288.12 175.187 284.813 175.347C281.507 175.507 279.04 179.96 279.307 185.293C279.574 190.613 282.467 194.8 285.774 194.64C289.094 194.467 291.56 190.013 291.293 184.693Z" fill="#040606"/>
<path d="M79.4399 347.333C78.5199 347.333 77.6131 346.893 77.0664 346.066C64.7731 327.773 61.8932 306 68.5065 281.373C80.6265 236.226 123.44 191.026 156.16 175.053C213.8 146.906 244.946 117.986 246.266 91.4264C247.426 67.8397 224.506 53.4264 224.28 53.2798C222.933 52.4531 222.52 50.6931 223.346 49.3597C224.173 48.0131 225.92 47.5997 227.266 48.4264C228.32 49.0797 253.253 64.6931 251.946 91.6531C250.546 120.84 219.16 150.613 158.666 180.173C127.066 195.6 85.7064 239.253 73.9998 282.853C67.8398 305.826 70.4531 326.026 81.7998 342.893C82.6798 344.2 82.333 345.973 81.0263 346.853C80.533 347.173 79.9865 347.333 79.4399 347.333Z" fill="white"/>
<path d="M193 202.986C196.413 216.88 193.747 229.466 187.04 231.12C180.32 232.773 172.107 222.866 168.693 208.973C165.267 195.08 167.934 182.493 174.654 180.84C181.36 179.186 189.573 189.106 193 202.986Z" fill="white"/>
<path d="M257.533 283.146C257.52 283.146 257.506 283.146 257.493 283.146C213.533 282.48 204.466 252.826 204.093 251.573C203.653 250.053 204.533 248.48 206.04 248.04C207.56 247.613 209.133 248.466 209.573 249.986C209.906 251.12 218.04 276.853 257.586 277.453C259.16 277.48 260.413 278.773 260.386 280.346C260.36 281.906 259.093 283.146 257.533 283.146Z" fill="#090C12"/>
</svg>
